URWBookmanL-Ligh.ufo
<glyph name="exclam" format="1">
  <advance width="300"/>
  <unicode hex="0021"/>
  <outline>
    <contour>
      <point x="144" y="116" type="curve" smooth="yes"/>
      <point x="108" y="116"/>
      <point x="79" y="87"/>
      <point x="79" y="52" type="curve" smooth="yes"/>
      <point x="79" y="16"/>
      <point x="108" y="-13"/>
      <point x="144" y="-13" type="curve" smooth="yes"/>
      <point x="179" y="-13"/>
      <point x="208" y="16"/>
      <point x="208" y="52" type="curve" smooth="yes"/>
      <point x="208" y="87"/>
      <point x="179" y="116"/>
    </contour>
    <contour>
      <point x="160" y="174" type="line"/>
      <point x="160" y="205" type="line" smooth="yes"/>
      <point x="160" y="243"/>
      <point x="168" y="317"/>
      <point x="177" y="364" type="curve" smooth="yes"/>
      <point x="205" y="500" type="line" smooth="yes"/>
      <point x="214" y="546"/>
      <point x="219" y="581"/>
      <point x="219" y="602" type="curve" smooth="yes"/>
      <point x="219" y="660"/>
      <point x="192" y="694"/>
      <point x="147" y="694" type="curve" smooth="yes"/>
      <point x="99" y="694"/>
      <point x="75" y="661"/>
      <point x="75" y="593" type="curve" smooth="yes"/>
      <point x="75" y="571"/>
      <point x="75" y="571"/>
      <point x="87" y="503" type="curve" smooth="yes"/>
      <point x="109" y="372" type="line" smooth="yes"/>
      <point x="117" y="329"/>
      <point x="124" y="244"/>
      <point x="124" y="206" type="curve" smooth="yes"/>
      <point x="124" y="174" type="line"/>
    </contour>
  </outline>
</glyph>
<glyph name="quotedbl" format="1">
  <advance width="380"/>
  <unicode hex="0022"/>
  <outline>
    <contour>
      <point x="86" y="445" type="line"/>
      <point x="108" y="445" type="line"/>
      <point x="139" y="616" type="line"/>
      <point x="141" y="624"/>
      <point x="142" y="638"/>
      <point x="142" y="645" type="curve" smooth="yes"/>
      <point x="142" y="675"/>
      <point x="125" y="694"/>
      <point x="100" y="694" type="curve" smooth="yes"/>
      <point x="73" y="694"/>
      <point x="56" y="673"/>
      <point x="56" y="640" type="curve" smooth="yes"/>
      <point x="56" y="634"/>
      <point x="57" y="618"/>
      <point x="58" y="614" type="curve"/>
    </contour>
    <contour>
      <point x="267" y="445" type="line"/>
      <point x="289" y="445" type="line"/>
      <point x="320" y="616" type="line"/>
      <point x="322" y="624"/>
      <point x="323" y="638"/>
      <point x="323" y="645" type="curve" smooth="yes"/>
      <point x="323" y="675"/>
      <point x="306" y="694"/>
      <point x="281" y="694" type="curve" smooth="yes"/>
      <point x="254" y="694"/>
      <point x="237" y="673"/>
      <point x="237" y="640" type="curve" smooth="yes"/>
      <point x="237" y="634"/>
      <point x="238" y="618"/>
      <point x="239" y="614" type="curve"/>
    </contour>
  </outline>
</glyph>
<glyph name="numbersign" format="1">
  <advance width="620"/>
  <unicode hex="0023"/>
  <outline>
    <contour>
      <point x="450" y="406" type="line"/>
      <point x="556" y="406" type="line"/>
      <point x="556" y="463" type="line"/>
      <point x="459" y="463" type="line"/>
      <point x="489" y="666" type="line"/>
      <point x="429" y="666" type="line"/>
      <point x="399" y="463" type="line"/>
      <point x="268" y="463" type="line"/>
      <point x="299" y="666" type="line"/>
      <point x="239" y="666" type="line"/>
      <point x="208" y="463" type="line"/>
      <point x="90" y="463" type="line"/>
      <point x="90" y="406" type="line"/>
      <point x="200" y="406" type="line"/>
      <point x="180" y="273" type="line"/>
      <point x="65" y="273" type="line"/>
      <point x="65" y="216" type="line"/>
      <point x="171" y="216" type="line"/>
      <point x="139" y="0" type="line"/>
      <point x="199" y="0" type="line"/>
      <point x="231" y="216" type="line"/>
      <point x="362" y="216" type="line"/>
      <point x="329" y="0" type="line"/>
      <point x="389" y="0" type="line"/>
      <point x="422" y="216" type="line"/>
      <point x="531" y="216" type="line"/>
      <point x="531" y="273" type="line"/>
      <point x="430" y="273" type="line"/>
    </contour>
    <contour>
      <point x="390" y="406" type="line"/>
      <point x="370" y="273" type="line"/>
      <point x="240" y="273" type="line"/>
      <point x="260" y="406" type="line"/>
    </contour>
  </outline>
</glyph>
<glyph name="dollar" format="1">
  <advance width="620"/>
  <unicode hex="0024"/>
  <outline>
    <contour>
      <point x="294" y="791" type="line"/>
      <point x="294" y="669" type="line"/>
      <point x="146" y="664"/>
      <point x="48" y="587"/>
      <point x="48" y="476" type="curve" smooth="yes"/>
      <point x="48" y="379"/>
      <point x="118" y="329"/>
      <point x="294" y="304" type="curve"/>
      <point x="294" y="58" type="line"/>
      <point x="205" y="64"/>
      <point x="158" y="88"/>
      <point x="158" y="128" type="curve" smooth="yes"/>
      <point x="158" y="135"/>
      <point x="159" y="146"/>
      <point x="161" y="157" type="curve"/>
      <point x="164" y="169"/>
      <point x="165" y="181"/>
      <point x="165" y="190" type="curve" smooth="yes"/>
      <point x="165" y="226"/>
      <point x="140" y="252"/>
      <point x="105" y="252" type="curve" smooth="yes"/>
      <point x="63" y="252"/>
      <point x="34" y="222"/>
      <point x="34" y="178" type="curve" smooth="yes"/>
      <point x="34" y="88"/>
      <point x="121" y="34"/>
      <point x="294" y="17" type="curve"/>
      <point x="294" y="-110" type="line"/>
      <point x="331" y="-110" type="line"/>
      <point x="331" y="17" type="line"/>
      <point x="495" y="32"/>
      <point x="593" y="109"/>
      <point x="593" y="220" type="curve" smooth="yes"/>
      <point x="593" y="288"/>
      <point x="560" y="334"/>
      <point x="495" y="361" type="curve" smooth="yes"/>
      <point x="462" y="375"/>
      <point x="416" y="385"/>
      <point x="331" y="398" type="curve"/>
      <point x="331" y="628" type="line"/>
      <point x="407" y="618"/>
      <point x="440" y="594"/>
      <point x="440" y="549" type="curve" smooth="yes"/>
      <point x="440" y="544"/>
      <point x="440" y="544"/>
      <point x="438" y="529" type="curve"/>
      <point x="437" y="524"/>
      <point x="437" y="518"/>
      <point x="437" y="513" type="curve" smooth="yes"/>
      <point x="437" y="479"/>
      <point x="459" y="457"/>
      <point x="491" y="457" type="curve" smooth="yes"/>
      <point x="528" y="457"/>
      <point x="553" y="482"/>
      <point x="553" y="519" type="curve" smooth="yes"/>
      <point x="553" y="555"/>
      <point x="530" y="591"/>
      <point x="487" y="621" type="curve" smooth="yes"/>
      <point x="449" y="648"/>
      <point x="403" y="663"/>
      <point x="331" y="669" type="curve"/>
      <point x="331" y="791" type="line"/>
    </contour>
    <contour>
      <point x="294" y="628" type="line"/>
      <point x="294" y="407" type="line"/>
      <point x="239" y="415"/>
      <point x="218" y="421"/>
      <point x="190" y="438" type="curve" smooth="yes"/>
      <point x="161" y="455"/>
      <point x="143" y="486"/>
      <point x="143" y="520" type="curve" smooth="yes"/>
      <point x="143" y="554"/>
      <point x="163" y="587"/>
      <point x="193" y="604" type="curve" smooth="yes"/>
      <point x="219" y="618"/>
      <point x="257" y="628"/>
      <point x="284" y="628" type="curve" smooth="yes"/>
    </contour>
    <contour>
      <point x="331" y="297" type="line"/>
      <point x="376" y="289"/>
      <point x="401" y="283"/>
      <point x="423" y="275" type="curve" smooth="yes"/>
      <point x="473" y="256"/>
      <point x="498" y="226"/>
      <point x="498" y="185" type="curve" smooth="yes"/>
      <point x="498" y="112"/>
      <point x="431" y="61"/>
      <point x="331" y="58" type="curve"/>
    </contour>
  </outline>
</glyph>
<glyph name="percent" format="1">
  <advance width="900"/>
  <unicode hex="0025"/>
  <outline>
    <contour>
      <point x="195" y="689" type="curve" smooth="yes"/>
      <point x="153" y="689"/>
      <point x="111" y="672"/>
      <point x="83" y="644" type="curve" smooth="yes"/>
      <point x="46" y="606"/>
      <point x="22" y="541"/>
      <point x="22" y="478" type="curve" smooth="yes"/>
      <point x="22" y="352"/>
      <point x="93" y="265"/>
      <point x="195" y="265" type="curve" smooth="yes"/>
      <point x="297" y="265"/>
      <point x="369" y="351"/>
      <point x="369" y="474" type="curve" smooth="yes"/>
      <point x="369" y="602"/>
      <point x="298" y="689"/>
    </contour>
    <contour>
      <point x="197" y="652" type="curve" smooth="yes"/>
      <point x="260" y="652"/>
      <point x="294" y="591"/>
      <point x="294" y="478" type="curve" smooth="yes"/>
      <point x="294" y="364"/>
      <point x="259" y="302"/>
      <point x="195" y="302" type="curve" smooth="yes"/>
      <point x="133" y="302"/>
      <point x="97" y="364"/>
      <point x="97" y="472" type="curve" smooth="yes"/>
      <point x="97" y="533"/>
      <point x="113" y="597"/>
      <point x="134" y="622" type="curve" smooth="yes"/>
      <point x="149" y="641"/>
      <point x="172" y="652"/>
    </contour>
    <contour>
      <point x="710" y="681" type="line"/>
      <point x="651" y="681" type="line"/>
      <point x="187" y="0" type="line"/>
      <point x="246" y="0" type="line"/>
    </contour>
    <contour>
      <point x="699" y="416" type="curve" smooth="yes"/>
      <point x="657" y="416"/>
      <point x="615" y="399"/>
      <point x="587" y="371" type="curve" smooth="yes"/>
      <point x="550" y="333"/>
      <point x="526" y="268"/>
      <point x="526" y="205" type="curve" smooth="yes"/>
      <point x="526" y="79"/>
      <point x="597" y="-8"/>
      <point x="699" y="-8" type="curve" smooth="yes"/>
      <point x="801" y="-8"/>
      <point x="873" y="78"/>
      <point x="873" y="201" type="curve" smooth="yes"/>
      <point x="873" y="329"/>
      <point x="802" y="416"/>
    </contour>
    <contour>
      <point x="701" y="379" type="curve" smooth="yes"/>
      <point x="764" y="379"/>
      <point x="798" y="318"/>
      <point x="798" y="205" type="curve" smooth="yes"/>
      <point x="798" y="91"/>
      <point x="763" y="29"/>
      <point x="700" y="29" type="curve" smooth="yes"/>
      <point x="637" y="29"/>
      <point x="601" y="90"/>
      <point x="601" y="199" type="curve" smooth="yes"/>
      <point x="601" y="260"/>
      <point x="617" y="324"/>
      <point x="638" y="349" type="curve" smooth="yes"/>
      <point x="653" y="368"/>
      <point x="676" y="379"/>
    </contour>
  </outline>
</glyph>
<glyph name="ampersand" format="1">
  <advance width="800"/>
  <unicode hex="0026"/>
  <outline>
    <contour>
      <point x="766" y="458" type="line"/>
      <point x="526" y="458" type="line"/>
      <point x="526" y="428" type="line"/>
      <point x="594" y="415"/>
      <point x="607" y="405"/>
      <point x="607" y="365" type="curve" smooth="yes"/>
      <point x="607" y="310"/>
      <point x="591" y="255"/>
      <point x="559" y="198" type="curve"/>
      <point x="500" y="278"/>
      <point x="424" y="358"/>
      <point x="359" y="408" type="curve"/>
      <point x="443" y="436"/>
      <point x="498" y="499"/>
      <point x="498" y="565" type="curve" smooth="yes"/>
      <point x="498" y="639"/>
      <point x="434" y="694"/>
      <point x="347" y="694" type="curve" smooth="yes"/>
      <point x="247" y="694"/>
      <point x="168" y="631"/>
      <point x="168" y="550" type="curve" smooth="yes"/>
      <point x="168" y="496"/>
      <point x="190" y="452"/>
      <point x="238" y="408" type="curve"/>
      <point x="174" y="389"/>
      <point x="145" y="374"/>
      <point x="111" y="342" type="curve" smooth="yes"/>
      <point x="69" y="302"/>
      <point x="45" y="251"/>
      <point x="45" y="200" type="curve" smooth="yes"/>
      <point x="45" y="139"/>
      <point x="79" y="75"/>
      <point x="132" y="38" type="curve" smooth="yes"/>
      <point x="176" y="6"/>
      <point x="243" y="-13"/>
      <point x="309" y="-13" type="curve" smooth="yes"/>
      <point x="394" y="-13"/>
      <point x="450" y="10"/>
      <point x="526" y="77" type="curve"/>
      <point x="546" y="45"/>
      <point x="559" y="32"/>
      <point x="581" y="19" type="curve" smooth="yes"/>
      <point x="611" y="2"/>
      <point x="625" y="0"/>
      <point x="690" y="0" type="curve" smooth="yes"/>
      <point x="787" y="0" type="line"/>
      <point x="787" y="38" type="line"/>
      <point x="775" y="37"/>
      <point x="764" y="37"/>
      <point x="755" y="37" type="curve" smooth="yes"/>
      <point x="683" y="37"/>
      <point x="648" y="60"/>
      <point x="587" y="148" type="curve"/>
      <point x="616" y="192"/>
      <point x="632" y="231"/>
      <point x="649" y="296" type="curve" smooth="yes"/>
      <point x="674" y="403"/>
      <point x="682" y="412"/>
      <point x="766" y="428" type="curve"/>
    </contour>
    <contour>
      <point x="325" y="439" type="curve"/>
      <point x="275" y="490"/>
      <point x="256" y="525"/>
      <point x="256" y="567" type="curve" smooth="yes"/>
      <point x="256" y="616"/>
      <point x="293" y="654"/>
      <point x="342" y="654" type="curve" smooth="yes"/>
      <point x="392" y="654"/>
      <point x="428" y="620"/>
      <point x="428" y="572" type="curve" smooth="yes"/>
      <point x="428" y="525"/>
      <point x="401" y="478"/>
      <point x="362" y="456" type="curve" smooth="yes"/>
      <point x="353" y="451"/>
      <point x="352" y="451"/>
    </contour>
    <contour>
      <point x="267" y="376" type="curve"/>
      <point x="344" y="323"/>
      <point x="428" y="232"/>
      <point x="505" y="119" type="curve"/>
      <point x="451" y="59"/>
      <point x="396" y="33"/>
      <point x="324" y="33" type="curve" smooth="yes"/>
      <point x="218" y="33"/>
      <point x="147" y="107"/>
      <point x="147" y="218" type="curve" smooth="yes"/>
      <point x="147" y="301"/>
      <point x="186" y="352"/>
    </contour>
  </outline>
</glyph>
<glyph name="quotesingle" format="1">
  <advance width="220"/>
  <unicode hex="0027"/>
  <outline>
    <contour>
      <point x="97" y="445" type="line"/>
      <point x="119" y="445" type="line"/>
      <point x="150" y="616" type="line"/>
      <point x="152" y="624"/>
      <point x="153" y="638"/>
      <point x="153" y="645" type="curve" smooth="yes"/>
      <point x="153" y="675"/>
      <point x="136" y="694"/>
      <point x="111" y="694" type="curve" smooth="yes"/>
      <point x="84" y="694"/>
      <point x="67" y="673"/>
      <point x="67" y="640" type="curve" smooth="yes"/>
      <point x="67" y="634"/>
      <point x="68" y="618"/>
      <point x="69" y="614" type="curve"/>
    </contour>
  </outline>
</glyph>
<glyph name="parenleft" format="1">
  <advance width="300"/>
  <unicode hex="0028"/>
  <outline>
    <contour>
      <point x="278" y="717" type="line"/>
      <point x="245" y="712"/>
      <point x="231" y="708"/>
      <point x="213" y="699" type="curve" smooth="yes"/>
      <point x="177" y="682"/>
      <point x="144" y="651"/>
      <point x="126" y="619" type="curve" smooth="yes"/>
      <point x="88" y="551"/>
      <point x="76" y="469"/>
      <point x="76" y="283" type="curve" smooth="yes"/>
      <point x="76" y="39"/>
      <point x="99" y="-50"/>
      <point x="178" y="-112" type="curve" smooth="yes"/>
      <point x="208" y="-135"/>
      <point x="230" y="-143"/>
      <point x="278" y="-151" type="curve"/>
      <point x="278" y="-113" type="line"/>
      <point x="196" y="-84"/>
      <point x="171" y="3"/>
      <point x="171" y="260" type="curve" smooth="yes"/>
      <point x="171" y="306" type="line" smooth="yes"/>
      <point x="171" y="563"/>
      <point x="196" y="650"/>
      <point x="278" y="679" type="curve"/>
    </contour>
  </outline>
</glyph>
<glyph name="parenright" format="1">
  <advance width="300"/>
  <unicode hex="0029"/>
  <outline>
    <contour>
      <point x="17" y="-151" type="line"/>
      <point x="50" y="-146"/>
      <point x="64" y="-142"/>
      <point x="82" y="-133" type="curve" smooth="yes"/>
      <point x="118" y="-116"/>
      <point x="151" y="-85"/>
      <point x="169" y="-53" type="curve" smooth="yes"/>
      <point x="207" y="16"/>
      <point x="219" y="94"/>
      <point x="219" y="283" type="curve" smooth="yes"/>
      <point x="219" y="529"/>
      <point x="196" y="616"/>
      <point x="117" y="678" type="curve" smooth="yes"/>
      <point x="87" y="701"/>
      <point x="65" y="709"/>
      <point x="17" y="717" type="curve"/>
      <point x="17" y="679" type="line"/>
      <point x="99" y="650"/>
      <point x="124" y="563"/>
      <point x="124" y="306" type="curve" smooth="yes"/>
      <point x="124" y="260" type="line" smooth="yes"/>
      <point x="124" y="3"/>
      <point x="99" y="-84"/>
      <point x="17" y="-113" type="curve"/>
    </contour>
  </outline>
</glyph>
<glyph name="asterisk" format="1">
  <advance width="440"/>
  <unicode hex="002A"/>
  <outline>
    <contour>
      <point x="213" y="549" type="line"/>
      <point x="195" y="541" type="line"/>
      <point x="147" y="597" type="line" smooth="yes"/>
      <point x="128" y="618"/>
      <point x="115" y="627"/>
      <point x="101" y="627" type="curve" smooth="yes"/>
      <point x="77" y="627"/>
      <point x="55" y="602"/>
      <point x="55" y="574" type="curve" smooth="yes"/>
      <point x="55" y="552"/>
      <point x="73" y="538"/>
      <point x="109" y="532" type="curve" smooth="yes"/>
      <point x="183" y="520" type="line"/>
      <point x="180" y="501" type="line"/>
      <point x="108" y="487" type="line" smooth="yes"/>
      <point x="70" y="480"/>
      <point x="54" y="467"/>
      <point x="54" y="444" type="curve" smooth="yes"/>
      <point x="54" y="418"/>
      <point x="76" y="392"/>
      <point x="99" y="392" type="curve" smooth="yes"/>
      <point x="115" y="392"/>
      <point x="128" y="401"/>
      <point x="145" y="422" type="curve" smooth="yes"/>
      <point x="192" y="480" type="line"/>
      <point x="208" y="468" type="line"/>
      <point x="184" y="398" type="line" smooth="yes"/>
      <point x="178" y="382"/>
      <point x="176" y="372"/>
      <point x="176" y="362" type="curve" smooth="yes"/>
      <point x="176" y="339"/>
      <point x="195" y="323"/>
      <point x="222" y="323" type="curve" smooth="yes"/>
      <point x="249" y="323"/>
      <point x="267" y="339"/>
      <point x="267" y="364" type="curve" smooth="yes"/>
      <point x="267" y="372"/>
      <point x="264" y="384"/>
      <point x="259" y="398" type="curve" smooth="yes"/>
      <point x="232" y="468" type="line"/>
      <point x="250" y="476" type="line"/>
      <point x="299" y="420" type="line" smooth="yes"/>
      <point x="318" y="397"/>
      <point x="329" y="390"/>
      <point x="345" y="390" type="curve" smooth="yes"/>
      <point x="368" y="390"/>
      <point x="390" y="416"/>
      <point x="390" y="443" type="curve" smooth="yes"/>
      <point x="390" y="465"/>
      <point x="372" y="479"/>
      <point x="336" y="485" type="curve" smooth="yes"/>
      <point x="262" y="497" type="line"/>
      <point x="265" y="516" type="line"/>
      <point x="337" y="530" type="line" smooth="yes"/>
      <point x="375" y="537"/>
      <point x="391" y="550"/>
      <point x="391" y="573" type="curve" smooth="yes"/>
      <point x="391" y="599"/>
      <point x="369" y="625"/>
      <point x="346" y="625" type="curve" smooth="yes"/>
      <point x="330" y="625"/>
      <point x="316" y="616"/>
      <point x="300" y="595" type="curve" smooth="yes"/>
      <point x="253" y="537" type="line"/>
      <point x="237" y="549" type="line"/>
      <point x="261" y="619" type="line" smooth="yes"/>
      <point x="267" y="636"/>
      <point x="269" y="646"/>
      <point x="269" y="655" type="curve" smooth="yes"/>
      <point x="269" y="678"/>
      <point x="250" y="694"/>
      <point x="224" y="694" type="curve" smooth="yes"/>
      <point x="196" y="694"/>
      <point x="178" y="678"/>
      <point x="178" y="652" type="curve" smooth="yes"/>
      <point x="178" y="644"/>
      <point x="181" y="633"/>
      <point x="186" y="619" type="curve" smooth="yes"/>
    </contour>
  </outline>
</glyph>
<glyph name="plus" format="1">
  <advance width="600"/>
  <unicode hex="002B"/>
  <outline>
    <contour>
      <point x="555" y="392" type="line"/>
      <point x="342" y="392" type="line"/>
      <point x="342" y="595" type="line"/>
      <point x="264" y="595" type="line"/>
      <point x="264" y="392" type="line"/>
      <point x="51" y="392" type="line"/>
      <point x="51" y="314" type="line"/>
      <point x="264" y="314" type="line"/>
      <point x="264" y="111" type="line"/>
      <point x="342" y="111" type="line"/>
      <point x="342" y="314" type="line"/>
      <point x="555" y="314" type="line"/>
    </contour>
  </outline>
</glyph>
<glyph name="comma" format="1">
  <advance width="320"/>
  <unicode hex="002C"/>
  <outline>
    <contour>
      <point x="115" y="-112" type="line"/>
      <point x="185" y="-81"/>
      <point x="223" y="-31"/>
      <point x="223" y="31" type="curve" smooth="yes"/>
      <point x="223" y="80"/>
      <point x="193" y="117"/>
      <point x="153" y="117" type="curve" smooth="yes"/>
      <point x="117" y="117"/>
      <point x="90" y="89"/>
      <point x="90" y="51" type="curve" smooth="yes"/>
      <point x="90" y="19"/>
      <point x="112" y="-6"/>
      <point x="141" y="-6" type="curve" smooth="yes"/>
      <point x="154" y="-6"/>
      <point x="162" y="-3"/>
      <point x="178" y="9" type="curve"/>
      <point x="169" y="-38"/>
      <point x="146" y="-68"/>
      <point x="104" y="-92" type="curve"/>
    </contour>
  </outline>
</glyph>
<glyph name="hyphen" format="1">
  <advance width="400"/>
  <unicode hex="002D"/>
  <outline>
    <contour>
      <point x="350" y="289" type="line"/>
      <point x="79" y="289" type="line"/>
      <point x="50" y="232" type="line"/>
      <point x="322" y="232" type="line"/>
    </contour>
  </outline>
</glyph>
<glyph name="period" format="1">
  <advance width="320"/>
  <unicode hex="002E"/>
  <outline>
    <contour>
      <point x="157" y="115" type="curve" smooth="yes"/>
      <point x="121" y="115"/>
      <point x="92" y="87"/>
      <point x="92" y="52" type="curve" smooth="yes"/>
      <point x="92" y="16"/>
      <point x="121" y="-13"/>
      <point x="156" y="-13" type="curve" smooth="yes"/>
      <point x="191" y="-13"/>
      <point x="220" y="16"/>
      <point x="220" y="51" type="curve" smooth="yes"/>
      <point x="220" y="86"/>
      <point x="191" y="115"/>
    </contour>
  </outline>
</glyph>
<glyph name="zero" format="1">
  <advance width="620"/>
  <unicode hex="0030"/>
  <outline>
    <contour>
      <point x="312" y="694" type="curve" smooth="yes"/>
      <point x="246" y="694"/>
      <point x="180" y="666"/>
      <point x="137" y="619" type="curve" smooth="yes"/>
      <point x="78" y="555"/>
      <point x="40" y="447"/>
      <point x="40" y="343" type="curve" smooth="yes"/>
      <point x="40" y="132"/>
      <point x="151" y="-13"/>
      <point x="312" y="-13" type="curve" smooth="yes"/>
      <point x="473" y="-13"/>
      <point x="586" y="131"/>
      <point x="586" y="336" type="curve" smooth="yes"/>
      <point x="586" y="549"/>
      <point x="475" y="694"/>
    </contour>
    <contour>
      <point x="316" y="646" type="curve" smooth="yes"/>
      <point x="359" y="646"/>
      <point x="398" y="626"/>
      <point x="425" y="588" type="curve" smooth="yes"/>
      <point x="459" y="543"/>
      <point x="478" y="452"/>
      <point x="478" y="343" type="curve" smooth="yes"/>
      <point x="478" y="261"/>
      <point x="467" y="186"/>
      <point x="446" y="133" type="curve" smooth="yes"/>
      <point x="424" y="74"/>
      <point x="371" y="35"/>
      <point x="314" y="35" type="curve" smooth="yes"/>
      <point x="250" y="35"/>
      <point x="195" y="80"/>
      <point x="172" y="152" type="curve" smooth="yes"/>
      <point x="156" y="203"/>
      <point x="148" y="265"/>
      <point x="148" y="332" type="curve" smooth="yes"/>
      <point x="148" y="407"/>
      <point x="164" y="498"/>
      <point x="186" y="554" type="curve" smooth="yes"/>
      <point x="209" y="611"/>
      <point x="258" y="646"/>
    </contour>
  </outline>
</glyph>
<glyph name="one" format="1">
  <advance width="620"/>
  <unicode hex="0031"/>
  <outline>
    <contour>
      <point x="379" y="681" type="line"/>
      <point x="347" y="681" type="line"/>
      <point x="282" y="666"/>
      <point x="261" y="662"/>
      <point x="161" y="650" type="curve"/>
      <point x="161" y="620" type="line"/>
      <point x="201" y="618" type="line" smooth="yes"/>
      <point x="274" y="615"/>
      <point x="284" y="603"/>
      <point x="284" y="524" type="curve" smooth="yes"/>
      <point x="284" y="141" type="line" smooth="yes"/>
      <point x="284" y="87"/>
      <point x="281" y="71"/>
      <point x="271" y="61" type="curve" smooth="yes"/>
      <point x="255" y="45"/>
      <point x="225" y="34"/>
      <point x="193" y="32" type="curve" smooth="yes"/>
      <point x="160" y="30" type="line"/>
      <point x="160" y="0" type="line"/>
      <point x="501" y="0" type="line"/>
      <point x="501" y="30" type="line"/>
      <point x="469" y="32" type="line" smooth="yes"/>
      <point x="393" y="37"/>
      <point x="379" y="53"/>
      <point x="379" y="139" type="curve" smooth="yes"/>
    </contour>
  </outline>
</glyph>
<glyph name="two" format="1">
  <advance width="620"/>
  <unicode hex="0032"/>
  <outline>
    <contour>
      <point x="576" y="187" type="line"/>
      <point x="538" y="197" type="line"/>
      <point x="528" y="174" type="line" smooth="yes"/>
      <point x="494" y="96"/>
      <point x="471" y="82"/>
      <point x="380" y="82" type="curve" smooth="yes"/>
      <point x="153" y="82" type="line"/>
      <point x="272" y="157"/>
      <point x="309" y="183"/>
      <point x="358" y="224" type="curve" smooth="yes"/>
      <point x="475" y="322"/>
      <point x="533" y="414"/>
      <point x="533" y="499" type="curve" smooth="yes"/>
      <point x="533" y="613"/>
      <point x="431" y="694"/>
      <point x="287" y="694" type="curve" smooth="yes"/>
      <point x="156" y="694"/>
      <point x="46" y="608"/>
      <point x="46" y="506" type="curve" smooth="yes"/>
      <point x="46" y="458"/>
      <point x="76" y="422"/>
      <point x="114" y="422" type="curve" smooth="yes"/>
      <point x="144" y="422"/>
      <point x="171" y="448"/>
      <point x="171" y="476" type="curve" smooth="yes"/>
      <point x="171" y="486"/>
      <point x="166" y="499"/>
      <point x="159" y="508" type="curve" smooth="yes"/>
      <point x="141" y="530"/>
      <point x="138" y="537"/>
      <point x="138" y="554" type="curve" smooth="yes"/>
      <point x="138" y="602"/>
      <point x="206" y="646"/>
      <point x="279" y="646" type="curve" smooth="yes"/>
      <point x="361" y="646"/>
      <point x="415" y="592"/>
      <point x="415" y="513" type="curve" smooth="yes"/>
      <point x="415" y="437"/>
      <point x="378" y="361"/>
      <point x="295" y="268" type="curve" smooth="yes"/>
      <point x="229" y="195"/>
      <point x="168" y="147"/>
      <point x="42" y="70" type="curve"/>
      <point x="42" y="0" type="line"/>
      <point x="528" y="0" type="line"/>
    </contour>
  </outline>
</glyph>
<glyph name="three" format="1">
  <advance width="620"/>
  <unicode hex="0033"/>
  <outline>
    <contour>
      <point x="221" y="350" type="line"/>
      <point x="262" y="354"/>
      <point x="279" y="355"/>
      <point x="291" y="355" type="curve" smooth="yes"/>
      <point x="336" y="355"/>
      <point x="384" y="341"/>
      <point x="411" y="320" type="curve" smooth="yes"/>
      <point x="443" y="295"/>
      <point x="463" y="246"/>
      <point x="463" y="194" type="curve" smooth="yes"/>
      <point x="463" y="92"/>
      <point x="399" y="32"/>
      <point x="292" y="32" type="curve" smooth="yes"/>
      <point x="248" y="32"/>
      <point x="210" y="41"/>
      <point x="182" y="59" type="curve" smooth="yes"/>
      <point x="163" y="71"/>
      <point x="148" y="93"/>
      <point x="148" y="109" type="curve" smooth="yes"/>
      <point x="148" y="112"/>
      <point x="149" y="115"/>
      <point x="150" y="120" type="curve"/>
      <point x="157" y="142"/>
      <point x="157" y="142"/>
      <point x="157" y="154" type="curve" smooth="yes"/>
      <point x="157" y="186"/>
      <point x="134" y="210"/>
      <point x="101" y="210" type="curve" smooth="yes"/>
      <point x="67" y="210"/>
      <point x="40" y="179"/>
      <point x="40" y="141" type="curve" smooth="yes"/>
      <point x="40" y="104"/>
      <point x="64" y="66"/>
      <point x="103" y="38" type="curve" smooth="yes"/>
      <point x="153" y="3"/>
      <point x="212" y="-13"/>
      <point x="288" y="-13" type="curve" smooth="yes"/>
      <point x="456" y="-13"/>
      <point x="576" y="74"/>
      <point x="576" y="196" type="curve" smooth="yes"/>
      <point x="576" y="255"/>
      <point x="545" y="308"/>
      <point x="494" y="338" type="curve" smooth="yes"/>
      <point x="462" y="357"/>
      <point x="436" y="366"/>
      <point x="375" y="378" type="curve"/>
      <point x="432" y="391"/>
      <point x="458" y="402"/>
      <point x="484" y="422" type="curve" smooth="yes"/>
      <point x="519" y="450"/>
      <point x="541" y="491"/>
      <point x="541" y="531" type="curve" smooth="yes"/>
      <point x="541" y="625"/>
      <point x="440" y="694"/>
      <point x="302" y="694" type="curve" smooth="yes"/>
      <point x="242" y="694"/>
      <point x="192" y="680"/>
      <point x="152" y="653" type="curve" smooth="yes"/>
      <point x="106" y="622"/>
      <point x="77" y="576"/>
      <point x="77" y="532" type="curve" smooth="yes"/>
      <point x="77" y="495"/>
      <point x="102" y="468"/>
      <point x="135" y="468" type="curve" smooth="yes"/>
      <point x="165" y="468"/>
      <point x="190" y="490"/>
      <point x="190" y="516" type="curve" smooth="yes"/>
      <point x="190" y="523"/>
      <point x="188" y="531"/>
      <point x="185" y="540" type="curve"/>
      <point x="173" y="567"/>
      <point x="173" y="567"/>
      <point x="173" y="575" type="curve" smooth="yes"/>
      <point x="173" y="616"/>
      <point x="228" y="649"/>
      <point x="296" y="649" type="curve" smooth="yes"/>
      <point x="379" y="649"/>
      <point x="433" y="600"/>
      <point x="433" y="524" type="curve" smooth="yes"/>
      <point x="433" y="490"/>
      <point x="418" y="452"/>
      <point x="396" y="433" type="curve" smooth="yes"/>
      <point x="370" y="409"/>
      <point x="320" y="393"/>
      <point x="271" y="393" type="curve" smooth="yes"/>
      <point x="263" y="393"/>
      <point x="246" y="394"/>
      <point x="221" y="395" type="curve"/>
    </contour>
  </outline>
</glyph>
<glyph name="four" format="1">
  <advance width="620"/>
  <unicode hex="0034"/>
  <outline>
    <contour>
      <point x="448" y="681" type="line"/>
      <point x="353" y="681" type="line"/>
      <point x="335" y="657" type="line"/>
      <point x="182" y="436" type="line"/>
      <point x="25" y="227" type="line"/>
      <point x="40" y="186" type="line"/>
      <point x="353" y="186" type="line"/>
      <point x="353" y="144" type="line" smooth="yes"/>
      <point x="353" y="99"/>
      <point x="351" y="79"/>
      <point x="344" y="64" type="curve" smooth="yes"/>
      <point x="336" y="46"/>
      <point x="314" y="34"/>
      <point x="289" y="32" type="curve" smooth="yes"/>
      <point x="256" y="30" type="line"/>
      <point x="256" y="0" type="line"/>
      <point x="545" y="0" type="line"/>
      <point x="545" y="30" type="line"/>
      <point x="512" y="32" type="line" smooth="yes"/>
      <point x="487" y="34"/>
      <point x="466" y="46"/>
      <point x="457" y="64" type="curve"/>
      <point x="451" y="79"/>
      <point x="448" y="100"/>
      <point x="448" y="144" type="curve" smooth="yes"/>
      <point x="448" y="186" type="line"/>
      <point x="578" y="186" type="line"/>
      <point x="600" y="243" type="line"/>
      <point x="448" y="243" type="line"/>
    </contour>
    <contour>
      <point x="353" y="243" type="line"/>
      <point x="96" y="243" type="line"/>
      <point x="101" y="251"/>
      <point x="106" y="258"/>
      <point x="112" y="265" type="curve"/>
      <point x="174" y="349" type="line"/>
      <point x="263" y="471" type="line"/>
      <point x="353" y="596" type="line"/>
    </contour>
  </outline>
</glyph>
<glyph name="five" format="1">
  <advance width="620"/>
  <unicode hex="0035"/>
  <outline>
    <contour>
      <point x="520" y="717" type="line"/>
      <point x="482" y="717" type="line"/>
      <point x="464" y="686"/>
      <point x="452" y="681"/>
      <point x="401" y="681" type="curve" smooth="yes"/>
      <point x="99" y="681" type="line"/>
      <point x="99" y="322" type="line"/>
      <point x="142" y="312" type="line"/>
      <point x="192" y="381"/>
      <point x="231" y="404"/>
      <point x="299" y="404" type="curve" smooth="yes"/>
      <point x="405" y="404"/>
      <point x="471" y="333"/>
      <point x="471" y="221" type="curve" smooth="yes"/>
      <point x="471" y="106"/>
      <point x="399" y="32"/>
      <point x="288" y="32" type="curve" smooth="yes"/>
      <point x="223" y="32"/>
      <point x="169" y="60"/>
      <point x="169" y="94" type="curve"/>
      <point x="170" y="105" type="line"/>
      <point x="179" y="134"/>
      <point x="179" y="134"/>
      <point x="179" y="142" type="curve" smooth="yes"/>
      <point x="179" y="172"/>
      <point x="152" y="198"/>
      <point x="121" y="198" type="curve" smooth="yes"/>
      <point x="87" y="198"/>
      <point x="60" y="169"/>
      <point x="60" y="134" type="curve" smooth="yes"/>
      <point x="60" y="51"/>
      <point x="166" y="-13"/>
      <point x="302" y="-13" type="curve" smooth="yes"/>
      <point x="469" y="-13"/>
      <point x="584" y="89"/>
      <point x="584" y="236" type="curve" smooth="yes"/>
      <point x="584" y="370"/>
      <point x="481" y="462"/>
      <point x="332" y="462" type="curve" smooth="yes"/>
      <point x="265" y="462"/>
      <point x="220" y="446"/>
      <point x="161" y="399" type="curve"/>
      <point x="161" y="599" type="line"/>
      <point x="503" y="599" type="line"/>
    </contour>
  </outline>
</glyph>
<glyph name="six" format="1">
  <advance width="620"/>
  <unicode hex="0036"/>
  <outline>
    <contour>
      <point x="154" y="333" type="curve"/>
      <point x="158" y="403"/>
      <point x="158" y="408"/>
      <point x="162" y="438" type="curve" smooth="yes"/>
      <point x="181" y="582"/>
      <point x="242" y="654"/>
      <point x="343" y="654" type="curve" smooth="yes"/>
      <point x="382" y="654"/>
      <point x="417" y="642"/>
      <point x="436" y="623" type="curve" smooth="yes"/>
      <point x="443" y="616"/>
      <point x="445" y="609"/>
      <point x="446" y="595" type="curve"/>
      <point x="446" y="548"/>
      <point x="471" y="516"/>
      <point x="509" y="516" type="curve" smooth="yes"/>
      <point x="539" y="516"/>
      <point x="561" y="537"/>
      <point x="561" y="565" type="curve" smooth="yes"/>
      <point x="561" y="633"/>
      <point x="460" y="694"/>
      <point x="346" y="694" type="curve" smooth="yes"/>
      <point x="242" y="694"/>
      <point x="145" y="637"/>
      <point x="96" y="547" type="curve" smooth="yes"/>
      <point x="63" y="485"/>
      <point x="45" y="403"/>
      <point x="45" y="318" type="curve" smooth="yes"/>
      <point x="45" y="225"/>
      <point x="68" y="142"/>
      <point x="108" y="87" type="curve" smooth="yes"/>
      <point x="154" y="25"/>
      <point x="234" y="-13"/>
      <point x="322" y="-13" type="curve" smooth="yes"/>
      <point x="473" y="-13"/>
      <point x="590" y="86"/>
      <point x="590" y="215" type="curve" smooth="yes"/>
      <point x="590" y="342"/>
      <point x="488" y="435"/>
      <point x="349" y="435" type="curve" smooth="yes"/>
      <point x="264" y="435"/>
      <point x="206" y="404"/>
    </contour>
    <contour>
      <point x="326" y="383" type="curve" smooth="yes"/>
      <point x="417" y="383"/>
      <point x="477" y="315"/>
      <point x="477" y="210" type="curve" smooth="yes"/>
      <point x="477" y="103"/>
      <point x="416" y="35"/>
      <point x="320" y="35" type="curve" smooth="yes"/>
      <point x="222" y="35"/>
      <point x="163" y="99"/>
      <point x="163" y="203" type="curve" smooth="yes"/>
      <point x="163" y="313"/>
      <point x="226" y="383"/>
    </contour>
  </outline>
</glyph>
<glyph name="seven" format="1">
  <advance width="620"/>
  <unicode hex="0037"/>
  <outline>
    <contour>
      <point x="578" y="681" type="line"/>
      <point x="92" y="681" type="line"/>
      <point x="60" y="503" type="line"/>
      <point x="92" y="503" type="line"/>
      <point x="105" y="541"/>
      <point x="115" y="558"/>
      <point x="135" y="574" type="curve" smooth="yes"/>
      <point x="161" y="594"/>
      <point x="184" y="599"/>
      <point x="251" y="599" type="curve" smooth="yes"/>
      <point x="513" y="599" type="line"/>
      <point x="338" y="420"/>
      <point x="214" y="198"/>
      <point x="178" y="0" type="curve"/>
      <point x="307" y="0" type="line"/>
      <point x="319" y="137"/>
      <point x="340" y="214"/>
      <point x="395" y="329" type="curve" smooth="yes"/>
      <point x="459" y="454"/>
      <point x="515" y="538"/>
      <point x="586" y="618" type="curve"/>
    </contour>
  </outline>
</glyph>
<glyph name="eight" format="1">
  <advance width="620"/>
  <unicode hex="0038"/>
  <outline>
    <contour>
      <point x="404" y="386" type="curve"/>
      <point x="457" y="400"/>
      <point x="480" y="411"/>
      <point x="505" y="431" type="curve" smooth="yes"/>
      <point x="536" y="457"/>
      <point x="555" y="495"/>
      <point x="555" y="535" type="curve" smooth="yes"/>
      <point x="555" y="628"/>
      <point x="456" y="694"/>
      <point x="317" y="694" type="curve" smooth="yes"/>
      <point x="178" y="694"/>
      <point x="80" y="617"/>
      <point x="80" y="508" type="curve" smooth="yes"/>
      <point x="80" y="470"/>
      <point x="93" y="436"/>
      <point x="118" y="408" type="curve" smooth="yes"/>
      <point x="138" y="386"/>
      <point x="162" y="372"/>
      <point x="212" y="352" type="curve"/>
      <point x="149" y="333"/>
      <point x="121" y="319"/>
      <point x="93" y="291" type="curve" smooth="yes"/>
      <point x="62" y="260"/>
      <point x="44" y="217"/>
      <point x="44" y="175" type="curve" smooth="yes"/>
      <point x="44" y="67"/>
      <point x="156" y="-13"/>
      <point x="306" y="-13" type="curve" smooth="yes"/>
      <point x="465" y="-13"/>
      <point x="583" y="79"/>
      <point x="583" y="203" type="curve" smooth="yes"/>
      <point x="583" y="247"/>
      <point x="566" y="288"/>
      <point x="535" y="316" type="curve" smooth="yes"/>
      <point x="505" y="345"/>
      <point x="476" y="360"/>
    </contour>
    <contour>
      <point x="279" y="426" type="line" smooth="yes"/>
      <point x="206" y="449"/>
      <point x="168" y="485"/>
      <point x="168" y="534" type="curve" smooth="yes"/>
      <point x="168" y="602"/>
      <point x="238" y="654"/>
      <point x="328" y="654" type="curve" smooth="yes"/>
      <point x="412" y="654"/>
      <point x="473" y="602"/>
      <point x="473" y="531" type="curve" smooth="yes"/>
      <point x="473" y="467"/>
      <point x="428" y="420"/>
      <point x="353" y="403" type="curve"/>
    </contour>
    <contour>
      <point x="376" y="298" type="line" smooth="yes"/>
      <point x="455" y="273"/>
      <point x="495" y="228"/>
      <point x="495" y="165" type="curve" smooth="yes"/>
      <point x="495" y="85"/>
      <point x="418" y="27"/>
      <point x="314" y="27" type="curve" smooth="yes"/>
      <point x="203" y="27"/>
      <point x="132" y="85"/>
      <point x="132" y="174" type="curve" smooth="yes"/>
      <point x="132" y="249"/>
      <point x="172" y="299"/>
      <point x="261" y="334" type="curve"/>
    </contour>
  </outline>
</glyph>
<glyph name="nine" format="1">
  <advance width="620"/>
  <unicode hex="0039"/>
  <outline>
    <contour>
      <point x="472" y="359" type="curve"/>
      <point x="472" y="273"/>
      <point x="459" y="182"/>
      <point x="441" y="139" type="curve" smooth="yes"/>
      <point x="412" y="70"/>
      <point x="355" y="32"/>
      <point x="282" y="32" type="curve" smooth="yes"/>
      <point x="250" y="32"/>
      <point x="215" y="41"/>
      <point x="197" y="53" type="curve" smooth="yes"/>
      <point x="183" y="62"/>
      <point x="179" y="68"/>
      <point x="178" y="84" type="curve"/>
      <point x="176" y="101"/>
      <point x="175" y="110"/>
      <point x="174" y="113" type="curve" smooth="yes"/>
      <point x="165" y="141"/>
      <point x="141" y="160"/>
      <point x="115" y="160" type="curve" smooth="yes"/>
      <point x="88" y="160"/>
      <point x="66" y="138"/>
      <point x="66" y="110" type="curve" smooth="yes"/>
      <point x="66" y="46"/>
      <point x="166" y="-13"/>
      <point x="276" y="-13" type="curve" smooth="yes"/>
      <point x="392" y="-13"/>
      <point x="487" y="43"/>
      <point x="534" y="139" type="curve" smooth="yes"/>
      <point x="561" y="194"/>
      <point x="576" y="272"/>
      <point x="576" y="357" type="curve" smooth="yes"/>
      <point x="576" y="436"/>
      <point x="563" y="505"/>
      <point x="538" y="559" type="curve" smooth="yes"/>
      <point x="499" y="641"/>
      <point x="408" y="694"/>
      <point x="304" y="694" type="curve" smooth="yes"/>
      <point x="154" y="694"/>
      <point x="37" y="593"/>
      <point x="37" y="463" type="curve" smooth="yes"/>
      <point x="37" y="337"/>
      <point x="136" y="246"/>
      <point x="274" y="246" type="curve" smooth="yes"/>
      <point x="322" y="246"/>
      <point x="369" y="258"/>
      <point x="403" y="280" type="curve" smooth="yes"/>
      <point x="431" y="298"/>
      <point x="447" y="316"/>
    </contour>
    <contour>
      <point x="307" y="649" type="curve" smooth="yes"/>
      <point x="401" y="649"/>
      <point x="460" y="583"/>
      <point x="460" y="477" type="curve" smooth="yes"/>
      <point x="460" y="365"/>
      <point x="399" y="294"/>
      <point x="301" y="294" type="curve" smooth="yes"/>
      <point x="206" y="294"/>
      <point x="145" y="364"/>
      <point x="145" y="472" type="curve" smooth="yes"/>
      <point x="145" y="579"/>
      <point x="209" y="649"/>
    </contour>
  </outline>
</glyph>
<glyph name="colon" format="1">
  <advance width="320"/>
  <unicode hex="003A"/>
  <outline>
    <contour>
      <point x="157" y="115" type="curve" smooth="yes"/>
      <point x="121" y="115"/>
      <point x="92" y="87"/>
      <point x="92" y="52" type="curve" smooth="yes"/>
      <point x="92" y="16"/>
      <point x="121" y="-13"/>
      <point x="156" y="-13" type="curve" smooth="yes"/>
      <point x="191" y="-13"/>
      <point x="220" y="16"/>
      <point x="220" y="51" type="curve" smooth="yes"/>
      <point x="220" y="86"/>
      <point x="191" y="115"/>
    </contour>
    <contour>
      <point x="157" y="494" type="curve" smooth="yes"/>
      <point x="121" y="494"/>
      <point x="92" y="466"/>
      <point x="92" y="430" type="curve" smooth="yes"/>
      <point x="92" y="395"/>
      <point x="121" y="366"/>
      <point x="156" y="366" type="curve" smooth="yes"/>
      <point x="191" y="366"/>
      <point x="220" y="395"/>
      <point x="220" y="430" type="curve" smooth="yes"/>
      <point x="220" y="465"/>
      <point x="191" y="494"/>
    </contour>
  </outline>
</glyph>
<glyph name="semicolon" format="1">
  <advance width="320"/>
  <unicode hex="003B"/>
  <outline>
    <contour>
      <point x="114" y="-112" type="line"/>
      <point x="185" y="-81"/>
      <point x="223" y="-32"/>
      <point x="223" y="31" type="curve" smooth="yes"/>
      <point x="223" y="80"/>
      <point x="193" y="117"/>
      <point x="153" y="117" type="curve" smooth="yes"/>
      <point x="117" y="117"/>
      <point x="90" y="89"/>
      <point x="90" y="51" type="curve" smooth="yes"/>
      <point x="90" y="18"/>
      <point x="111" y="-6"/>
      <point x="141" y="-6" type="curve" smooth="yes"/>
      <point x="153" y="-6"/>
      <point x="162" y="-3"/>
      <point x="178" y="9" type="curve"/>
      <point x="168" y="-38"/>
      <point x="146" y="-67"/>
      <point x="103" y="-92" type="curve"/>
    </contour>
    <contour>
      <point x="157" y="494" type="curve" smooth="yes"/>
      <point x="121" y="494"/>
      <point x="92" y="466"/>
      <point x="92" y="430" type="curve" smooth="yes"/>
      <point x="92" y="395"/>
      <point x="121" y="366"/>
      <point x="156" y="366" type="curve" smooth="yes"/>
      <point x="191" y="366"/>
      <point x="220" y="395"/>
      <point x="220" y="430" type="curve" smooth="yes"/>
      <point x="220" y="465"/>
      <point x="191" y="494"/>
    </contour>
  </outline>
</glyph>
<glyph name="less" format="1">
  <advance width="600"/>
  <unicode hex="003C"/>
  <outline>
    <contour>
      <point x="49" y="360" type="line"/>
      <point x="49" y="288" type="line"/>
      <point x="558" y="49" type="line"/>
      <point x="558" y="135" type="line"/>
      <point x="155" y="324" type="line"/>
      <point x="558" y="512" type="line"/>
      <point x="558" y="599" type="line"/>
    </contour>
  </outline>
</glyph>
<glyph name="equal" format="1">
  <advance width="600"/>
  <unicode hex="003D"/>
  <outline>
    <contour>
      <point x="555" y="489" type="line"/>
      <point x="51" y="489" type="line"/>
      <point x="51" y="411" type="line"/>
      <point x="555" y="411" type="line"/>
    </contour>
    <contour>
      <point x="555" y="295" type="line"/>
      <point x="51" y="295" type="line"/>
      <point x="51" y="217" type="line"/>
      <point x="555" y="217" type="line"/>
    </contour>
  </outline>
</glyph>
<glyph name="greater" format="1">
  <advance width="600"/>
  <unicode hex="003E"/>
  <outline>
    <contour>
      <point x="557" y="360" type="line"/>
      <point x="48" y="599" type="line"/>
      <point x="48" y="512" type="line"/>
      <point x="451" y="324" type="line"/>
      <point x="48" y="135" type="line"/>
      <point x="48" y="49" type="line"/>
      <point x="557" y="288" type="line"/>
    </contour>
  </outline>
</glyph>
<glyph name="question" format="1">
  <advance width="540"/>
  <unicode hex="003F"/>
  <outline>
    <contour>
      <point x="236" y="116" type="curve" smooth="yes"/>
      <point x="199" y="116"/>
      <point x="170" y="87"/>
      <point x="170" y="52" type="curve" smooth="yes"/>
      <point x="170" y="16"/>
      <point x="199" y="-13"/>
      <point x="235" y="-13" type="curve" smooth="yes"/>
      <point x="270" y="-13"/>
      <point x="299" y="16"/>
      <point x="299" y="52" type="curve" smooth="yes"/>
      <point x="299" y="87"/>
      <point x="270" y="116"/>
    </contour>
    <contour>
      <point x="258" y="174" type="line"/>
      <point x="257" y="264"/>
      <point x="278" y="298"/>
      <point x="346" y="324" type="curve" smooth="yes"/>
      <point x="379" y="336" type="line" smooth="yes"/>
      <point x="425" y="352"/>
      <point x="455" y="372"/>
      <point x="476" y="397" type="curve"/>
      <point x="500" y="429"/>
      <point x="514" y="469"/>
      <point x="514" y="508" type="curve" smooth="yes"/>
      <point x="514" y="567"/>
      <point x="484" y="622"/>
      <point x="435" y="651" type="curve" smooth="yes"/>
      <point x="390" y="678"/>
      <point x="331" y="694"/>
      <point x="274" y="694" type="curve" smooth="yes"/>
      <point x="208" y="694"/>
      <point x="136" y="673"/>
      <point x="96" y="642" type="curve" smooth="yes"/>
      <point x="53" y="608"/>
      <point x="27" y="564"/>
      <point x="27" y="524" type="curve" smooth="yes"/>
      <point x="27" y="482"/>
      <point x="53" y="451"/>
      <point x="89" y="451" type="curve" smooth="yes"/>
      <point x="118" y="451"/>
      <point x="143" y="474"/>
      <point x="143" y="499" type="curve" smooth="yes"/>
      <point x="143" y="509"/>
      <point x="141" y="515"/>
      <point x="131" y="536" type="curve" smooth="yes"/>
      <point x="124" y="549"/>
      <point x="122" y="557"/>
      <point x="122" y="568" type="curve" smooth="yes"/>
      <point x="122" y="616"/>
      <point x="185" y="654"/>
      <point x="264" y="654" type="curve" smooth="yes"/>
      <point x="355" y="654"/>
      <point x="406" y="604"/>
      <point x="406" y="517" type="curve" smooth="yes"/>
      <point x="406" y="462"/>
      <point x="382" y="417"/>
      <point x="337" y="386" type="curve" smooth="yes"/>
      <point x="280" y="347" type="line" smooth="yes"/>
      <point x="226" y="311"/>
      <point x="211" y="282"/>
      <point x="211" y="218" type="curve" smooth="yes"/>
      <point x="211" y="205"/>
      <point x="212" y="194"/>
      <point x="213" y="174" type="curve"/>
    </contour>
  </outline>
</glyph>
<glyph name="at" format="1">
  <advance width="820"/>
  <unicode hex="0040"/>
  <outline>
    <contour>
      <point x="528" y="546" type="line"/>
      <point x="521" y="507" type="line"/>
      <point x="494" y="536"/>
      <point x="453" y="553"/>
      <point x="408" y="553" type="curve" smooth="yes"/>
      <point x="288" y="553"/>
      <point x="184" y="438"/>
      <point x="184" y="304" type="curve" smooth="yes"/>
      <point x="184" y="218"/>
      <point x="238" y="160"/>
      <point x="318" y="160" type="curve" smooth="yes"/>
      <point x="379" y="160"/>
      <point x="427" y="189"/>
      <point x="475" y="255" type="curve"/>
      <point x="475" y="244" type="line" smooth="yes"/>
      <point x="475" y="198"/>
      <point x="507" y="160"/>
      <point x="546" y="160" type="curve" smooth="yes"/>
      <point x="594" y="160"/>
      <point x="655" y="194"/>
      <point x="696" y="243" type="curve" smooth="yes"/>
      <point x="734" y="288"/>
      <point x="755" y="345"/>
      <point x="755" y="404" type="curve" smooth="yes"/>
      <point x="755" y="567"/>
      <point x="605" y="700"/>
      <point x="420" y="700" type="curve" smooth="yes"/>
      <point x="217" y="700"/>
      <point x="55" y="540"/>
      <point x="55" y="342" type="curve" smooth="yes"/>
      <point x="55" y="145"/>
      <point x="216" y="-13"/>
      <point x="417" y="-13" type="curve" smooth="yes"/>
      <point x="517" y="-13"/>
      <point x="619" y="29"/>
      <point x="685" y="97" type="curve" smooth="yes"/>
      <point x="710" y="122"/>
      <point x="725" y="145"/>
      <point x="744" y="188" type="curve"/>
      <point x="698" y="188" type="line"/>
      <point x="679" y="155"/>
      <point x="665" y="137"/>
      <point x="643" y="116" type="curve" smooth="yes"/>
      <point x="588" y="65"/>
      <point x="499" y="32"/>
      <point x="417" y="32" type="curve" smooth="yes"/>
      <point x="243" y="32"/>
      <point x="103" y="172"/>
      <point x="103" y="346" type="curve" smooth="yes"/>
      <point x="103" y="515"/>
      <point x="246" y="655"/>
      <point x="418" y="655" type="curve" smooth="yes"/>
      <point x="581" y="655"/>
      <point x="712" y="540"/>
      <point x="712" y="398" type="curve" smooth="yes"/>
      <point x="712" y="351"/>
      <point x="696" y="304"/>
      <point x="669" y="267" type="curve" smooth="yes"/>
      <point x="642" y="232"/>
      <point x="611" y="211"/>
      <point x="585" y="211" type="curve" smooth="yes"/>
      <point x="564" y="211"/>
      <point x="548" y="228"/>
      <point x="548" y="250" type="curve" smooth="yes"/>
      <point x="548" y="257"/>
      <point x="550" y="274"/>
      <point x="553" y="292" type="curve" smooth="yes"/>
      <point x="600" y="546" type="line"/>
    </contour>
    <contour>
      <point x="515" y="474" type="line"/>
      <point x="494" y="364"/>
      <point x="480" y="318"/>
      <point x="452" y="274" type="curve" smooth="yes"/>
      <point x="422" y="229"/>
      <point x="373" y="197"/>
      <point x="332" y="197" type="curve" smooth="yes"/>
      <point x="288" y="197"/>
      <point x="259" y="232"/>
      <point x="259" y="285" type="curve" smooth="yes"/>
      <point x="259" y="334"/>
      <point x="277" y="398"/>
      <point x="302" y="437" type="curve" smooth="yes"/>
      <point x="335" y="489"/>
      <point x="378" y="516"/>
      <point x="425" y="516" type="curve" smooth="yes"/>
      <point x="459" y="516"/>
      <point x="489" y="503"/>
      <point x="511" y="478" type="curve"/>
    </contour>
  </outline>
</glyph>
<glyph name="B" format="1">
  <advance width="740"/>
  <unicode hex="0042"/>
  <outline>
    <contour>
      <point x="31" y="681" type="line"/>
      <point x="31" y="650" type="line"/>
      <point x="56" y="647" type="line" smooth="yes"/>
      <point x="108" y="640"/>
      <point x="121" y="619"/>
      <point x="121" y="537" type="curve" smooth="yes"/>
      <point x="121" y="144" type="line" smooth="yes"/>
      <point x="121" y="62"/>
      <point x="108" y="41"/>
      <point x="56" y="34" type="curve" smooth="yes"/>
      <point x="31" y="31" type="line"/>
      <point x="31" y="0" type="line"/>
      <point x="396" y="0" type="line" smooth="yes"/>
      <point x="507" y="0"/>
      <point x="576" y="16"/>
      <point x="627" y="53" type="curve" smooth="yes"/>
      <point x="673" y="86"/>
      <point x="702" y="143"/>
      <point x="702" y="201" type="curve" smooth="yes"/>
      <point x="702" y="258"/>
      <point x="674" y="308"/>
      <point x="626" y="338" type="curve" smooth="yes"/>
      <point x="596" y="357"/>
      <point x="573" y="366"/>
      <point x="519" y="379" type="curve"/>
      <point x="570" y="391"/>
      <point x="591" y="401"/>
      <point x="616" y="421" type="curve" smooth="yes"/>
      <point x="647" y="444"/>
      <point x="664" y="480"/>
      <point x="664" y="519" type="curve" smooth="yes"/>
      <point x="664" y="569"/>
      <point x="636" y="617"/>
      <point x="591" y="643" type="curve" smooth="yes"/>
      <point x="545" y="670"/>
      <point x="486" y="681"/>
      <point x="383" y="681" type="curve" smooth="yes"/>
    </contour>
    <contour>
      <point x="221" y="393" type="line"/>
      <point x="221" y="557" type="line" smooth="yes"/>
      <point x="221" y="629"/>
      <point x="241" y="642"/>
      <point x="356" y="642" type="curve" smooth="yes"/>
      <point x="494" y="642"/>
      <point x="562" y="601"/>
      <point x="562" y="516" type="curve" smooth="yes"/>
      <point x="562" y="428"/>
      <point x="497" y="393"/>
      <point x="337" y="393" type="curve" smooth="yes"/>
    </contour>
    <contour>
      <point x="221" y="350" type="line"/>
      <point x="339" y="350" type="line" smooth="yes"/>
      <point x="433" y="350"/>
      <point x="486" y="345"/>
      <point x="514" y="333" type="curve" smooth="yes"/>
      <point x="562" y="312"/>
      <point x="589" y="266"/>
      <point x="589" y="206" type="curve" smooth="yes"/>
      <point x="589" y="156"/>
      <point x="568" y="109"/>
      <point x="533" y="83" type="curve" smooth="yes"/>
      <point x="495" y="54"/>
      <point x="437" y="41"/>
      <point x="351" y="41" type="curve" smooth="yes"/>
      <point x="289" y="41"/>
      <point x="247" y="52"/>
      <point x="233" y="73" type="curve" smooth="yes"/>
      <point x="224" y="86"/>
      <point x="221" y="105"/>
      <point x="221" y="154" type="curve" smooth="yes"/>
    </contour>
  </outline>
</glyph>
<glyph name="F" format="1">
  <advance width="640"/>
  <unicode hex="0046"/>
  <outline>
    <contour>
      <point x="582" y="681" type="line"/>
      <point x="31" y="681" type="line"/>
      <point x="31" y="650" type="line"/>
      <point x="56" y="647" type="line" smooth="yes"/>
      <point x="108" y="640"/>
      <point x="121" y="619"/>
      <point x="121" y="537" type="curve" smooth="yes"/>
      <point x="121" y="144" type="line" smooth="yes"/>
      <point x="121" y="62"/>
      <point x="108" y="41"/>
      <point x="56" y="34" type="curve" smooth="yes"/>
      <point x="31" y="31" type="line"/>
      <point x="31" y="0" type="line"/>
      <point x="319" y="0" type="line"/>
      <point x="319" y="31" type="line"/>
      <point x="286" y="34" type="line" smooth="yes"/>
      <point x="235" y="39"/>
      <point x="221" y="63"/>
      <point x="221" y="144" type="curve" smooth="yes"/>
      <point x="221" y="342" type="line"/>
      <point x="287" y="342" type="line" smooth="yes"/>
      <point x="336" y="342"/>
      <point x="367" y="330"/>
      <point x="388" y="304" type="curve" smooth="yes"/>
      <point x="403" y="285"/>
      <point x="409" y="266"/>
      <point x="416" y="214" type="curve"/>
      <point x="447" y="214" type="line"/>
      <point x="447" y="510" type="line"/>
      <point x="416" y="510" type="line"/>
      <point x="411" y="465"/>
      <point x="407" y="447"/>
      <point x="397" y="429" type="curve" smooth="yes"/>
      <point x="378" y="396"/>
      <point x="350" y="385"/>
      <point x="287" y="385" type="curve" smooth="yes"/>
      <point x="221" y="385" type="line"/>
      <point x="221" y="541" type="line" smooth="yes"/>
      <point x="221" y="585"/>
      <point x="226" y="605"/>
      <point x="238" y="617" type="curve" smooth="yes"/>
      <point x="252" y="631"/>
      <point x="289" y="639"/>
      <point x="333" y="639" type="curve" smooth="yes"/>
      <point x="454" y="639"/>
      <point x="535" y="598"/>
      <point x="622" y="494" type="curve"/>
      <point x="654" y="510" type="line"/>
    </contour>
  </outline>
</glyph>
<glyph name="I" format="1">
  <advance width="340"/>
  <unicode hex="0049"/>
  <outline>
    <contour>
      <point x="216" y="537" type="line" smooth="yes"/>
      <point x="216" y="620"/>
      <point x="227" y="638"/>
      <point x="281" y="647" type="curve" smooth="yes"/>
      <point x="301" y="650" type="line"/>
      <point x="301" y="681" type="line"/>
      <point x="31" y="681" type="line"/>
      <point x="31" y="650" type="line"/>
      <point x="51" y="647" type="line" smooth="yes"/>
      <point x="105" y="638"/>
      <point x="116" y="620"/>
      <point x="116" y="537" type="curve" smooth="yes"/>
      <point x="116" y="144" type="line" smooth="yes"/>
      <point x="116" y="61"/>
      <point x="105" y="43"/>
      <point x="51" y="34" type="curve" smooth="yes"/>
      <point x="31" y="31" type="line"/>
      <point x="31" y="0" type="line"/>
      <point x="301" y="0" type="line"/>
      <point x="301" y="31" type="line"/>
      <point x="281" y="34" type="line" smooth="yes"/>
      <point x="227" y="43"/>
      <point x="216" y="61"/>
      <point x="216" y="144" type="curve" smooth="yes"/>
    </contour>
  </outline>
</glyph>
<glyph name="J" format="1">
  <advance width="600"/>
  <unicode hex="004A"/>
  <outline>
    <contour>
      <point x="477" y="537" type="line" smooth="yes"/>
      <point x="477" y="619"/>
      <point x="490" y="640"/>
      <point x="542" y="647" type="curve" smooth="yes"/>
      <point x="567" y="650" type="line"/>
      <point x="567" y="681" type="line"/>
      <point x="287" y="681" type="line"/>
      <point x="287" y="650" type="line"/>
      <point x="312" y="647" type="line" smooth="yes"/>
      <point x="364" y="640"/>
      <point x="377" y="619"/>
      <point x="377" y="537" type="curve" smooth="yes"/>
      <point x="377" y="311" type="line" smooth="yes"/>
      <point x="377" y="185"/>
      <point x="370" y="137"/>
      <point x="345" y="97" type="curve" smooth="yes"/>
      <point x="320" y="57"/>
      <point x="271" y="35"/>
      <point x="209" y="35" type="curve" smooth="yes"/>
      <point x="132" y="35"/>
      <point x="65" y="80"/>
      <point x="65" y="133" type="curve" smooth="yes"/>
      <point x="65" y="149"/>
      <point x="70" y="159"/>
      <point x="85" y="173" type="curve" smooth="yes"/>
      <point x="103" y="189"/>
      <point x="110" y="203"/>
      <point x="110" y="221" type="curve" smooth="yes"/>
      <point x="110" y="254"/>
      <point x="88" y="275"/>
      <point x="55" y="275" type="curve" smooth="yes"/>
      <point x="9" y="275"/>
      <point x="-23" y="238"/>
      <point x="-23" y="186" type="curve" smooth="yes"/>
      <point x="-23" y="129"/>
      <point x="12" y="67"/>
      <point x="66" y="31" type="curve" smooth="yes"/>
      <point x="108" y="3"/>
      <point x="167" y="-13"/>
      <point x="228" y="-13" type="curve" smooth="yes"/>
      <point x="318" y="-13"/>
      <point x="402" y="22"/>
      <point x="442" y="76" type="curve" smooth="yes"/>
      <point x="471" y="114"/>
      <point x="477" y="148"/>
      <point x="477" y="260" type="curve" smooth="yes"/>
    </contour>
  </outline>
</glyph>
<glyph name="K" format="1">
  <advance width="720"/>
  <unicode hex="004B"/>
  <outline>
    <contour>
      <point x="750" y="0" type="line"/>
      <point x="750" y="30" type="line"/>
      <point x="682" y="45"/>
      <point x="656" y="65"/>
      <point x="607" y="141" type="curve" smooth="yes"/>
      <point x="417" y="451" type="line"/>
      <point x="537" y="556" type="line" smooth="yes"/>
      <point x="598" y="608"/>
      <point x="653" y="640"/>
      <point x="696" y="648" type="curve"/>
      <point x="703" y="650" type="line"/>
      <point x="703" y="681" type="line"/>
      <point x="417" y="681" type="line"/>
      <point x="417" y="650" type="line"/>
      <point x="427" y="649" type="line" smooth="yes"/>
      <point x="470" y="645"/>
      <point x="485" y="634"/>
      <point x="485" y="608" type="curve" smooth="yes"/>
      <point x="485" y="585"/>
      <point x="477" y="574"/>
      <point x="426" y="529" type="curve" smooth="yes"/>
      <point x="403" y="509" type="line"/>
      <point x="397" y="504" type="line"/>
      <point x="221" y="345" type="line"/>
      <point x="221" y="537" type="line" smooth="yes"/>
      <point x="221" y="618"/>
      <point x="236" y="643"/>
      <point x="286" y="647" type="curve" smooth="yes"/>
      <point x="327" y="650" type="line"/>
      <point x="327" y="681" type="line"/>
      <point x="31" y="681" type="line"/>
      <point x="31" y="650" type="line"/>
      <point x="56" y="647" type="line" smooth="yes"/>
      <point x="108" y="640"/>
      <point x="121" y="619"/>
      <point x="121" y="537" type="curve" smooth="yes"/>
      <point x="121" y="144" type="line" smooth="yes"/>
      <point x="121" y="62"/>
      <point x="108" y="41"/>
      <point x="56" y="34" type="curve" smooth="yes"/>
      <point x="31" y="31" type="line"/>
      <point x="31" y="0" type="line"/>
      <point x="327" y="0" type="line"/>
      <point x="327" y="31" type="line"/>
      <point x="286" y="34" type="line" smooth="yes"/>
      <point x="236" y="38"/>
      <point x="221" y="63"/>
      <point x="221" y="144" type="curve" smooth="yes"/>
      <point x="221" y="283" type="line"/>
      <point x="337" y="386" type="line"/>
      <point x="498" y="129" type="line" smooth="yes"/>
      <point x="515" y="102"/>
      <point x="521" y="87"/>
      <point x="521" y="73" type="curve" smooth="yes"/>
      <point x="521" y="49"/>
      <point x="504" y="37"/>
      <point x="460" y="33" type="curve"/>
      <point x="457" y="33"/>
      <point x="450" y="32"/>
      <point x="442" y="31" type="curve"/>
      <point x="442" y="0" type="line"/>
    </contour>
  </outline>
</glyph>
<glyph name="L" format="1">
  <advance width="600"/>
  <unicode hex="004C"/>
  <outline>
    <contour>
      <point x="629" y="214" type="line"/>
      <point x="601" y="227" type="line"/>
      <point x="555" y="162"/>
      <point x="530" y="134"/>
      <point x="491" y="105" type="curve" smooth="yes"/>
      <point x="434" y="62"/>
      <point x="368" y="38"/>
      <point x="307" y="38" type="curve" smooth="yes"/>
      <point x="274" y="38"/>
      <point x="245" y="48"/>
      <point x="233" y="63" type="curve" smooth="yes"/>
      <point x="225" y="73"/>
      <point x="221" y="93"/>
      <point x="221" y="123" type="curve" smooth="yes"/>
      <point x="221" y="537" type="line" smooth="yes"/>
      <point x="221" y="618"/>
      <point x="235" y="642"/>
      <point x="286" y="647" type="curve" smooth="yes"/>
      <point x="318" y="650" type="line"/>
      <point x="318" y="681" type="line"/>
      <point x="31" y="681" type="line"/>
      <point x="31" y="650" type="line"/>
      <point x="56" y="647" type="line" smooth="yes"/>
      <point x="108" y="640"/>
      <point x="121" y="619"/>
      <point x="121" y="537" type="curve" smooth="yes"/>
      <point x="121" y="144" type="line" smooth="yes"/>
      <point x="121" y="62"/>
      <point x="108" y="41"/>
      <point x="56" y="34" type="curve" smooth="yes"/>
      <point x="31" y="31" type="line"/>
      <point x="31" y="0" type="line"/>
      <point x="549" y="0" type="line"/>
    </contour>
  </outline>
</glyph>
<glyph name="M" format="1">
  <advance width="920"/>
  <unicode hex="004D"/>
  <outline>
    <contour>
      <point x="453" y="0" type="line"/>
      <point x="704" y="610" type="line"/>
      <point x="704" y="144" type="line" smooth="yes"/>
      <point x="704" y="62"/>
      <point x="691" y="41"/>
      <point x="639" y="34" type="curve" smooth="yes"/>
      <point x="614" y="31" type="line"/>
      <point x="614" y="0" type="line"/>
      <point x="894" y="0" type="line"/>
      <point x="894" y="31" type="line"/>
      <point x="869" y="34" type="line" smooth="yes"/>
      <point x="817" y="41"/>
      <point x="804" y="62"/>
      <point x="804" y="144" type="curve" smooth="yes"/>
      <point x="804" y="537" type="line" smooth="yes"/>
      <point x="804" y="619"/>
      <point x="817" y="640"/>
      <point x="869" y="647" type="curve" smooth="yes"/>
      <point x="894" y="650" type="line"/>
      <point x="894" y="681" type="line"/>
      <point x="666" y="681" type="line"/>
      <point x="457" y="166" type="line"/>
      <point x="265" y="681" type="line"/>
      <point x="32" y="681" type="line"/>
      <point x="32" y="650" type="line"/>
      <point x="57" y="647" type="line" smooth="yes"/>
      <point x="109" y="640"/>
      <point x="122" y="619"/>
      <point x="122" y="537" type="curve" smooth="yes"/>
      <point x="122" y="144" type="line" smooth="yes"/>
      <point x="122" y="63"/>
      <point x="108" y="39"/>
      <point x="57" y="34" type="curve" smooth="yes"/>
      <point x="26" y="31" type="line"/>
      <point x="26" y="0" type="line"/>
      <point x="279" y="0" type="line"/>
      <point x="279" y="31" type="line"/>
      <point x="244" y="34" type="line" smooth="yes"/>
      <point x="193" y="39"/>
      <point x="179" y="63"/>
      <point x="179" y="144" type="curve" smooth="yes"/>
      <point x="179" y="622" type="line"/>
      <point x="408" y="0" type="line"/>
    </contour>
  </outline>
</glyph>
<glyph name="N" format="1">
  <advance width="740"/>
  <unicode hex="004E"/>
  <outline>
    <contour>
      <point x="173" y="606" type="line"/>
      <point x="544" y="0" type="line"/>
      <point x="632" y="0" type="line"/>
      <point x="632" y="537" type="line" smooth="yes"/>
      <point x="632" y="619"/>
      <point x="645" y="640"/>
      <point x="697" y="647" type="curve" smooth="yes"/>
      <point x="722" y="650" type="line"/>
      <point x="722" y="681" type="line"/>
      <point x="475" y="681" type="line"/>
      <point x="475" y="650" type="line"/>
      <point x="510" y="647" type="line" smooth="yes"/>
      <point x="561" y="642"/>
      <point x="575" y="618"/>
      <point x="575" y="537" type="curve" smooth="yes"/>
      <point x="575" y="142" type="line"/>
      <point x="249" y="681" type="line"/>
      <point x="26" y="681" type="line"/>
      <point x="26" y="650" type="line"/>
      <point x="51" y="647" type="line" smooth="yes"/>
      <point x="103" y="640"/>
      <point x="116" y="619"/>
      <point x="116" y="537" type="curve" smooth="yes"/>
      <point x="116" y="144" type="line" smooth="yes"/>
      <point x="116" y="62"/>
      <point x="103" y="41"/>
      <point x="51" y="34" type="curve" smooth="yes"/>
      <point x="26" y="31" type="line"/>
      <point x="26" y="0" type="line"/>
      <point x="273" y="0" type="line"/>
      <point x="273" y="31" type="line"/>
      <point x="238" y="34" type="line" smooth="yes"/>
      <point x="187" y="39"/>
      <point x="173" y="63"/>
      <point x="173" y="144" type="curve" smooth="yes"/>
    </contour>
  </outline>
</glyph>
<glyph name="P" format="1">
  <advance width="620"/>
  <unicode hex="0050"/>
  <outline>
    <contour>
      <point x="221" y="291" type="line"/>
      <point x="362" y="291" type="line" smooth="yes"/>
      <point x="428" y="291"/>
      <point x="488" y="305"/>
      <point x="527" y="329" type="curve" smooth="yes"/>
      <point x="579" y="362"/>
      <point x="613" y="425"/>
      <point x="613" y="490" type="curve" smooth="yes"/>
      <point x="613" y="608"/>
      <point x="517" y="681"/>
      <point x="363" y="681" type="curve" smooth="yes"/>
      <point x="31" y="681" type="line"/>
      <point x="31" y="650" type="line"/>
      <point x="56" y="647" type="line" smooth="yes"/>
      <point x="108" y="640"/>
      <point x="121" y="619"/>
      <point x="121" y="537" type="curve" smooth="yes"/>
      <point x="121" y="144" type="line" smooth="yes"/>
      <point x="121" y="62"/>
      <point x="108" y="41"/>
      <point x="56" y="34" type="curve" smooth="yes"/>
      <point x="31" y="31" type="line"/>
      <point x="31" y="0" type="line"/>
      <point x="323" y="0" type="line"/>
      <point x="323" y="31" type="line"/>
      <point x="286" y="34" type="line" smooth="yes"/>
      <point x="236" y="38"/>
      <point x="221" y="63"/>
      <point x="221" y="144" type="curve" smooth="yes"/>
    </contour>
    <contour>
      <point x="221" y="334" type="line"/>
      <point x="221" y="575" type="line" smooth="yes"/>
      <point x="221" y="629"/>
      <point x="239" y="639"/>
      <point x="335" y="639" type="curve" smooth="yes"/>
      <point x="403" y="639"/>
      <point x="444" y="626"/>
      <point x="473" y="594" type="curve" smooth="yes"/>
      <point x="498" y="567"/>
      <point x="511" y="530"/>
      <point x="511" y="487" type="curve" smooth="yes"/>
      <point x="511" y="445"/>
      <point x="498" y="409"/>
      <point x="473" y="381" type="curve" smooth="yes"/>
      <point x="443" y="347"/>
      <point x="406" y="334"/>
      <point x="346" y="334" type="curve" smooth="yes"/>
    </contour>
  </outline>
</glyph>
<glyph name="Q" format="1">
  <advance width="820"/>
  <unicode hex="0051"/>
  <outline>
    <contour>
      <point x="675" y="91" type="curve"/>
      <point x="741" y="164"/>
      <point x="769" y="237"/>
      <point x="769" y="337" type="curve" smooth="yes"/>
      <point x="769" y="544"/>
      <point x="619" y="694"/>
      <point x="411" y="694" type="curve" smooth="yes"/>
      <point x="204" y="694"/>
      <point x="44" y="537"/>
      <point x="44" y="335" type="curve" smooth="yes"/>
      <point x="44" y="141"/>
      <point x="204" y="-13"/>
      <point x="407" y="-13" type="curve" smooth="yes"/>
      <point x="482" y="-13"/>
      <point x="553" y="6"/>
      <point x="614" y="42" type="curve"/>
      <point x="625" y="21"/>
      <point x="629" y="10"/>
      <point x="629" y="-7" type="curve" smooth="yes"/>
      <point x="629" y="-86"/>
      <point x="531" y="-145"/>
      <point x="399" y="-145" type="curve" smooth="yes"/>
      <point x="348" y="-145"/>
      <point x="290" y="-135"/>
      <point x="260" y="-120" type="curve"/>
      <point x="228" y="-106"/>
      <point x="222" y="-97"/>
      <point x="221" y="-70" type="curve" smooth="yes"/>
      <point x="221" y="-34"/>
      <point x="197" y="-11"/>
      <point x="160" y="-11" type="curve" smooth="yes"/>
      <point x="126" y="-11"/>
      <point x="103" y="-30"/>
      <point x="103" y="-57" type="curve" smooth="yes"/>
      <point x="103" y="-128"/>
      <point x="241" y="-190"/>
      <point x="400" y="-190" type="curve" smooth="yes"/>
      <point x="584" y="-190"/>
      <point x="717" y="-113"/>
      <point x="717" y="-7" type="curve" smooth="yes"/>
      <point x="717" y="25"/>
      <point x="706" y="52"/>
    </contour>
    <contour>
      <point x="612" y="139" type="curve"/>
      <point x="545" y="163"/>
      <point x="522" y="168"/>
      <point x="476" y="168" type="curve" smooth="yes"/>
      <point x="391" y="168"/>
      <point x="333" y="134"/>
      <point x="333" y="86" type="curve" smooth="yes"/>
      <point x="333" y="65"/>
      <point x="342" y="51"/>
      <point x="369" y="32" type="curve"/>
      <point x="284" y="52"/>
      <point x="246" y="79"/>
      <point x="207" y="145" type="curve" smooth="yes"/>
      <point x="178" y="195"/>
      <point x="162" y="259"/>
      <point x="162" y="330" type="curve" smooth="yes"/>
      <point x="162" y="517"/>
      <point x="263" y="646"/>
      <point x="411" y="646" type="curve" smooth="yes"/>
      <point x="555" y="646"/>
      <point x="651" y="524"/>
      <point x="651" y="341" type="curve" smooth="yes"/>
      <point x="651" y="265"/>
      <point x="639" y="203"/>
    </contour>
    <contour>
      <point x="571" y="84" type="line"/>
      <point x="538" y="52"/>
      <point x="489" y="32"/>
      <point x="444" y="32" type="curve" smooth="yes"/>
      <point x="407" y="32"/>
      <point x="381" y="45"/>
      <point x="381" y="65" type="curve" smooth="yes"/>
      <point x="381" y="91"/>
      <point x="418" y="110"/>
      <point x="468" y="110" type="curve" smooth="yes"/>
      <point x="501" y="110"/>
      <point x="535" y="102"/>
      <point x="563" y="88" type="curve" smooth="yes"/>
    </contour>
  </outline>
</glyph>
<glyph name="T" format="1">
  <advance width="620"/>
  <unicode hex="0054"/>
  <outline>
    <contour>
      <point x="600" y="681" type="line"/>
      <point x="20" y="681" type="line"/>
      <point x="-37" y="505" type="line"/>
      <point x="-4" y="493" type="line"/>
      <point x="55" y="597"/>
      <point x="124" y="643"/>
      <point x="216" y="643" type="curve" smooth="yes"/>
      <point x="249" y="643"/>
      <point x="260" y="633"/>
      <point x="260" y="603" type="curve" smooth="yes"/>
      <point x="260" y="144" type="line" smooth="yes"/>
      <point x="260" y="63"/>
      <point x="245" y="38"/>
      <point x="195" y="34" type="curve" smooth="yes"/>
      <point x="156" y="31" type="line"/>
      <point x="156" y="0" type="line"/>
      <point x="464" y="0" type="line"/>
      <point x="464" y="31" type="line"/>
      <point x="425" y="34" type="line" smooth="yes"/>
      <point x="375" y="38"/>
      <point x="360" y="63"/>
      <point x="360" y="144" type="curve" smooth="yes"/>
      <point x="360" y="599" type="line" smooth="yes"/>
      <point x="360" y="634"/>
      <point x="368" y="643"/>
      <point x="401" y="643" type="curve" smooth="yes"/>
      <point x="489" y="643"/>
      <point x="565" y="591"/>
      <point x="621" y="493" type="curve"/>
      <point x="656" y="505" type="line"/>
    </contour>
  </outline>
</glyph>
<glyph name="V" format="1">
  <advance width="700"/>
  <unicode hex="0056"/>
  <outline>
    <contour>
      <point x="368" y="111" type="line"/>
      <point x="192" y="565" type="line" smooth="yes"/>
      <point x="187" y="578"/>
      <point x="183" y="596"/>
      <point x="183" y="606" type="curve" smooth="yes"/>
      <point x="183" y="622"/>
      <point x="194" y="637"/>
      <point x="210" y="642" type="curve"/>
      <point x="223" y="647"/>
      <point x="233" y="649"/>
      <point x="269" y="650" type="curve"/>
      <point x="269" y="681" type="line"/>
      <point x="-30" y="681" type="line"/>
      <point x="-30" y="650" type="line"/>
      <point x="-25" y="649"/>
      <point x="-21" y="648"/>
      <point x="-20" y="648" type="curve"/>
      <point x="38" y="641"/>
      <point x="55" y="625"/>
      <point x="88" y="546" type="curve" smooth="yes"/>
      <point x="313" y="0" type="line"/>
      <point x="373" y="0" type="line"/>
      <point x="592" y="531" type="line" smooth="yes"/>
      <point x="634" y="629"/>
      <point x="649" y="642"/>
      <point x="725" y="650" type="curve"/>
      <point x="725" y="681" type="line"/>
      <point x="458" y="681" type="line"/>
      <point x="458" y="650" type="line"/>
      <point x="522" y="647"/>
      <point x="550" y="628"/>
      <point x="550" y="589" type="curve" smooth="yes"/>
      <point x="550" y="578"/>
      <point x="546" y="562"/>
      <point x="540" y="547" type="curve" smooth="yes"/>
    </contour>
  </outline>
</glyph>
<glyph name="W" format="1">
  <advance width="960"/>
  <unicode hex="0057"/>
  <outline>
    <contour>
      <point x="676" y="0" type="line"/>
      <point x="870" y="540" type="line" smooth="yes"/>
      <point x="902" y="628"/>
      <point x="920" y="646"/>
      <point x="984" y="650" type="curve"/>
      <point x="984" y="681" type="line"/>
      <point x="732" y="681" type="line"/>
      <point x="732" y="650" type="line"/>
      <point x="769" y="645"/>
      <point x="773" y="644"/>
      <point x="782" y="640" type="curve" smooth="yes"/>
      <point x="802" y="630"/>
      <point x="815" y="610"/>
      <point x="815" y="589" type="curve" smooth="yes"/>
      <point x="815" y="579"/>
      <point x="812" y="562"/>
      <point x="809" y="552" type="curve" smooth="yes"/>
      <point x="675" y="136" type="line"/>
      <point x="529" y="581" type="line"/>
      <point x="526" y="588"/>
      <point x="525" y="595"/>
      <point x="525" y="604" type="curve" smooth="yes"/>
      <point x="525" y="624"/>
      <point x="536" y="638"/>
      <point x="556" y="643" type="curve" smooth="yes"/>
      <point x="567" y="646"/>
      <point x="571" y="647"/>
      <point x="598" y="650" type="curve"/>
      <point x="598" y="681" type="line"/>
      <point x="324" y="681" type="line"/>
      <point x="324" y="650" type="line"/>
      <point x="390" y="635"/>
      <point x="415" y="607"/>
      <point x="441" y="515" type="curve"/>
      <point x="322" y="134" type="line"/>
      <point x="176" y="574" type="line" smooth="yes"/>
      <point x="172" y="585"/>
      <point x="170" y="596"/>
      <point x="170" y="606" type="curve" smooth="yes"/>
      <point x="170" y="635"/>
      <point x="187" y="646"/>
      <point x="242" y="650" type="curve"/>
      <point x="242" y="681" type="line"/>
      <point x="-30" y="681" type="line"/>
      <point x="-30" y="650" type="line"/>
      <point x="39" y="633"/>
      <point x="46" y="626"/>
      <point x="77" y="540" type="curve" smooth="yes"/>
      <point x="265" y="0" type="line"/>
      <point x="324" y="0" type="line"/>
      <point x="470" y="437" type="line"/>
      <point x="617" y="0" type="line"/>
    </contour>
  </outline>
</glyph>
<glyph name="Y" format="1">
  <advance width="640"/>
  <unicode hex="0059"/>
  <outline>
    <contour>
      <point x="355" y="286" type="line"/>
      <point x="520" y="539" type="line" smooth="yes"/>
      <point x="572" y="619"/>
      <point x="596" y="636"/>
      <point x="666" y="650" type="curve"/>
      <point x="666" y="681" type="line"/>
      <point x="417" y="681" type="line"/>
      <point x="417" y="650" type="line"/>
      <point x="471" y="641"/>
      <point x="490" y="630"/>
      <point x="490" y="606" type="curve" smooth="yes"/>
      <point x="490" y="594"/>
      <point x="484" y="578"/>
      <point x="474" y="563" type="curve" smooth="yes"/>
      <point x="332" y="345" type="line"/>
      <point x="191" y="573" type="line" smooth="yes"/>
      <point x="180" y="591"/>
      <point x="176" y="600"/>
      <point x="176" y="609" type="curve" smooth="yes"/>
      <point x="176" y="632"/>
      <point x="194" y="642"/>
      <point x="255" y="650" type="curve"/>
      <point x="255" y="681" type="line"/>
      <point x="-30" y="681" type="line"/>
      <point x="-30" y="650" type="line"/>
      <point x="26" y="637"/>
      <point x="44" y="622"/>
      <point x="88" y="550" type="curve" smooth="yes"/>
      <point x="255" y="284" type="line"/>
      <point x="255" y="144" type="line" smooth="yes"/>
      <point x="255" y="63"/>
      <point x="240" y="38"/>
      <point x="190" y="34" type="curve" smooth="yes"/>
      <point x="149" y="31" type="line"/>
      <point x="149" y="0" type="line"/>
      <point x="461" y="0" type="line"/>
      <point x="461" y="31" type="line"/>
      <point x="420" y="34" type="line" smooth="yes"/>
      <point x="370" y="38"/>
      <point x="355" y="63"/>
      <point x="355" y="144" type="curve" smooth="yes"/>
    </contour>
  </outline>
</glyph>
<glyph name="bracketleft" format="1">
  <advance width="300"/>
  <unicode hex="005B"/>
  <outline>
    <contour>
      <point x="92" y="-141" type="line"/>
      <point x="258" y="-141" type="line"/>
      <point x="258" y="-99" type="line"/>
      <point x="241" y="-99" type="line" smooth="yes"/>
      <point x="190" y="-99"/>
      <point x="182" y="-89"/>
      <point x="182" y="-26" type="curve" smooth="yes"/>
      <point x="182" y="615" type="line" smooth="yes"/>
      <point x="182" y="668"/>
      <point x="189" y="675"/>
      <point x="242" y="675" type="curve" smooth="yes"/>
      <point x="258" y="675" type="line"/>
      <point x="258" y="717" type="line"/>
      <point x="92" y="717" type="line"/>
    </contour>
  </outline>
</glyph>
<glyph name="backslash" format="1">
  <advance width="600"/>
  <unicode hex="005C"/>
  <outline>
    <contour>
      <point x="160" y="717" type="line"/>
      <point x="74" y="717" type="line"/>
      <point x="446" y="0" type="line"/>
      <point x="532" y="0" type="line"/>
    </contour>
  </outline>
</glyph>
<glyph name="bracketright" format="1">
  <advance width="300"/>
  <unicode hex="005D"/>
  <outline>
    <contour>
      <point x="207" y="717" type="line"/>
      <point x="41" y="717" type="line"/>
      <point x="41" y="675" type="line"/>
      <point x="58" y="675" type="line" smooth="yes"/>
      <point x="109" y="675"/>
      <point x="117" y="666"/>
      <point x="117" y="602" type="curve" smooth="yes"/>
      <point x="117" y="-39" type="line" smooth="yes"/>
      <point x="117" y="-92"/>
      <point x="110" y="-99"/>
      <point x="57" y="-99" type="curve" smooth="yes"/>
      <point x="41" y="-99" type="line"/>
      <point x="41" y="-141" type="line"/>
      <point x="207" y="-141" type="line"/>
    </contour>
  </outline>
</glyph>
<glyph name="asciicircum" format="1">
  <advance width="600"/>
  <unicode hex="005E"/>
  <outline>
    <contour>
      <point x="554" y="318" type="line"/>
      <point x="345" y="722" type="line"/>
      <point x="261" y="722" type="line"/>
      <point x="52" y="318" type="line"/>
      <point x="138" y="318" type="line"/>
      <point x="303" y="629" type="line"/>
      <point x="468" y="318" type="line"/>
    </contour>
  </outline>
</glyph>
<glyph name="grave" format="1">
  <advance width="340"/>
  <unicode hex="0060"/>
  <outline>
    <contour>
      <point x="269" y="564" type="line"/>
      <point x="274" y="578" type="line"/>
      <point x="179" y="646" type="line" smooth="yes"/>
      <point x="150" y="668"/>
      <point x="122" y="680"/>
      <point x="103" y="680" type="curve" smooth="yes"/>
      <point x="83" y="680"/>
      <point x="68" y="664"/>
      <point x="68" y="643" type="curve" smooth="yes"/>
      <point x="68" y="617"/>
      <point x="87" y="602"/>
      <point x="130" y="593" type="curve" smooth="yes"/>
    </contour>
  </outline>
</glyph>
<glyph name="b" format="1">
  <advance width="620"/>
  <unicode hex="0062"/>
  <outline>
    <contour>
      <point x="180" y="717" type="line"/>
      <point x="140" y="717" type="line"/>
      <point x="89" y="697"/>
      <point x="66" y="691"/>
      <point x="-2" y="683" type="curve"/>
      <point x="-2" y="652" type="line"/>
      <point x="20" y="650" type="line" smooth="yes"/>
      <point x="74" y="645"/>
      <point x="85" y="627"/>
      <point x="85" y="538" type="curve" smooth="yes"/>
      <point x="85" y="0" type="line"/>
      <point x="141" y="0" type="line"/>
      <point x="165" y="58" type="line"/>
      <point x="231" y="8"/>
      <point x="276" y="-9"/>
      <point x="340" y="-9" type="curve" smooth="yes"/>
      <point x="482" y="-9"/>
      <point x="582" y="97"/>
      <point x="582" y="248" type="curve" smooth="yes"/>
      <point x="582" y="391"/>
      <point x="487" y="494"/>
      <point x="354" y="494" type="curve" smooth="yes"/>
      <point x="285" y="494"/>
      <point x="236" y="474"/>
      <point x="180" y="422" type="curve"/>
    </contour>
    <contour>
      <point x="180" y="368" type="line"/>
      <point x="231" y="425"/>
      <point x="270" y="446"/>
      <point x="328" y="446" type="curve" smooth="yes"/>
      <point x="422" y="446"/>
      <point x="480" y="369"/>
      <point x="480" y="245" type="curve" smooth="yes"/>
      <point x="480" y="119"/>
      <point x="416" y="39"/>
      <point x="317" y="39" type="curve" smooth="yes"/>
      <point x="263" y="39"/>
      <point x="218" y="58"/>
      <point x="180" y="95" type="curve"/>
    </contour>
  </outline>
</glyph>
<glyph name="c" format="1">
  <advance width="520"/>
  <unicode hex="0063"/>
  <outline>
    <contour>
      <point x="469" y="126" type="line"/>
      <point x="413" y="56"/>
      <point x="372" y="31"/>
      <point x="311" y="31" type="curve" smooth="yes"/>
      <point x="208" y="31"/>
      <point x="139" y="114"/>
      <point x="139" y="238" type="curve" smooth="yes"/>
      <point x="139" y="294"/>
      <point x="149" y="343"/>
      <point x="168" y="382" type="curve" smooth="yes"/>
      <point x="191" y="430"/>
      <point x="230" y="454"/>
      <point x="285" y="454" type="curve" smooth="yes"/>
      <point x="337" y="454"/>
      <point x="384" y="423"/>
      <point x="384" y="388" type="curve"/>
      <point x="383" y="353" type="line"/>
      <point x="383" y="324"/>
      <point x="405" y="302"/>
      <point x="434" y="302" type="curve" smooth="yes"/>
      <point x="463" y="302"/>
      <point x="485" y="326"/>
      <point x="485" y="357" type="curve" smooth="yes"/>
      <point x="485" y="390"/>
      <point x="464" y="424"/>
      <point x="428" y="451" type="curve" smooth="yes"/>
      <point x="388" y="480"/>
      <point x="341" y="494"/>
      <point x="281" y="494" type="curve" smooth="yes"/>
      <point x="209" y="494"/>
      <point x="150" y="472"/>
      <point x="108" y="428" type="curve" smooth="yes"/>
      <point x="63" y="382"/>
      <point x="37" y="313"/>
      <point x="37" y="242" type="curve" smooth="yes"/>
      <point x="37" y="93"/>
      <point x="136" y="-9"/>
      <point x="283" y="-9" type="curve" smooth="yes"/>
      <point x="379" y="-9"/>
      <point x="446" y="27"/>
      <point x="498" y="108" type="curve"/>
    </contour>
  </outline>
</glyph>
<glyph name="e" format="1">
  <advance width="520"/>
  <unicode hex="0065"/>
  <outline>
    <contour>
      <point x="458" y="132" type="line"/>
      <point x="422" y="66"/>
      <point x="376" y="36"/>
      <point x="314" y="36" type="curve" smooth="yes"/>
      <point x="243" y="36"/>
      <point x="191" y="72"/>
      <point x="164" y="139" type="curve" smooth="yes"/>
      <point x="149" y="174"/>
      <point x="144" y="218"/>
      <point x="144" y="289" type="curve"/>
      <point x="491" y="289" type="line"/>
      <point x="490" y="347"/>
      <point x="477" y="383"/>
      <point x="444" y="421" type="curve" smooth="yes"/>
      <point x="404" y="468"/>
      <point x="343" y="494"/>
      <point x="273" y="494" type="curve" smooth="yes"/>
      <point x="136" y="494"/>
      <point x="37" y="391"/>
      <point x="37" y="247" type="curve" smooth="yes"/>
      <point x="37" y="180"/>
      <point x="62" y="113"/>
      <point x="103" y="67" type="curve" smooth="yes"/>
      <point x="148" y="16"/>
      <point x="209" y="-9"/>
      <point x="284" y="-9" type="curve" smooth="yes"/>
      <point x="376" y="-9"/>
      <point x="440" y="29"/>
      <point x="491" y="116" type="curve"/>
    </contour>
    <contour>
      <point x="147" y="329" type="line"/>
      <point x="154" y="371"/>
      <point x="160" y="389"/>
      <point x="176" y="410" type="curve" smooth="yes"/>
      <point x="197" y="439"/>
      <point x="229" y="454"/>
      <point x="269" y="454" type="curve" smooth="yes"/>
      <point x="322" y="454"/>
      <point x="360" y="429"/>
      <point x="379" y="380" type="curve" smooth="yes"/>
      <point x="383" y="369"/>
      <point x="388" y="343"/>
      <point x="387" y="332" type="curve"/>
      <point x="387" y="329" type="line"/>
    </contour>
  </outline>
</glyph>
<glyph name="g" format="1">
  <advance width="540"/>
  <unicode hex="0067"/>
  <outline>
    <contour>
      <point x="196" y="70" type="line" smooth="yes"/>
      <point x="151" y="76"/>
      <point x="131" y="88"/>
      <point x="131" y="111" type="curve" smooth="yes"/>
      <point x="131" y="129"/>
      <point x="148" y="149"/>
      <point x="177" y="164" type="curve"/>
      <point x="217" y="151"/>
      <point x="237" y="148"/>
      <point x="271" y="148" type="curve" smooth="yes"/>
      <point x="343" y="148"/>
      <point x="397" y="167"/>
      <point x="434" y="203" type="curve" smooth="yes"/>
      <point x="462" y="232"/>
      <point x="481" y="277"/>
      <point x="481" y="316" type="curve" smooth="yes"/>
      <point x="481" y="371"/>
      <point x="450" y="423"/>
      <point x="398" y="458" type="curve"/>
      <point x="418" y="488"/>
      <point x="434" y="501"/>
      <point x="451" y="501" type="curve" smooth="yes"/>
      <point x="458" y="501"/>
      <point x="461" y="500"/>
      <point x="474" y="492" type="curve" smooth="yes"/>
      <point x="485" y="485"/>
      <point x="494" y="482"/>
      <point x="504" y="482" type="curve" smooth="yes"/>
      <point x="526" y="482"/>
      <point x="542" y="498"/>
      <point x="542" y="520" type="curve" smooth="yes"/>
      <point x="542" y="545"/>
      <point x="520" y="563"/>
      <point x="488" y="563" type="curve" smooth="yes"/>
      <point x="458" y="563"/>
      <point x="424" y="550"/>
      <point x="404" y="529" type="curve" smooth="yes"/>
      <point x="392" y="517"/>
      <point x="384" y="507"/>
      <point x="366" y="474" type="curve"/>
      <point x="326" y="489"/>
      <point x="303" y="494"/>
      <point x="272" y="494" type="curve" smooth="yes"/>
      <point x="158" y="494"/>
      <point x="66" y="415"/>
      <point x="66" y="316" type="curve" smooth="yes"/>
      <point x="66" y="258"/>
      <point x="93" y="211"/>
      <point x="147" y="174" type="curve"/>
      <point x="80" y="152"/>
      <point x="49" y="121"/>
      <point x="49" y="74" type="curve" smooth="yes"/>
      <point x="49" y="34"/>
      <point x="71" y="8"/>
      <point x="122" y="-10" type="curve"/>
      <point x="48" y="-38"/>
      <point x="17" y="-70"/>
      <point x="17" y="-119" type="curve" smooth="yes"/>
      <point x="17" y="-154"/>
      <point x="45" y="-189"/>
      <point x="87" y="-207" type="curve" smooth="yes"/>
      <point x="137" y="-229"/>
      <point x="203" y="-241"/>
      <point x="271" y="-241" type="curve" smooth="yes"/>
      <point x="433" y="-241"/>
      <point x="538" y="-177"/>
      <point x="538" y="-79" type="curve" smooth="yes"/>
      <point x="538" y="-52"/>
      <point x="529" y="-26"/>
      <point x="514" y="-7" type="curve" smooth="yes"/>
      <point x="494" y="20"/>
      <point x="457" y="34"/>
      <point x="387" y="44" type="curve" smooth="yes"/>
    </contour>
    <contour>
      <point x="277" y="462" type="curve" smooth="yes"/>
      <point x="346" y="462"/>
      <point x="379" y="416"/>
      <point x="379" y="321" type="curve" smooth="yes"/>
      <point x="379" y="276"/>
      <point x="371" y="238"/>
      <point x="356" y="217" type="curve" smooth="yes"/>
      <point x="340" y="195"/>
      <point x="308" y="180"/>
      <point x="274" y="180" type="curve" smooth="yes"/>
      <point x="203" y="180"/>
      <point x="168" y="226"/>
      <point x="168" y="322" type="curve" smooth="yes"/>
      <point x="168" y="410"/>
      <point x="208" y="462"/>
    </contour>
    <contour>
      <point x="365" y="-44" type="line" smooth="yes"/>
      <point x="439" y="-53"/>
      <point x="468" y="-72"/>
      <point x="468" y="-111" type="curve" smooth="yes"/>
      <point x="468" y="-134"/>
      <point x="454" y="-155"/>
      <point x="427" y="-172" type="curve" smooth="yes"/>
      <point x="397" y="-192"/>
      <point x="336" y="-204"/>
      <point x="271" y="-204" type="curve" smooth="yes"/>
      <point x="156" y="-204"/>
      <point x="77" y="-165"/>
      <point x="77" y="-109" type="curve" smooth="yes"/>
      <point x="77" y="-71"/>
      <point x="106" y="-39"/>
      <point x="160" y="-19" type="curve"/>
    </contour>
  </outline>
</glyph>
<glyph name="h" format="1">
  <advance width="660"/>
  <unicode hex="0068"/>
  <outline>
    <contour>
      <point x="202" y="717" type="line"/>
      <point x="162" y="717" type="line"/>
      <point x="111" y="697"/>
      <point x="88" y="691"/>
      <point x="20" y="683" type="curve"/>
      <point x="20" y="652" type="line"/>
      <point x="42" y="650" type="line" smooth="yes"/>
      <point x="96" y="645"/>
      <point x="107" y="627"/>
      <point x="107" y="538" type="curve" smooth="yes"/>
      <point x="107" y="115" type="line" smooth="yes"/>
      <point x="107" y="60"/>
      <point x="89" y="37"/>
      <point x="45" y="32" type="curve" smooth="yes"/>
      <point x="20" y="30" type="line"/>
      <point x="20" y="0" type="line"/>
      <point x="289" y="0" type="line"/>
      <point x="289" y="30" type="line"/>
      <point x="264" y="32" type="line" smooth="yes"/>
      <point x="220" y="37"/>
      <point x="202" y="60"/>
      <point x="202" y="115" type="curve" smooth="yes"/>
      <point x="202" y="364" type="line"/>
      <point x="261" y="420"/>
      <point x="317" y="446"/>
      <point x="375" y="446" type="curve" smooth="yes"/>
      <point x="432" y="446"/>
      <point x="461" y="412"/>
      <point x="461" y="345" type="curve" smooth="yes"/>
      <point x="461" y="115" type="line" smooth="yes"/>
      <point x="461" y="60"/>
      <point x="443" y="37"/>
      <point x="399" y="32" type="curve" smooth="yes"/>
      <point x="374" y="30" type="line"/>
      <point x="374" y="0" type="line"/>
      <point x="643" y="0" type="line"/>
      <point x="643" y="30" type="line"/>
      <point x="618" y="32" type="line" smooth="yes"/>
      <point x="574" y="37"/>
      <point x="556" y="60"/>
      <point x="556" y="115" type="curve" smooth="yes"/>
      <point x="556" y="351" type="line" smooth="yes"/>
      <point x="556" y="413"/>
      <point x="545" y="442"/>
      <point x="511" y="465" type="curve" smooth="yes"/>
      <point x="483" y="484"/>
      <point x="445" y="494"/>
      <point x="399" y="494" type="curve" smooth="yes"/>
      <point x="330" y="494"/>
      <point x="268" y="468"/>
      <point x="202" y="411" type="curve"/>
    </contour>
  </outline>
</glyph>
<glyph name="i" format="1">
  <advance width="300"/>
  <unicode hex="0069"/>
  <outline>
    <contour>
      <point x="202" y="485" type="line"/>
      <point x="168" y="485" type="line"/>
      <point x="107" y="474"/>
      <point x="74" y="469"/>
      <point x="21" y="465" type="curve"/>
      <point x="21" y="435" type="line"/>
      <point x="41" y="433" type="line" smooth="yes"/>
      <point x="93" y="428"/>
      <point x="107" y="410"/>
      <point x="107" y="350" type="curve" smooth="yes"/>
      <point x="107" y="115" type="line" smooth="yes"/>
      <point x="107" y="60"/>
      <point x="89" y="37"/>
      <point x="45" y="32" type="curve" smooth="yes"/>
      <point x="20" y="30" type="line"/>
      <point x="20" y="0" type="line"/>
      <point x="288" y="0" type="line"/>
      <point x="288" y="30" type="line"/>
      <point x="264" y="32" type="line" smooth="yes"/>
      <point x="219" y="37"/>
      <point x="202" y="60"/>
      <point x="202" y="115" type="curve" smooth="yes"/>
    </contour>
    <contour>
      <point x="156" y="654" type="curve" smooth="yes"/>
      <point x="122" y="654"/>
      <point x="95" y="627"/>
      <point x="95" y="594" type="curve" smooth="yes"/>
      <point x="95" y="560"/>
      <point x="122" y="533"/>
      <point x="155" y="533" type="curve" smooth="yes"/>
      <point x="189" y="533"/>
      <point x="216" y="560"/>
      <point x="216" y="593" type="curve" smooth="yes"/>
      <point x="216" y="626"/>
      <point x="189" y="654"/>
    </contour>
  </outline>
</glyph>
<glyph name="j" format="1">
  <advance width="300"/>
  <unicode hex="006A"/>
  <outline>
    <contour>
      <point x="203" y="485" type="line"/>
      <point x="169" y="485" type="line"/>
      <point x="107" y="473"/>
      <point x="74" y="469"/>
      <point x="18" y="465" type="curve"/>
      <point x="18" y="435" type="line"/>
      <point x="42" y="433" type="line" smooth="yes"/>
      <point x="93" y="429"/>
      <point x="108" y="410"/>
      <point x="108" y="350" type="curve" smooth="yes"/>
      <point x="108" y="5" type="line" smooth="yes"/>
      <point x="108" y="-128"/>
      <point x="105" y="-151"/>
      <point x="84" y="-177" type="curve"/>
      <point x="74" y="-188"/>
      <point x="55" y="-196"/>
      <point x="36" y="-196" type="curve" smooth="yes"/>
      <point x="13" y="-196"/>
      <point x="2" y="-190"/>
      <point x="-19" y="-166" type="curve" smooth="yes"/>
      <point x="-36" y="-146"/>
      <point x="-47" y="-140"/>
      <point x="-63" y="-140" type="curve" smooth="yes"/>
      <point x="-88" y="-140"/>
      <point x="-109" y="-158"/>
      <point x="-109" y="-180" type="curve" smooth="yes"/>
      <point x="-109" y="-216"/>
      <point x="-66" y="-241"/>
      <point x="-2" y="-241" type="curve" smooth="yes"/>
      <point x="52" y="-241"/>
      <point x="104" y="-224"/>
      <point x="143" y="-192" type="curve" smooth="yes"/>
      <point x="189" y="-155"/>
      <point x="203" y="-120"/>
      <point x="203" y="-47" type="curve" smooth="yes"/>
    </contour>
    <contour>
      <point x="154" y="654" type="curve" smooth="yes"/>
      <point x="120" y="654"/>
      <point x="93" y="627"/>
      <point x="93" y="594" type="curve" smooth="yes"/>
      <point x="93" y="560"/>
      <point x="120" y="533"/>
      <point x="153" y="533" type="curve" smooth="yes"/>
      <point x="187" y="533"/>
      <point x="214" y="560"/>
      <point x="214" y="593" type="curve" smooth="yes"/>
      <point x="214" y="626"/>
      <point x="187" y="654"/>
    </contour>
  </outline>
</glyph>
<glyph name="k" format="1">
  <advance width="620"/>
  <unicode hex="006B"/>
  <outline>
    <contour>
      <point x="358" y="328" type="line"/>
      <point x="403" y="368" type="line" smooth="yes"/>
      <point x="464" y="422"/>
      <point x="509" y="442"/>
      <point x="595" y="455" type="curve"/>
      <point x="595" y="485" type="line"/>
      <point x="329" y="485" type="line"/>
      <point x="329" y="456" type="line"/>
      <point x="367" y="453"/>
      <point x="385" y="443"/>
      <point x="385" y="424" type="curve" smooth="yes"/>
      <point x="385" y="412"/>
      <point x="379" y="403"/>
      <point x="358" y="385" type="curve" smooth="yes"/>
      <point x="202" y="249" type="line"/>
      <point x="202" y="717" type="line"/>
      <point x="162" y="717" type="line"/>
      <point x="111" y="697"/>
      <point x="88" y="691"/>
      <point x="20" y="683" type="curve"/>
      <point x="20" y="652" type="line"/>
      <point x="42" y="650" type="line" smooth="yes"/>
      <point x="96" y="645"/>
      <point x="107" y="627"/>
      <point x="107" y="538" type="curve" smooth="yes"/>
      <point x="107" y="115" type="line" smooth="yes"/>
      <point x="107" y="60"/>
      <point x="89" y="37"/>
      <point x="45" y="32" type="curve" smooth="yes"/>
      <point x="20" y="30" type="line"/>
      <point x="20" y="0" type="line"/>
      <point x="289" y="0" type="line"/>
      <point x="289" y="30" type="line"/>
      <point x="263" y="32" type="line" smooth="yes"/>
      <point x="220" y="37"/>
      <point x="202" y="61"/>
      <point x="202" y="115" type="curve" smooth="yes"/>
      <point x="202" y="198" type="line"/>
      <point x="283" y="267" type="line"/>
      <point x="388" y="115" type="line" smooth="yes"/>
      <point x="405" y="92"/>
      <point x="414" y="70"/>
      <point x="414" y="55" type="curve" smooth="yes"/>
      <point x="414" y="41"/>
      <point x="404" y="34"/>
      <point x="385" y="32" type="curve" smooth="yes"/>
      <point x="358" y="30" type="line"/>
      <point x="358" y="0" type="line"/>
      <point x="628" y="0" type="line"/>
      <point x="628" y="32" type="line"/>
      <point x="582" y="40"/>
      <point x="544" y="66"/>
      <point x="507" y="115" type="curve" smooth="yes"/>
    </contour>
  </outline>
</glyph>
<glyph name="l" format="1">
  <advance width="300"/>
  <unicode hex="006C"/>
  <outline>
    <contour>
      <point x="201" y="717" type="line"/>
      <point x="161" y="717" type="line"/>
      <point x="111" y="697"/>
      <point x="88" y="691"/>
      <point x="20" y="683" type="curve"/>
      <point x="20" y="652" type="line"/>
      <point x="41" y="650" type="line" smooth="yes"/>
      <point x="95" y="645"/>
      <point x="106" y="627"/>
      <point x="106" y="538" type="curve" smooth="yes"/>
      <point x="106" y="115" type="line" smooth="yes"/>
      <point x="106" y="60"/>
      <point x="89" y="37"/>
      <point x="44" y="32" type="curve" smooth="yes"/>
      <point x="20" y="30" type="line"/>
      <point x="20" y="0" type="line"/>
      <point x="286" y="0" type="line"/>
      <point x="286" y="30" type="line"/>
      <point x="263" y="32" type="line" smooth="yes"/>
      <point x="218" y="37"/>
      <point x="201" y="60"/>
      <point x="201" y="115" type="curve" smooth="yes"/>
    </contour>
  </outline>
</glyph>
<glyph name="m" format="1">
  <advance width="940"/>
  <unicode hex="006D"/>
  <outline>
    <contour>
      <point x="520" y="373" type="line"/>
      <point x="581" y="424"/>
      <point x="621" y="442"/>
      <point x="667" y="442" type="curve" smooth="yes"/>
      <point x="719" y="442"/>
      <point x="746" y="405"/>
      <point x="746" y="333" type="curve" smooth="yes"/>
      <point x="746" y="115" type="line" smooth="yes"/>
      <point x="746" y="91"/>
      <point x="742" y="70"/>
      <point x="735" y="60" type="curve" smooth="yes"/>
      <point x="723" y="42"/>
      <point x="713" y="37"/>
      <point x="684" y="32" type="curve"/>
      <point x="666" y="30" type="line"/>
      <point x="666" y="0" type="line"/>
      <point x="928" y="0" type="line"/>
      <point x="928" y="30" type="line"/>
      <point x="903" y="32" type="line" smooth="yes"/>
      <point x="859" y="37"/>
      <point x="841" y="60"/>
      <point x="841" y="115" type="curve" smooth="yes"/>
      <point x="841" y="360" type="line" smooth="yes"/>
      <point x="841" y="444"/>
      <point x="791" y="494"/>
      <point x="708" y="494" type="curve" smooth="yes"/>
      <point x="641" y="494"/>
      <point x="590" y="472"/>
      <point x="518" y="411" type="curve"/>
      <point x="491" y="471"/>
      <point x="453" y="494"/>
      <point x="381" y="494" type="curve" smooth="yes"/>
      <point x="311" y="494"/>
      <point x="263" y="474"/>
      <point x="199" y="418" type="curve"/>
      <point x="199" y="485" type="line"/>
      <point x="165" y="485" type="line"/>
      <point x="107" y="474"/>
      <point x="76" y="470"/>
      <point x="17" y="465" type="curve"/>
      <point x="17" y="435" type="line"/>
      <point x="38" y="433" type="line" smooth="yes"/>
      <point x="90" y="428"/>
      <point x="104" y="410"/>
      <point x="104" y="350" type="curve" smooth="yes"/>
      <point x="104" y="115" type="line" smooth="yes"/>
      <point x="104" y="60"/>
      <point x="86" y="37"/>
      <point x="42" y="32" type="curve" smooth="yes"/>
      <point x="17" y="30" type="line"/>
      <point x="17" y="0" type="line"/>
      <point x="279" y="0" type="line"/>
      <point x="279" y="30" type="line"/>
      <point x="261" y="32" type="line" smooth="yes"/>
      <point x="233" y="36"/>
      <point x="226" y="40"/>
      <point x="213" y="55" type="curve"/>
      <point x="204" y="67"/>
      <point x="199" y="88"/>
      <point x="199" y="115" type="curve" smooth="yes"/>
      <point x="199" y="373" type="line"/>
      <point x="257" y="423"/>
      <point x="297" y="442"/>
      <point x="343" y="442" type="curve" smooth="yes"/>
      <point x="400" y="442"/>
      <point x="425" y="409"/>
      <point x="425" y="336" type="curve" smooth="yes"/>
      <point x="425" y="115" type="line" smooth="yes"/>
      <point x="425" y="60"/>
      <point x="408" y="38"/>
      <point x="363" y="32" type="curve" smooth="yes"/>
      <point x="342" y="30" type="line"/>
      <point x="342" y="0" type="line"/>
      <point x="603" y="0" type="line"/>
      <point x="603" y="30" type="line"/>
      <point x="582" y="32" type="line" smooth="yes"/>
      <point x="537" y="38"/>
      <point x="520" y="60"/>
      <point x="520" y="115" type="curve" smooth="yes"/>
    </contour>
  </outline>
</glyph>
<glyph name="q" format="1">
  <advance width="580"/>
  <unicode hex="0071"/>
  <outline>
    <contour>
      <point x="502" y="485" type="line"/>
      <point x="450" y="485" type="line"/>
      <point x="424" y="428" type="line"/>
      <point x="373" y="472"/>
      <point x="319" y="494"/>
      <point x="263" y="494" type="curve" smooth="yes"/>
      <point x="201" y="494"/>
      <point x="134" y="461"/>
      <point x="93" y="409" type="curve" smooth="yes"/>
      <point x="57" y="364"/>
      <point x="37" y="303"/>
      <point x="37" y="235" type="curve" smooth="yes"/>
      <point x="37" y="156"/>
      <point x="63" y="92"/>
      <point x="112" y="48" type="curve" smooth="yes"/>
      <point x="151" y="13"/>
      <point x="205" y="-9"/>
      <point x="255" y="-9" type="curve" smooth="yes"/>
      <point x="306" y="-9"/>
      <point x="347" y="7"/>
      <point x="407" y="51" type="curve"/>
      <point x="407" y="-113" type="line" smooth="yes"/>
      <point x="407" y="-167"/>
      <point x="389" y="-192"/>
      <point x="345" y="-196" type="curve" smooth="yes"/>
      <point x="320" y="-198" type="line"/>
      <point x="320" y="-228" type="line"/>
      <point x="589" y="-228" type="line"/>
      <point x="589" y="-198" type="line"/>
      <point x="564" y="-196" type="line" smooth="yes"/>
      <point x="520" y="-192"/>
      <point x="502" y="-167"/>
      <point x="502" y="-113" type="curve" smooth="yes"/>
    </contour>
    <contour>
      <point x="407" y="99" type="line"/>
      <point x="357" y="54"/>
      <point x="321" y="36"/>
      <point x="282" y="36" type="curve" smooth="yes"/>
      <point x="199" y="36"/>
      <point x="139" y="119"/>
      <point x="139" y="237" type="curve" smooth="yes"/>
      <point x="139" y="292"/>
      <point x="150" y="342"/>
      <point x="170" y="377" type="curve" smooth="yes"/>
      <point x="194" y="420"/>
      <point x="243" y="449"/>
      <point x="292" y="449" type="curve" smooth="yes"/>
      <point x="338" y="449"/>
      <point x="371" y="432"/>
      <point x="407" y="388" type="curve"/>
    </contour>
  </outline>
</glyph>
<glyph name="t" format="1">
  <advance width="380"/>
  <unicode hex="0074"/>
  <outline>
    <contour>
      <point x="342" y="485" type="line"/>
      <point x="199" y="485" type="line"/>
      <point x="199" y="667" type="line"/>
      <point x="161" y="667" type="line"/>
      <point x="162" y="544"/>
      <point x="118" y="489"/>
      <point x="20" y="485" type="curve"/>
      <point x="20" y="452" type="line"/>
      <point x="104" y="452" type="line"/>
      <point x="104" y="117" type="line" smooth="yes"/>
      <point x="104" y="68"/>
      <point x="118" y="37"/>
      <point x="150" y="17" type="curve" smooth="yes"/>
      <point x="176" y="1"/>
      <point x="212" y="-9"/>
      <point x="247" y="-9" type="curve" smooth="yes"/>
      <point x="306" y="-9"/>
      <point x="352" y="14"/>
      <point x="388" y="61" type="curve"/>
      <point x="361" y="83" type="line"/>
      <point x="327" y="44"/>
      <point x="304" y="31"/>
      <point x="274" y="31" type="curve" smooth="yes"/>
      <point x="223" y="31"/>
      <point x="199" y="72"/>
      <point x="199" y="163" type="curve" smooth="yes"/>
      <point x="199" y="452" type="line"/>
      <point x="342" y="452" type="line"/>
    </contour>
  </outline>
</glyph>
<glyph name="w" format="1">
  <advance width="780"/>
  <unicode hex="0077"/>
  <outline>
    <contour>
      <point x="560" y="90" type="line"/>
      <point x="456" y="387" type="line" smooth="yes"/>
      <point x="453" y="396"/>
      <point x="451" y="407"/>
      <point x="451" y="414" type="curve" smooth="yes"/>
      <point x="451" y="439"/>
      <point x="467" y="449"/>
      <point x="511" y="455" type="curve"/>
      <point x="511" y="485" type="line"/>
      <point x="273" y="485" type="line"/>
      <point x="273" y="455" type="line"/>
      <point x="321" y="444"/>
      <point x="333" y="434"/>
      <point x="352" y="387" type="curve" smooth="yes"/>
      <point x="369" y="345" type="line"/>
      <point x="272" y="89" type="line"/>
      <point x="166" y="387" type="line" smooth="yes"/>
      <point x="163" y="395"/>
      <point x="160" y="413"/>
      <point x="160" y="421" type="curve" smooth="yes"/>
      <point x="160" y="442"/>
      <point x="177" y="452"/>
      <point x="217" y="455" type="curve"/>
      <point x="217" y="485" type="line"/>
      <point x="-19" y="485" type="line"/>
      <point x="-19" y="455" type="line"/>
      <point x="19" y="451"/>
      <point x="41" y="432"/>
      <point x="59" y="387" type="curve" smooth="yes"/>
      <point x="208" y="0" type="line"/>
      <point x="273" y="0" type="line"/>
      <point x="391" y="287" type="line"/>
      <point x="491" y="0" type="line"/>
      <point x="561" y="0" type="line"/>
      <point x="701" y="354" type="line" smooth="yes"/>
      <point x="729" y="421"/>
      <point x="750" y="441"/>
      <point x="804" y="455" type="curve"/>
      <point x="804" y="485" type="line"/>
      <point x="583" y="485" type="line"/>
      <point x="583" y="455" type="line"/>
      <point x="630" y="452"/>
      <point x="657" y="431"/>
      <point x="657" y="397" type="curve" smooth="yes"/>
      <point x="657" y="386"/>
      <point x="654" y="366"/>
      <point x="650" y="354" type="curve" smooth="yes"/>
    </contour>
  </outline>
</glyph>
<glyph name="braceleft" format="1">
  <advance width="280"/>
  <unicode hex="007B"/>
  <outline>
    <contour>
      <point x="248" y="-89" type="line"/>
      <point x="194" y="-79"/>
      <point x="172" y="-58"/>
      <point x="172" y="-18" type="curve" smooth="yes"/>
      <point x="172" y="203" type="line" smooth="yes"/>
      <point x="172" y="261"/>
      <point x="160" y="284"/>
      <point x="116" y="308" type="curve"/>
      <point x="160" y="332"/>
      <point x="172" y="355"/>
      <point x="172" y="413" type="curve" smooth="yes"/>
      <point x="172" y="634" type="line" smooth="yes"/>
      <point x="172" y="674"/>
      <point x="194" y="695"/>
      <point x="248" y="705" type="curve"/>
      <point x="248" y="737" type="line"/>
      <point x="223" y="738" type="line" smooth="yes"/>
      <point x="144" y="738"/>
      <point x="110" y="700"/>
      <point x="110" y="613" type="curve" smooth="yes"/>
      <point x="110" y="393" type="line" smooth="yes"/>
      <point x="110" y="352"/>
      <point x="87" y="332"/>
      <point x="35" y="324" type="curve"/>
      <point x="35" y="292" type="line"/>
      <point x="87" y="284"/>
      <point x="110" y="264"/>
      <point x="110" y="223" type="curve" smooth="yes"/>
      <point x="110" y="3" type="line" smooth="yes"/>
      <point x="110" y="-83"/>
      <point x="145" y="-122"/>
      <point x="219" y="-122" type="curve" smooth="yes"/>
      <point x="224" y="-122"/>
      <point x="237" y="-122"/>
      <point x="248" y="-121" type="curve"/>
    </contour>
  </outline>
</glyph>
<glyph name="bar" format="1">
  <advance width="600"/>
  <unicode hex="007C"/>
  <outline>
    <contour>
      <point x="342" y="722" type="line"/>
      <point x="264" y="722" type="line"/>
      <point x="264" y="0" type="line"/>
      <point x="342" y="0" type="line"/>
    </contour>
  </outline>
</glyph>
<glyph name="braceright" format="1">
  <advance width="280"/>
  <unicode hex="007D"/>
  <outline>
    <contour>
      <point x="35" y="705" type="line"/>
      <point x="89" y="695"/>
      <point x="111" y="674"/>
      <point x="111" y="634" type="curve" smooth="yes"/>
      <point x="111" y="413" type="line" smooth="yes"/>
      <point x="111" y="355"/>
      <point x="123" y="332"/>
      <point x="167" y="308" type="curve"/>
      <point x="123" y="284"/>
      <point x="111" y="261"/>
      <point x="111" y="203" type="curve" smooth="yes"/>
      <point x="111" y="-18" type="line" smooth="yes"/>
      <point x="111" y="-58"/>
      <point x="89" y="-79"/>
      <point x="35" y="-89" type="curve"/>
      <point x="35" y="-121" type="line"/>
      <point x="60" y="-122" type="line" smooth="yes"/>
      <point x="139" y="-122"/>
      <point x="173" y="-84"/>
      <point x="173" y="3" type="curve" smooth="yes"/>
      <point x="173" y="223" type="line" smooth="yes"/>
      <point x="173" y="264"/>
      <point x="196" y="284"/>
      <point x="248" y="292" type="curve"/>
      <point x="248" y="324" type="line"/>
      <point x="196" y="332"/>
      <point x="173" y="352"/>
      <point x="173" y="393" type="curve" smooth="yes"/>
      <point x="173" y="613" type="line" smooth="yes"/>
      <point x="173" y="698"/>
      <point x="138" y="738"/>
      <point x="64" y="738" type="curve" smooth="yes"/>
      <point x="59" y="738"/>
      <point x="46" y="738"/>
      <point x="35" y="737" type="curve"/>
    </contour>
  </outline>
</glyph>
<glyph name="asciitilde" format="1">
  <advance width="600"/>
  <unicode hex="007E"/>
  <outline>
    <contour>
      <point x="513" y="332" type="line"/>
      <point x="478" y="274"/>
      <point x="450" y="250"/>
      <point x="417" y="250" type="curve" smooth="yes"/>
      <point x="398" y="250"/>
      <point x="380" y="255"/>
      <point x="337" y="273" type="curve" smooth="yes"/>
      <point x="272" y="300" type="line" smooth="yes"/>
      <point x="243" y="313"/>
      <point x="217" y="319"/>
      <point x="196" y="319" type="curve" smooth="yes"/>
      <point x="140" y="319"/>
      <point x="103" y="288"/>
      <point x="52" y="199" type="curve"/>
      <point x="94" y="152" type="line"/>
      <point x="113" y="184"/>
      <point x="119" y="192"/>
      <point x="129" y="207" type="curve"/>
      <point x="146" y="229"/>
      <point x="170" y="242"/>
      <point x="196" y="242" type="curve" smooth="yes"/>
      <point x="215" y="242"/>
      <point x="226" y="239"/>
      <point x="269" y="221" type="curve" smooth="yes"/>
      <point x="323" y="199" type="line" smooth="yes"/>
      <point x="368" y="180"/>
      <point x="393" y="173"/>
      <point x="416" y="173" type="curve" smooth="yes"/>
      <point x="468" y="173"/>
      <point x="519" y="214"/>
      <point x="556" y="285" type="curve"/>
    </contour>
  </outline>
</glyph>
<glyph name="exclamdown" format="1">
  <advance width="300"/>
  <unicode hex="00A1"/>
  <outline>
    <contour>
      <point x="151" y="494" type="curve" smooth="yes"/>
      <point x="115" y="494"/>
      <point x="86" y="465"/>
      <point x="86" y="429" type="curve" smooth="yes"/>
      <point x="86" y="395"/>
      <point x="115" y="365"/>
      <point x="150" y="365" type="curve" smooth="yes"/>
      <point x="186" y="365"/>
      <point x="215" y="394"/>
      <point x="215" y="429" type="curve" smooth="yes"/>
      <point x="215" y="465"/>
      <point x="186" y="494"/>
    </contour>
    <contour>
      <point x="134" y="307" type="line"/>
      <point x="134" y="276" type="line" smooth="yes"/>
      <point x="134" y="238"/>
      <point x="126" y="164"/>
      <point x="117" y="117" type="curve" smooth="yes"/>
      <point x="89" y="-19" type="line" smooth="yes"/>
      <point x="80" y="-65"/>
      <point x="75" y="-100"/>
      <point x="75" y="-121" type="curve" smooth="yes"/>
      <point x="75" y="-179"/>
      <point x="102" y="-213"/>
      <point x="147" y="-213" type="curve" smooth="yes"/>
      <point x="195" y="-213"/>
      <point x="219" y="-180"/>
      <point x="219" y="-112" type="curve" smooth="yes"/>
      <point x="219" y="-90"/>
      <point x="219" y="-90"/>
      <point x="207" y="-22" type="curve" smooth="yes"/>
      <point x="185" y="109" type="line" smooth="yes"/>
      <point x="177" y="152"/>
      <point x="170" y="237"/>
      <point x="170" y="275" type="curve" smooth="yes"/>
      <point x="170" y="307" type="line"/>
    </contour>
  </outline>
</glyph>
<glyph name="cent" format="1">
  <advance width="620"/>
  <unicode hex="00A2"/>
  <outline>
    <contour>
      <point x="342" y="504" type="line"/>
      <point x="374" y="501"/>
      <point x="393" y="481"/>
      <point x="395" y="449" type="curve"/>
      <point x="400" y="408"/>
      <point x="421" y="385"/>
      <point x="451" y="385" type="curve" smooth="yes"/>
      <point x="478" y="385"/>
      <point x="500" y="408"/>
      <point x="500" y="437" type="curve" smooth="yes"/>
      <point x="500" y="496"/>
      <point x="433" y="543"/>
      <point x="342" y="549" type="curve"/>
      <point x="342" y="652" type="line"/>
      <point x="305" y="652" type="line"/>
      <point x="305" y="549" type="line"/>
      <point x="192" y="538"/>
      <point x="116" y="457"/>
      <point x="116" y="346" type="curve" smooth="yes"/>
      <point x="116" y="239"/>
      <point x="197" y="151"/>
      <point x="305" y="141" type="curve"/>
      <point x="305" y="21" type="line"/>
      <point x="342" y="21" type="line"/>
      <point x="342" y="141" type="line"/>
      <point x="414" y="146"/>
      <point x="476" y="185"/>
      <point x="511" y="247" type="curve"/>
      <point x="487" y="261" type="line"/>
      <point x="437" y="218"/>
      <point x="412" y="206"/>
      <point x="372" y="206" type="curve" smooth="yes"/>
      <point x="363" y="206"/>
      <point x="356" y="207"/>
      <point x="342" y="209" type="curve"/>
    </contour>
    <contour>
      <point x="305" y="221" type="line"/>
      <point x="265" y="241"/>
      <point x="249" y="259"/>
      <point x="236" y="294" type="curve" smooth="yes"/>
      <point x="228" y="316"/>
      <point x="224" y="341"/>
      <point x="224" y="365" type="curve" smooth="yes"/>
      <point x="224" y="440"/>
      <point x="254" y="490"/>
      <point x="305" y="505" type="curve"/>
    </contour>
  </outline>
</glyph>
<glyph name="sterling" format="1">
  <advance width="620"/>
  <unicode hex="00A3"/>
  <outline>
    <contour>
      <point x="257" y="400" type="line"/>
      <point x="246" y="426" type="line" smooth="yes"/>
      <point x="230" y="466"/>
      <point x="227" y="481"/>
      <point x="227" y="509" type="curve" smooth="yes"/>
      <point x="227" y="601"/>
      <point x="284" y="662"/>
      <point x="368" y="662" type="curve" smooth="yes"/>
      <point x="427" y="662"/>
      <point x="483" y="627"/>
      <point x="483" y="589" type="curve" smooth="yes"/>
      <point x="483" y="584"/>
      <point x="482" y="578"/>
      <point x="479" y="573" type="curve"/>
      <point x="466" y="545"/>
      <point x="464" y="538"/>
      <point x="464" y="526" type="curve" smooth="yes"/>
      <point x="464" y="503"/>
      <point x="485" y="484"/>
      <point x="511" y="484" type="curve" smooth="yes"/>
      <point x="543" y="484"/>
      <point x="565" y="510"/>
      <point x="565" y="548" type="curve" smooth="yes"/>
      <point x="565" y="633"/>
      <point x="486" y="694"/>
      <point x="376" y="694" type="curve" smooth="yes"/>
      <point x="304" y="694"/>
      <point x="236" y="669"/>
      <point x="194" y="626" type="curve" smooth="yes"/>
      <point x="160" y="592"/>
      <point x="135" y="536"/>
      <point x="135" y="493" type="curve" smooth="yes"/>
      <point x="135" y="472"/>
      <point x="140" y="449"/>
      <point x="154" y="400" type="curve"/>
      <point x="56" y="400" type="line"/>
      <point x="42" y="357" type="line"/>
      <point x="169" y="357" type="line"/>
      <point x="203" y="277" type="line" smooth="yes"/>
      <point x="239" y="190"/>
      <point x="242" y="182"/>
      <point x="244" y="150" type="curve"/>
      <point x="189" y="167"/>
      <point x="157" y="173"/>
      <point x="126" y="173" type="curve" smooth="yes"/>
      <point x="59" y="173"/>
      <point x="8" y="133"/>
      <point x="8" y="80" type="curve" smooth="yes"/>
      <point x="8" y="27"/>
      <point x="58" y="-13"/>
      <point x="123" y="-13" type="curve" smooth="yes"/>
      <point x="188" y="-13"/>
      <point x="243" y="17"/>
      <point x="289" y="76" type="curve"/>
      <point x="380" y="30" type="line" smooth="yes"/>
      <point x="444" y="-2"/>
      <point x="465" y="-9"/>
      <point x="499" y="-9" type="curve" smooth="yes"/>
      <point x="574" y="-9"/>
      <point x="631" y="46"/>
      <point x="631" y="117" type="curve" smooth="yes"/>
      <point x="631" y="177"/>
      <point x="586" y="222"/>
      <point x="527" y="222" type="curve" smooth="yes"/>
      <point x="494" y="222"/>
      <point x="469" y="214"/>
      <point x="440" y="195" type="curve"/>
      <point x="456" y="167" type="line"/>
      <point x="483" y="179"/>
      <point x="496" y="182"/>
      <point x="514" y="182" type="curve" smooth="yes"/>
      <point x="546" y="182"/>
      <point x="568" y="163"/>
      <point x="568" y="134" type="curve" smooth="yes"/>
      <point x="568" y="100"/>
      <point x="536" y="74"/>
      <point x="493" y="74" type="curve" smooth="yes"/>
      <point x="471" y="74"/>
      <point x="471" y="74"/>
      <point x="408" y="95" type="curve" smooth="yes"/>
      <point x="313" y="125" type="line"/>
      <point x="325" y="162"/>
      <point x="328" y="179"/>
      <point x="328" y="201" type="curve" smooth="yes"/>
      <point x="328" y="224"/>
      <point x="322" y="251"/>
      <point x="313" y="272" type="curve" smooth="yes"/>
      <point x="277" y="357" type="line"/>
      <point x="442" y="357" type="line"/>
      <point x="458" y="400" type="line"/>
    </contour>
    <contour>
      <point x="237" y="100" type="curve"/>
      <point x="207" y="50"/>
      <point x="173" y="27"/>
      <point x="128" y="27" type="curve" smooth="yes"/>
      <point x="89" y="27"/>
      <point x="61" y="49"/>
      <point x="61" y="80" type="curve" smooth="yes"/>
      <point x="61" y="112"/>
      <point x="89" y="133"/>
      <point x="132" y="133" type="curve" smooth="yes"/>
      <point x="168" y="133"/>
      <point x="197" y="124"/>
    </contour>
  </outline>
</glyph>
<glyph name="currency" format="1">
  <advance width="620"/>
  <unicode hex="00A4"/>
  <outline>
    <contour>
      <point x="59" y="156" type="line"/>
      <point x="109" y="105" type="line"/>
      <point x="162" y="158" type="line"/>
      <point x="211" y="121"/>
      <point x="254" y="106"/>
      <point x="311" y="106" type="curve" smooth="yes"/>
      <point x="368" y="106"/>
      <point x="411" y="121"/>
      <point x="460" y="158" type="curve"/>
      <point x="513" y="105" type="line"/>
      <point x="563" y="156" type="line"/>
      <point x="510" y="209" type="line"/>
      <point x="545" y="256"/>
      <point x="559" y="297"/>
      <point x="559" y="354" type="curve" smooth="yes"/>
      <point x="559" y="412"/>
      <point x="545" y="454"/>
      <point x="508" y="502" type="curve"/>
      <point x="561" y="554" type="line"/>
      <point x="511" y="606" type="line"/>
      <point x="458" y="553" type="line"/>
      <point x="409" y="588"/>
      <point x="366" y="603"/>
      <point x="312" y="603" type="curve" smooth="yes"/>
      <point x="257" y="603"/>
      <point x="210" y="587"/>
      <point x="163" y="552" type="curve"/>
      <point x="109" y="606" type="line"/>
      <point x="58" y="554" type="line"/>
      <point x="112" y="500" type="line"/>
      <point x="77" y="453"/>
      <point x="63" y="413"/>
      <point x="63" y="354" type="curve" smooth="yes"/>
      <point x="63" y="298"/>
      <point x="76" y="260"/>
      <point x="112" y="209" type="curve"/>
    </contour>
    <contour>
      <point x="314" y="520" type="curve" smooth="yes"/>
      <point x="402" y="520"/>
      <point x="477" y="444"/>
      <point x="477" y="355" type="curve" smooth="yes"/>
      <point x="477" y="264"/>
      <point x="402" y="189"/>
      <point x="311" y="189" type="curve" smooth="yes"/>
      <point x="219" y="189"/>
      <point x="145" y="263"/>
      <point x="145" y="356" type="curve" smooth="yes"/>
      <point x="145" y="447"/>
      <point x="220" y="520"/>
    </contour>
  </outline>
</glyph>
<glyph name="yen" format="1">
  <advance width="620"/>
  <unicode hex="00A5"/>
  <outline>
    <contour>
      <point x="347" y="235" type="line"/>
      <point x="578" y="235" type="line"/>
      <point x="578" y="275" type="line"/>
      <point x="347" y="275" type="line"/>
      <point x="347" y="308" type="line"/>
      <point x="404" y="394" type="line"/>
      <point x="578" y="394" type="line"/>
      <point x="578" y="434" type="line"/>
      <point x="430" y="434" type="line"/>
      <point x="499" y="537" type="line" smooth="yes"/>
      <point x="557" y="626"/>
      <point x="576" y="641"/>
      <point x="647" y="654" type="curve"/>
      <point x="647" y="681" type="line"/>
      <point x="404" y="681" type="line"/>
      <point x="404" y="654" type="line"/>
      <point x="461" y="640"/>
      <point x="473" y="632"/>
      <point x="473" y="607" type="curve" smooth="yes"/>
      <point x="473" y="594"/>
      <point x="471" y="590"/>
      <point x="446" y="549" type="curve" smooth="yes"/>
      <point x="324" y="346" type="line"/>
      <point x="193" y="560" type="line" smooth="yes"/>
      <point x="174" y="592"/>
      <point x="171" y="599"/>
      <point x="171" y="611" type="curve" smooth="yes"/>
      <point x="171" y="633"/>
      <point x="186" y="643"/>
      <point x="235" y="652" type="curve" smooth="yes"/>
      <point x="246" y="654" type="line"/>
      <point x="246" y="681" type="line"/>
      <point x="-22" y="681" type="line"/>
      <point x="-22" y="654" type="line"/>
      <point x="41" y="639"/>
      <point x="51" y="631"/>
      <point x="95" y="556" type="curve" smooth="yes"/>
      <point x="168" y="434" type="line"/>
      <point x="30" y="434" type="line"/>
      <point x="30" y="394" type="line"/>
      <point x="193" y="394" type="line"/>
      <point x="257" y="285" type="line"/>
      <point x="257" y="275" type="line"/>
      <point x="30" y="275" type="line"/>
      <point x="30" y="235" type="line"/>
      <point x="257" y="235" type="line"/>
      <point x="257" y="130" type="line" smooth="yes"/>
      <point x="257" y="54"/>
      <point x="241" y="34"/>
      <point x="176" y="31" type="curve" smooth="yes"/>
      <point x="158" y="30" type="line"/>
      <point x="158" y="0" type="line"/>
      <point x="446" y="0" type="line"/>
      <point x="446" y="30" type="line"/>
      <point x="365" y="33"/>
      <point x="347" y="51"/>
      <point x="347" y="130" type="curve" smooth="yes"/>
    </contour>
  </outline>
</glyph>
<glyph name="brokenbar" format="1">
  <advance width="600"/>
  <unicode hex="00A6"/>
  <outline>
    <contour>
      <point x="342" y="722" type="line"/>
      <point x="264" y="722" type="line"/>
      <point x="264" y="435" type="line"/>
      <point x="342" y="435" type="line"/>
    </contour>
    <contour>
      <point x="342" y="287" type="line"/>
      <point x="264" y="287" type="line"/>
      <point x="264" y="0" type="line"/>
      <point x="342" y="0" type="line"/>
    </contour>
  </outline>
</glyph>
<glyph name="section" format="1">
  <advance width="520"/>
  <unicode hex="00A7"/>
  <outline>
    <contour>
      <point x="219" y="467" type="line" smooth="yes"/>
      <point x="159" y="485"/>
      <point x="134" y="512"/>
      <point x="134" y="559" type="curve" smooth="yes"/>
      <point x="134" y="619"/>
      <point x="182" y="654"/>
      <point x="265" y="654" type="curve" smooth="yes"/>
      <point x="332" y="654"/>
      <point x="374" y="628"/>
      <point x="374" y="587" type="curve" smooth="yes"/>
      <point x="374" y="575" type="line"/>
      <point x="373" y="557"/>
      <point x="373" y="557"/>
      <point x="373" y="554" type="curve" smooth="yes"/>
      <point x="373" y="523"/>
      <point x="394" y="500"/>
      <point x="423" y="500" type="curve" smooth="yes"/>
      <point x="449" y="500"/>
      <point x="469" y="524"/>
      <point x="469" y="557" type="curve" smooth="yes"/>
      <point x="469" y="634"/>
      <point x="376" y="694"/>
      <point x="257" y="694" type="curve" smooth="yes"/>
      <point x="131" y="694"/>
      <point x="46" y="630"/>
      <point x="46" y="536" type="curve" smooth="yes"/>
      <point x="46" y="473"/>
      <point x="70" y="435"/>
      <point x="134" y="399" type="curve"/>
      <point x="63" y="343"/>
      <point x="37" y="301"/>
      <point x="37" y="242" type="curve" smooth="yes"/>
      <point x="37" y="204"/>
      <point x="51" y="170"/>
      <point x="78" y="142" type="curve" smooth="yes"/>
      <point x="103" y="115"/>
      <point x="143" y="97"/>
      <point x="204" y="85" type="curve" smooth="yes"/>
      <point x="312" y="62" type="line" smooth="yes"/>
      <point x="372" y="50"/>
      <point x="398" y="23"/>
      <point x="398" y="-26" type="curve" smooth="yes"/>
      <point x="398" y="-97"/>
      <point x="344" y="-143"/>
      <point x="259" y="-143" type="curve" smooth="yes"/>
      <point x="224" y="-143"/>
      <point x="184" y="-134"/>
      <point x="157" y="-121" type="curve" smooth="yes"/>
      <point x="138" y="-111"/>
      <point x="128" y="-95"/>
      <point x="128" y="-74" type="curve" smooth="yes"/>
      <point x="128" y="-69"/>
      <point x="128" y="-65"/>
      <point x="129" y="-60" type="curve" smooth="yes"/>
      <point x="133" y="-35"/>
      <point x="133" y="-35"/>
      <point x="133" y="-29" type="curve" smooth="yes"/>
      <point x="133" y="0"/>
      <point x="113" y="21"/>
      <point x="85" y="21" type="curve" smooth="yes"/>
      <point x="55" y="21"/>
      <point x="33" y="-4"/>
      <point x="33" y="-36" type="curve" smooth="yes"/>
      <point x="33" y="-118"/>
      <point x="133" y="-183"/>
      <point x="259" y="-183" type="curve" smooth="yes"/>
      <point x="394" y="-183"/>
      <point x="486" y="-111"/>
      <point x="486" y="-5" type="curve" smooth="yes"/>
      <point x="486" y="50"/>
      <point x="464" y="91"/>
      <point x="417" y="126" type="curve"/>
      <point x="460" y="181"/>
      <point x="479" y="228"/>
      <point x="479" y="284" type="curve" smooth="yes"/>
      <point x="479" y="351"/>
      <point x="431" y="406"/>
      <point x="354" y="429" type="curve" smooth="yes"/>
    </contour>
    <contour>
      <point x="298" y="350" type="line" smooth="yes"/>
      <point x="377" y="326"/>
      <point x="409" y="291"/>
      <point x="409" y="230" type="curve" smooth="yes"/>
      <point x="409" y="199"/>
      <point x="403" y="178"/>
      <point x="382" y="140" type="curve"/>
      <point x="348" y="149"/>
      <point x="331" y="152"/>
      <point x="298" y="159" type="curve" smooth="yes"/>
      <point x="227" y="174" type="line" smooth="yes"/>
      <point x="158" y="188"/>
      <point x="115" y="226"/>
      <point x="115" y="275" type="curve" smooth="yes"/>
      <point x="115" y="313"/>
      <point x="130" y="343"/>
      <point x="170" y="387" type="curve"/>
    </contour>
  </outline>
</glyph>
<glyph name="dieresis" format="1">
  <advance width="420"/>
  <unicode hex="00A8"/>
  <outline>
    <contour>
      <point x="128" y="681" type="curve" smooth="yes"/>
      <point x="95" y="681"/>
      <point x="68" y="655"/>
      <point x="68" y="622" type="curve" smooth="yes"/>
      <point x="68" y="590"/>
      <point x="95" y="563"/>
      <point x="127" y="563" type="curve" smooth="yes"/>
      <point x="159" y="563"/>
      <point x="186" y="590"/>
      <point x="186" y="622" type="curve" smooth="yes"/>
      <point x="186" y="654"/>
      <point x="159" y="681"/>
    </contour>
    <contour>
      <point x="291" y="681" type="curve" smooth="yes"/>
      <point x="258" y="681"/>
      <point x="231" y="655"/>
      <point x="231" y="622" type="curve" smooth="yes"/>
      <point x="231" y="590"/>
      <point x="258" y="563"/>
      <point x="290" y="563" type="curve" smooth="yes"/>
      <point x="322" y="563"/>
      <point x="349" y="590"/>
      <point x="349" y="622" type="curve" smooth="yes"/>
      <point x="349" y="654"/>
      <point x="322" y="681"/>
    </contour>
  </outline>
</glyph>
<glyph name="copyright" format="1">
  <advance width="740"/>
  <unicode hex="00A9"/>
  <outline>
    <contour>
      <point x="511" y="529" type="line"/>
      <point x="489" y="529" type="line"/>
      <point x="478" y="508" type="line"/>
      <point x="448" y="530"/>
      <point x="412" y="541"/>
      <point x="366" y="541" type="curve" smooth="yes"/>
      <point x="321" y="541"/>
      <point x="269" y="517"/>
      <point x="234" y="480" type="curve" smooth="yes"/>
      <point x="201" y="444"/>
      <point x="182" y="395"/>
      <point x="182" y="342" type="curve" smooth="yes"/>
      <point x="182" y="231"/>
      <point x="266" y="147"/>
      <point x="379" y="147" type="curve" smooth="yes"/>
      <point x="452" y="147"/>
      <point x="508" y="179"/>
      <point x="551" y="246" type="curve"/>
      <point x="522" y="262" type="line"/>
      <point x="487" y="209"/>
      <point x="438" y="179"/>
      <point x="387" y="179" type="curve" smooth="yes"/>
      <point x="354" y="179"/>
      <point x="315" y="197"/>
      <point x="291" y="223" type="curve" smooth="yes"/>
      <point x="266" y="250"/>
      <point x="252" y="294"/>
      <point x="252" y="343" type="curve" smooth="yes"/>
      <point x="252" y="438"/>
      <point x="305" y="509"/>
      <point x="376" y="509" type="curve" smooth="yes"/>
      <point x="415" y="509"/>
      <point x="455" y="487"/>
      <point x="481" y="450" type="curve" smooth="yes"/>
      <point x="492" y="434"/>
      <point x="498" y="424"/>
      <point x="516" y="391" type="curve"/>
      <point x="539" y="391" type="line"/>
    </contour>
    <contour>
      <point x="378" y="700" type="curve" smooth="yes"/>
      <point x="287" y="700"/>
      <point x="197" y="663"/>
      <point x="127" y="597" type="curve" smooth="yes"/>
      <point x="60" y="535"/>
      <point x="24" y="448"/>
      <point x="24" y="352" type="curve" smooth="yes"/>
      <point x="24" y="157"/>
      <point x="180" y="0"/>
      <point x="374" y="0" type="curve" smooth="yes"/>
      <point x="568" y="0"/>
      <point x="724" y="157"/>
      <point x="724" y="353" type="curve" smooth="yes"/>
      <point x="724" y="448"/>
      <point x="688" y="533"/>
      <point x="621" y="597" type="curve" smooth="yes"/>
      <point x="556" y="660"/>
      <point x="461" y="700"/>
    </contour>
    <contour>
      <point x="377" y="660" type="curve" smooth="yes"/>
      <point x="450" y="660"/>
      <point x="532" y="625"/>
      <point x="591" y="569" type="curve" smooth="yes"/>
      <point x="649" y="515"/>
      <point x="681" y="437"/>
      <point x="681" y="353" type="curve" smooth="yes"/>
      <point x="681" y="179"/>
      <point x="544" y="40"/>
      <point x="374" y="40" type="curve" smooth="yes"/>
      <point x="204" y="40"/>
      <point x="67" y="179"/>
      <point x="67" y="352" type="curve" smooth="yes"/>
      <point x="67" y="437"/>
      <point x="98" y="512"/>
      <point x="157" y="569" type="curve" smooth="yes"/>
      <point x="217" y="627"/>
      <point x="297" y="660"/>
    </contour>
  </outline>
</glyph>
<glyph name="ordfeminine" format="1">
  <advance width="420"/>
  <unicode hex="00AA"/>
  <outline>
    <contour>
      <point x="374" y="429" type="line"/>
      <point x="365" y="422"/>
      <point x="354" y="418"/>
      <point x="344" y="418" type="curve" smooth="yes"/>
      <point x="325" y="418"/>
      <point x="319" y="431"/>
      <point x="319" y="468" type="curve" smooth="yes"/>
      <point x="319" y="599" type="line" smooth="yes"/>
      <point x="319" y="628"/>
      <point x="312" y="645"/>
      <point x="294" y="658" type="curve" smooth="yes"/>
      <point x="273" y="674"/>
      <point x="233" y="685"/>
      <point x="195" y="685" type="curve" smooth="yes"/>
      <point x="131" y="685"/>
      <point x="69" y="649"/>
      <point x="69" y="612" type="curve" smooth="yes"/>
      <point x="69" y="595"/>
      <point x="85" y="580"/>
      <point x="103" y="580" type="curve" smooth="yes"/>
      <point x="124" y="580"/>
      <point x="139" y="595"/>
      <point x="139" y="618" type="curve" smooth="yes"/>
      <point x="139" y="625" type="line" smooth="yes"/>
      <point x="139" y="634"/>
      <point x="139" y="636"/>
      <point x="143" y="639" type="curve" smooth="yes"/>
      <point x="154" y="648"/>
      <point x="168" y="653"/>
      <point x="186" y="653" type="curve" smooth="yes"/>
      <point x="226" y="653"/>
      <point x="251" y="636"/>
      <point x="251" y="609" type="curve" smooth="yes"/>
      <point x="251" y="564" type="line"/>
      <point x="165" y="552"/>
      <point x="135" y="546"/>
      <point x="101" y="530" type="curve" smooth="yes"/>
      <point x="68" y="515"/>
      <point x="49" y="489"/>
      <point x="49" y="459" type="curve" smooth="yes"/>
      <point x="49" y="412"/>
      <point x="89" y="380"/>
      <point x="147" y="380" type="curve" smooth="yes"/>
      <point x="186" y="380"/>
      <point x="216" y="391"/>
      <point x="254" y="420" type="curve"/>
      <point x="266" y="394"/>
      <point x="291" y="381"/>
      <point x="330" y="381" type="curve" smooth="yes"/>
      <point x="356" y="381"/>
      <point x="371" y="387"/>
      <point x="393" y="405" type="curve"/>
    </contour>
    <contour>
      <point x="251" y="457" type="line"/>
      <point x="219" y="429"/>
      <point x="195" y="417"/>
      <point x="169" y="417" type="curve" smooth="yes"/>
      <point x="140" y="417"/>
      <point x="119" y="436"/>
      <point x="119" y="463" type="curve" smooth="yes"/>
      <point x="119" y="499"/>
      <point x="155" y="518"/>
      <point x="251" y="533" type="curve"/>
    </contour>
    <contour>
      <point x="368" y="328" type="line"/>
      <point x="63" y="328" type="line"/>
      <point x="63" y="288" type="line"/>
      <point x="368" y="288" type="line"/>
    </contour>
  </outline>
</glyph>
<glyph name="guillemotleft" format="1">
  <advance width="360"/>
  <unicode hex="00AB"/>
  <outline>
    <contour>
      <point x="301" y="107" type="line"/>
      <point x="250" y="265" type="line"/>
      <point x="312" y="420" type="line"/>
      <point x="282" y="437" type="line"/>
      <point x="174" y="265" type="line"/>
      <point x="271" y="89" type="line"/>
    </contour>
    <contour>
      <point x="179" y="107" type="line"/>
      <point x="127" y="265" type="line"/>
      <point x="189" y="420" type="line"/>
      <point x="160" y="437" type="line"/>
      <point x="51" y="265" type="line"/>
      <point x="149" y="89" type="line"/>
    </contour>
  </outline>
</glyph>
<glyph name="logicalnot" format="1">
  <advance width="600"/>
  <unicode hex="00AC"/>
  <outline>
    <contour>
      <point x="51" y="370" type="line"/>
      <point x="51" y="292" type="line"/>
      <point x="480" y="292" type="line"/>
      <point x="480" y="80" type="line"/>
      <point x="555" y="80" type="line"/>
      <point x="555" y="370" type="line"/>
    </contour>
  </outline>
</glyph>
<glyph name="registered" format="1">
  <advance width="740"/>
  <unicode hex="00AE"/>
  <outline>
    <contour>
      <point x="450" y="360" type="line"/>
      <point x="514" y="371"/>
      <point x="550" y="407"/>
      <point x="550" y="461" type="curve" smooth="yes"/>
      <point x="550" y="521"/>
      <point x="501" y="558"/>
      <point x="420" y="558" type="curve" smooth="yes"/>
      <point x="192" y="558" type="line"/>
      <point x="192" y="535" type="line"/>
      <point x="208" y="533" type="line" smooth="yes"/>
      <point x="236" y="530"/>
      <point x="242" y="519"/>
      <point x="242" y="476" type="curve" smooth="yes"/>
      <point x="242" y="260" type="line" smooth="yes"/>
      <point x="242" y="217"/>
      <point x="236" y="206"/>
      <point x="208" y="203" type="curve" smooth="yes"/>
      <point x="192" y="201" type="line"/>
      <point x="192" y="178" type="line"/>
      <point x="359" y="178" type="line"/>
      <point x="359" y="201" type="line"/>
      <point x="337" y="203" type="line" smooth="yes"/>
      <point x="311" y="205"/>
      <point x="304" y="218"/>
      <point x="304" y="260" type="curve" smooth="yes"/>
      <point x="304" y="354" type="line"/>
      <point x="378" y="354" type="line"/>
      <point x="502" y="178" type="line"/>
      <point x="598" y="178" type="line"/>
      <point x="598" y="200" type="line"/>
      <point x="569" y="206"/>
      <point x="556" y="213"/>
      <point x="539" y="235" type="curve" smooth="yes"/>
    </contour>
    <contour>
      <point x="304" y="384" type="line"/>
      <point x="304" y="500" type="line" smooth="yes"/>
      <point x="304" y="521"/>
      <point x="325" y="529"/>
      <point x="382" y="529" type="curve" smooth="yes"/>
      <point x="453" y="529"/>
      <point x="487" y="506"/>
      <point x="487" y="458" type="curve" smooth="yes"/>
      <point x="487" y="410"/>
      <point x="453" y="384"/>
      <point x="393" y="384" type="curve" smooth="yes"/>
    </contour>
    <contour>
      <point x="377" y="700" type="curve" smooth="yes"/>
      <point x="286" y="700"/>
      <point x="196" y="663"/>
      <point x="126" y="597" type="curve" smooth="yes"/>
      <point x="59" y="535"/>
      <point x="23" y="448"/>
      <point x="23" y="352" type="curve" smooth="yes"/>
      <point x="23" y="157"/>
      <point x="179" y="0"/>
      <point x="373" y="0" type="curve" smooth="yes"/>
      <point x="567" y="0"/>
      <point x="723" y="157"/>
      <point x="723" y="353" type="curve" smooth="yes"/>
      <point x="723" y="448"/>
      <point x="687" y="533"/>
      <point x="620" y="597" type="curve" smooth="yes"/>
      <point x="555" y="660"/>
      <point x="460" y="700"/>
    </contour>
    <contour>
      <point x="376" y="660" type="curve" smooth="yes"/>
      <point x="449" y="660"/>
      <point x="531" y="625"/>
      <point x="590" y="569" type="curve" smooth="yes"/>
      <point x="648" y="515"/>
      <point x="680" y="437"/>
      <point x="680" y="353" type="curve" smooth="yes"/>
      <point x="680" y="179"/>
      <point x="543" y="40"/>
      <point x="373" y="40" type="curve" smooth="yes"/>
      <point x="203" y="40"/>
      <point x="66" y="179"/>
      <point x="66" y="352" type="curve" smooth="yes"/>
      <point x="66" y="437"/>
      <point x="97" y="512"/>
      <point x="156" y="569" type="curve" smooth="yes"/>
      <point x="216" y="627"/>
      <point x="296" y="660"/>
    </contour>
  </outline>
</glyph>
<glyph name="macron" format="1">
  <advance width="440"/>
  <unicode hex="00AF"/>
  <outline>
    <contour>
      <point x="364" y="637" type="line"/>
      <point x="68" y="637" type="line"/>
      <point x="68" y="587" type="line"/>
      <point x="364" y="587" type="line"/>
    </contour>
  </outline>
</glyph>
<glyph name="plusminus" format="1">
  <advance width="600"/>
  <unicode hex="00B1"/>
  <outline>
    <contour>
      <point x="555" y="392" type="line"/>
      <point x="342" y="392" type="line"/>
      <point x="342" y="595" type="line"/>
      <point x="264" y="595" type="line"/>
      <point x="264" y="392" type="line"/>
      <point x="51" y="392" type="line"/>
      <point x="51" y="314" type="line"/>
      <point x="264" y="314" type="line"/>
      <point x="264" y="127" type="line"/>
      <point x="342" y="127" type="line"/>
      <point x="342" y="314" type="line"/>
      <point x="555" y="314" type="line"/>
    </contour>
    <contour>
      <point x="555" y="78" type="line"/>
      <point x="51" y="78" type="line"/>
      <point x="51" y="0" type="line"/>
      <point x="555" y="0" type="line"/>
    </contour>
  </outline>
</glyph>
<glyph name="acute" format="1">
  <advance width="340"/>
  <unicode hex="00B4"/>
  <outline>
    <contour>
      <point x="73" y="564" type="line"/>
      <point x="212" y="593" type="line" smooth="yes"/>
      <point x="255" y="602"/>
      <point x="274" y="617"/>
      <point x="274" y="643" type="curve" smooth="yes"/>
      <point x="274" y="664"/>
      <point x="259" y="680"/>
      <point x="239" y="680" type="curve" smooth="yes"/>
      <point x="219" y="680"/>
      <point x="192" y="668"/>
      <point x="163" y="646" type="curve" smooth="yes"/>
      <point x="68" y="578" type="line"/>
    </contour>
  </outline>
</glyph>
<glyph name="paragraph" format="1">
  <advance width="600"/>
  <unicode hex="00B6"/>
  <outline>
    <contour>
      <point x="268" y="297" type="line"/>
      <point x="268" y="129" type="line" smooth="yes"/>
      <point x="268" y="57"/>
      <point x="254" y="41"/>
      <point x="187" y="34" type="curve" smooth="yes"/>
      <point x="168" y="32" type="line"/>
      <point x="168" y="0" type="line"/>
      <point x="577" y="0" type="line"/>
      <point x="577" y="32" type="line"/>
      <point x="556" y="34" type="line" smooth="yes"/>
      <point x="504" y="39"/>
      <point x="488" y="62"/>
      <point x="488" y="129" type="curve" smooth="yes"/>
      <point x="488" y="544" type="line" smooth="yes"/>
      <point x="488" y="624"/>
      <point x="499" y="640"/>
      <point x="556" y="646" type="curve" smooth="yes"/>
      <point x="577" y="648" type="line"/>
      <point x="577" y="681" type="line"/>
      <point x="274" y="681" type="line" smooth="yes"/>
      <point x="199" y="681"/>
      <point x="161" y="674"/>
      <point x="116" y="653" type="curve" smooth="yes"/>
      <point x="53" y="622"/>
      <point x="14" y="560"/>
      <point x="14" y="489" type="curve" smooth="yes"/>
      <point x="14" y="427"/>
      <point x="47" y="365"/>
      <point x="97" y="333" type="curve" smooth="yes"/>
      <point x="137" y="308"/>
      <point x="184" y="297"/>
      <point x="252" y="297" type="curve" smooth="yes"/>
    </contour>
    <contour>
      <point x="417" y="648" type="line"/>
      <point x="417" y="33" type="line"/>
      <point x="342" y="33" type="line"/>
      <point x="342" y="648" type="line"/>
    </contour>
    <contour>
      <point x="268" y="327" type="line"/>
      <point x="175" y="333"/>
      <point x="114" y="399"/>
      <point x="114" y="494" type="curve" smooth="yes"/>
      <point x="114" y="590"/>
      <point x="171" y="647"/>
      <point x="268" y="648" type="curve"/>
    </contour>
  </outline>
</glyph>
<glyph name="periodcentered" format="1">
  <advance width="320"/>
  <unicode hex="00B7"/>
  <outline>
    <contour>
      <point x="158" y="326" type="curve" smooth="yes"/>
      <point x="121" y="326"/>
      <point x="92" y="297"/>
      <point x="92" y="262" type="curve" smooth="yes"/>
      <point x="92" y="225"/>
      <point x="121" y="196"/>
      <point x="157" y="196" type="curve" smooth="yes"/>
      <point x="193" y="196"/>
      <point x="222" y="225"/>
      <point x="222" y="261" type="curve" smooth="yes"/>
      <point x="222" y="296"/>
      <point x="193" y="326"/>
    </contour>
  </outline>
</glyph>
<glyph name="cedilla" format="1">
  <advance width="320"/>
  <unicode hex="00B8"/>
  <outline>
    <contour>
      <point x="158" y="0" type="line"/>
      <point x="127" y="0" type="line"/>
      <point x="102" y="-78" type="line"/>
      <point x="123" y="-71"/>
      <point x="136" y="-68"/>
      <point x="149" y="-68" type="curve" smooth="yes"/>
      <point x="188" y="-68"/>
      <point x="209" y="-86"/>
      <point x="209" y="-119" type="curve" smooth="yes"/>
      <point x="209" y="-150"/>
      <point x="189" y="-173"/>
      <point x="163" y="-173" type="curve" smooth="yes"/>
      <point x="143" y="-173"/>
      <point x="134" y="-166"/>
      <point x="124" y="-143" type="curve" smooth="yes"/>
      <point x="117" y="-125"/>
      <point x="109" y="-119"/>
      <point x="93" y="-119" type="curve" smooth="yes"/>
      <point x="79" y="-119"/>
      <point x="68" y="-130"/>
      <point x="68" y="-144" type="curve" smooth="yes"/>
      <point x="68" y="-174"/>
      <point x="113" y="-200"/>
      <point x="165" y="-200" type="curve" smooth="yes"/>
      <point x="220" y="-200"/>
      <point x="257" y="-166"/>
      <point x="257" y="-115" type="curve" smooth="yes"/>
      <point x="257" y="-69"/>
      <point x="223" y="-41"/>
      <point x="169" y="-41" type="curve" smooth="yes"/>
      <point x="167" y="-41"/>
      <point x="163" y="-41"/>
      <point x="157" y="-42" type="curve"/>
      <point x="155" y="-42"/>
      <point x="150" y="-42"/>
      <point x="145" y="-43" type="curve"/>
    </contour>
  </outline>
</glyph>
<glyph name="ordmasculine" format="1">
  <advance width="420"/>
  <unicode hex="00BA"/>
  <outline>
    <contour>
      <point x="207" y="685" type="curve" smooth="yes"/>
      <point x="116" y="685"/>
      <point x="56" y="624"/>
      <point x="56" y="534" type="curve" smooth="yes"/>
      <point x="56" y="440"/>
      <point x="116" y="380"/>
      <point x="209" y="380" type="curve" smooth="yes"/>
      <point x="299" y="380"/>
      <point x="360" y="441"/>
      <point x="360" y="532" type="curve" smooth="yes"/>
      <point x="360" y="624"/>
      <point x="299" y="685"/>
    </contour>
    <contour>
      <point x="208" y="653" type="curve" smooth="yes"/>
      <point x="260" y="653"/>
      <point x="290" y="608"/>
      <point x="290" y="530" type="curve" smooth="yes"/>
      <point x="290" y="454"/>
      <point x="261" y="412"/>
      <point x="209" y="412" type="curve" smooth="yes"/>
      <point x="156" y="412"/>
      <point x="126" y="455"/>
      <point x="126" y="535" type="curve" smooth="yes"/>
      <point x="126" y="608"/>
      <point x="157" y="653"/>
    </contour>
    <contour>
      <point x="361" y="328" type="line"/>
      <point x="56" y="328" type="line"/>
      <point x="56" y="288" type="line"/>
      <point x="361" y="288" type="line"/>
    </contour>
  </outline>
</glyph>
<glyph name="guillemotright" format="1">
  <advance width="360"/>
  <unicode hex="00BB"/>
  <outline>
    <contour>
      <point x="61" y="419" type="line"/>
      <point x="113" y="261" type="line"/>
      <point x="51" y="106" type="line"/>
      <point x="81" y="89" type="line"/>
      <point x="189" y="261" type="line"/>
      <point x="92" y="437" type="line"/>
    </contour>
    <contour>
      <point x="184" y="419" type="line"/>
      <point x="236" y="261" type="line"/>
      <point x="174" y="106" type="line"/>
      <point x="203" y="89" type="line"/>
      <point x="312" y="261" type="line"/>
      <point x="214" y="437" type="line"/>
    </contour>
  </outline>
</glyph>
<glyph name="onequarter" format="1">
  <advance width="930"/>
  <unicode hex="00BC"/>
  <outline>
    <contour>
      <point x="225" y="681" type="line"/>
      <point x="200" y="681" type="line"/>
      <point x="159" y="672"/>
      <point x="146" y="670"/>
      <point x="82" y="663" type="curve"/>
      <point x="82" y="637" type="line"/>
      <point x="111" y="636" type="line" smooth="yes"/>
      <point x="153" y="634"/>
      <point x="158" y="629"/>
      <point x="158" y="585" type="curve" smooth="yes"/>
      <point x="158" y="361" type="line" smooth="yes"/>
      <point x="158" y="330"/>
      <point x="157" y="321"/>
      <point x="151" y="316" type="curve"/>
      <point x="143" y="308"/>
      <point x="119" y="300"/>
      <point x="106" y="300" type="curve" smooth="yes"/>
      <point x="80" y="300" type="line"/>
      <point x="80" y="273" type="line"/>
      <point x="302" y="273" type="line"/>
      <point x="302" y="300" type="line"/>
      <point x="277" y="300" type="line" smooth="yes"/>
      <point x="266" y="300"/>
      <point x="244" y="305"/>
      <point x="238" y="310" type="curve"/>
      <point x="228" y="317"/>
      <point x="225" y="328"/>
      <point x="225" y="359" type="curve" smooth="yes"/>
    </contour>
    <contour>
      <point x="723" y="681" type="line"/>
      <point x="664" y="681" type="line"/>
      <point x="200" y="0" type="line"/>
      <point x="258" y="0" type="line"/>
    </contour>
    <contour>
      <point x="774" y="408" type="line"/>
      <point x="709" y="408" type="line"/>
      <point x="701" y="398"/>
      <point x="666" y="350"/>
      <point x="602" y="263" type="curve" smooth="yes"/>
      <point x="503" y="139" type="line"/>
      <point x="515" y="109" type="line"/>
      <point x="707" y="109" type="line"/>
      <point x="707" y="88" type="line" smooth="yes"/>
      <point x="707" y="41"/>
      <point x="700" y="28"/>
      <point x="671" y="27" type="curve" smooth="yes"/>
      <point x="647" y="26" type="line"/>
      <point x="647" y="0" type="line"/>
      <point x="834" y="0" type="line"/>
      <point x="834" y="26" type="line"/>
      <point x="810" y="27" type="line" smooth="yes"/>
      <point x="782" y="28"/>
      <point x="774" y="41"/>
      <point x="774" y="88" type="curve" smooth="yes"/>
      <point x="774" y="109" type="line"/>
      <point x="852" y="109" type="line"/>
      <point x="869" y="152" type="line"/>
      <point x="774" y="152" type="line"/>
    </contour>
    <contour>
      <point x="707" y="152" type="line"/>
      <point x="560" y="152" type="line"/>
      <point x="629" y="240" type="line" smooth="yes"/>
      <point x="643" y="257"/>
      <point x="673" y="296"/>
      <point x="707" y="342" type="curve"/>
    </contour>
  </outline>
</glyph>
<glyph name="onehalf" format="1">
  <advance width="930"/>
  <unicode hex="00BD"/>
  <outline>
    <contour>
      <point x="225" y="681" type="line"/>
      <point x="200" y="681" type="line"/>
      <point x="159" y="672"/>
      <point x="146" y="670"/>
      <point x="82" y="663" type="curve"/>
      <point x="82" y="637" type="line"/>
      <point x="111" y="636" type="line" smooth="yes"/>
      <point x="153" y="634"/>
      <point x="158" y="629"/>
      <point x="158" y="585" type="curve" smooth="yes"/>
      <point x="158" y="361" type="line" smooth="yes"/>
      <point x="158" y="330"/>
      <point x="157" y="321"/>
      <point x="151" y="316" type="curve"/>
      <point x="143" y="308"/>
      <point x="119" y="300"/>
      <point x="106" y="300" type="curve" smooth="yes"/>
      <point x="80" y="300" type="line"/>
      <point x="80" y="273" type="line"/>
      <point x="302" y="273" type="line"/>
      <point x="302" y="300" type="line"/>
      <point x="277" y="300" type="line" smooth="yes"/>
      <point x="266" y="300"/>
      <point x="244" y="305"/>
      <point x="238" y="310" type="curve"/>
      <point x="228" y="317"/>
      <point x="225" y="328"/>
      <point x="225" y="359" type="curve" smooth="yes"/>
    </contour>
    <contour>
      <point x="704" y="681" type="line"/>
      <point x="645" y="681" type="line"/>
      <point x="181" y="0" type="line"/>
      <point x="239" y="0" type="line"/>
    </contour>
    <contour>
      <point x="885" y="117" type="line"/>
      <point x="854" y="124" type="line"/>
      <point x="846" y="107" type="line" smooth="yes"/>
      <point x="826" y="63"/>
      <point x="814" y="56"/>
      <point x="759" y="56" type="curve" smooth="yes"/>
      <point x="626" y="56" type="line"/>
      <point x="693" y="97"/>
      <point x="712" y="109"/>
      <point x="741" y="132" type="curve" smooth="yes"/>
      <point x="815" y="191"/>
      <point x="851" y="245"/>
      <point x="851" y="297" type="curve" smooth="yes"/>
      <point x="851" y="366"/>
      <point x="786" y="416"/>
      <point x="695" y="416" type="curve" smooth="yes"/>
      <point x="611" y="416"/>
      <point x="540" y="364"/>
      <point x="540" y="302" type="curve" smooth="yes"/>
      <point x="540" y="271"/>
      <point x="560" y="248"/>
      <point x="586" y="248" type="curve" smooth="yes"/>
      <point x="607" y="248"/>
      <point x="626" y="265"/>
      <point x="626" y="283" type="curve" smooth="yes"/>
      <point x="626" y="290"/>
      <point x="622" y="299"/>
      <point x="616" y="305" type="curve" smooth="yes"/>
      <point x="605" y="317"/>
      <point x="603" y="321"/>
      <point x="603" y="329" type="curve" smooth="yes"/>
      <point x="603" y="355"/>
      <point x="644" y="379"/>
      <point x="687" y="379" type="curve" smooth="yes"/>
      <point x="737" y="379"/>
      <point x="769" y="349"/>
      <point x="769" y="304" type="curve" smooth="yes"/>
      <point x="769" y="252"/>
      <point x="729" y="189"/>
      <point x="657" y="128" type="curve" smooth="yes"/>
      <point x="623" y="99"/>
      <point x="608" y="88"/>
      <point x="538" y="48" type="curve"/>
      <point x="538" y="0" type="line"/>
      <point x="853" y="0" type="line"/>
    </contour>
  </outline>
</glyph>
<glyph name="threequarters" format="1">
  <advance width="930"/>
  <unicode hex="00BE"/>
  <outline>
    <contour>
      <point x="287" y="499" type="line"/>
      <point x="343" y="514"/>
      <point x="375" y="547"/>
      <point x="375" y="589" type="curve" smooth="yes"/>
      <point x="375" y="647"/>
      <point x="310" y="689"/>
      <point x="223" y="689" type="curve" smooth="yes"/>
      <point x="143" y="689"/>
      <point x="79" y="645"/>
      <point x="79" y="590" type="curve" smooth="yes"/>
      <point x="79" y="566"/>
      <point x="96" y="548"/>
      <point x="119" y="548" type="curve" smooth="yes"/>
      <point x="140" y="548"/>
      <point x="157" y="562"/>
      <point x="157" y="580" type="curve" smooth="yes"/>
      <point x="157" y="584"/>
      <point x="156" y="590"/>
      <point x="154" y="595" type="curve"/>
      <point x="149" y="610"/>
      <point x="149" y="610"/>
      <point x="149" y="613" type="curve" smooth="yes"/>
      <point x="149" y="635"/>
      <point x="181" y="652"/>
      <point x="221" y="652" type="curve" smooth="yes"/>
      <point x="269" y="652"/>
      <point x="300" y="625"/>
      <point x="300" y="584" type="curve" smooth="yes"/>
      <point x="300" y="540"/>
      <point x="263" y="512"/>
      <point x="204" y="512" type="curve" smooth="yes"/>
      <point x="198" y="512"/>
      <point x="179" y="513"/>
      <point x="168" y="514" type="curve"/>
      <point x="168" y="478" type="line"/>
      <point x="208" y="481"/>
      <point x="208" y="481"/>
      <point x="214" y="481" type="curve" smooth="yes"/>
      <point x="280" y="481"/>
      <point x="318" y="448"/>
      <point x="318" y="392" type="curve" smooth="yes"/>
      <point x="318" y="335"/>
      <point x="279" y="302"/>
      <point x="213" y="302" type="curve" smooth="yes"/>
      <point x="166" y="302"/>
      <point x="127" y="320"/>
      <point x="127" y="342" type="curve" smooth="yes"/>
      <point x="127" y="343"/>
      <point x="127" y="345"/>
      <point x="128" y="347" type="curve"/>
      <point x="133" y="361"/>
      <point x="133" y="361"/>
      <point x="133" y="368" type="curve" smooth="yes"/>
      <point x="133" y="389"/>
      <point x="116" y="404"/>
      <point x="94" y="404" type="curve" smooth="yes"/>
      <point x="71" y="404"/>
      <point x="52" y="384"/>
      <point x="52" y="359" type="curve" smooth="yes"/>
      <point x="52" y="306"/>
      <point x="123" y="265"/>
      <point x="215" y="265" type="curve" smooth="yes"/>
      <point x="322" y="265"/>
      <point x="400" y="318"/>
      <point x="400" y="392" type="curve" smooth="yes"/>
      <point x="400" y="442"/>
      <point x="362" y="482"/>
      <point x="300" y="496" type="curve" smooth="yes"/>
    </contour>
    <contour>
      <point x="769" y="681" type="line"/>
      <point x="710" y="681" type="line"/>
      <point x="246" y="0" type="line"/>
      <point x="304" y="0" type="line"/>
    </contour>
    <contour>
      <point x="794" y="408" type="line"/>
      <point x="729" y="408" type="line"/>
      <point x="721" y="398"/>
      <point x="686" y="350"/>
      <point x="622" y="263" type="curve" smooth="yes"/>
      <point x="523" y="139" type="line"/>
      <point x="535" y="109" type="line"/>
      <point x="727" y="109" type="line"/>
      <point x="727" y="88" type="line" smooth="yes"/>
      <point x="727" y="41"/>
      <point x="720" y="28"/>
      <point x="691" y="27" type="curve" smooth="yes"/>
      <point x="667" y="26" type="line"/>
      <point x="667" y="0" type="line"/>
      <point x="854" y="0" type="line"/>
      <point x="854" y="26" type="line"/>
      <point x="830" y="27" type="line" smooth="yes"/>
      <point x="802" y="28"/>
      <point x="794" y="41"/>
      <point x="794" y="88" type="curve" smooth="yes"/>
      <point x="794" y="109" type="line"/>
      <point x="872" y="109" type="line"/>
      <point x="889" y="152" type="line"/>
      <point x="794" y="152" type="line"/>
    </contour>
    <contour>
      <point x="727" y="152" type="line"/>
      <point x="580" y="152" type="line"/>
      <point x="585" y="158" type="line"/>
      <point x="611" y="191" type="line"/>
      <point x="727" y="342" type="line"/>
    </contour>
  </outline>
</glyph>
<glyph name="questiondown" format="1">
  <advance width="540"/>
  <unicode hex="00BF"/>
  <outline>
    <contour>
      <point x="302" y="494" type="curve" smooth="yes"/>
      <point x="267" y="494"/>
      <point x="238" y="465"/>
      <point x="238" y="429" type="curve" smooth="yes"/>
      <point x="238" y="395"/>
      <point x="267" y="365"/>
      <point x="301" y="365" type="curve" smooth="yes"/>
      <point x="338" y="365"/>
      <point x="367" y="394"/>
      <point x="367" y="429" type="curve" smooth="yes"/>
      <point x="367" y="465"/>
      <point x="338" y="494"/>
    </contour>
    <contour>
      <point x="279" y="307" type="line"/>
      <point x="280" y="217"/>
      <point x="259" y="183"/>
      <point x="191" y="157" type="curve" smooth="yes"/>
      <point x="158" y="145" type="line" smooth="yes"/>
      <point x="112" y="129"/>
      <point x="82" y="109"/>
      <point x="61" y="84" type="curve"/>
      <point x="37" y="52"/>
      <point x="23" y="12"/>
      <point x="23" y="-27" type="curve" smooth="yes"/>
      <point x="23" y="-86"/>
      <point x="53" y="-141"/>
      <point x="102" y="-170" type="curve" smooth="yes"/>
      <point x="147" y="-197"/>
      <point x="206" y="-213"/>
      <point x="263" y="-213" type="curve" smooth="yes"/>
      <point x="329" y="-213"/>
      <point x="401" y="-192"/>
      <point x="441" y="-161" type="curve" smooth="yes"/>
      <point x="484" y="-127"/>
      <point x="510" y="-83"/>
      <point x="510" y="-43" type="curve" smooth="yes"/>
      <point x="510" y="-1"/>
      <point x="484" y="30"/>
      <point x="448" y="30" type="curve" smooth="yes"/>
      <point x="419" y="30"/>
      <point x="394" y="7"/>
      <point x="394" y="-18" type="curve" smooth="yes"/>
      <point x="394" y="-28"/>
      <point x="396" y="-34"/>
      <point x="406" y="-55" type="curve" smooth="yes"/>
      <point x="413" y="-68"/>
      <point x="415" y="-76"/>
      <point x="415" y="-87" type="curve" smooth="yes"/>
      <point x="415" y="-135"/>
      <point x="352" y="-173"/>
      <point x="273" y="-173" type="curve" smooth="yes"/>
      <point x="182" y="-173"/>
      <point x="131" y="-123"/>
      <point x="131" y="-36" type="curve" smooth="yes"/>
      <point x="131" y="19"/>
      <point x="155" y="64"/>
      <point x="200" y="95" type="curve" smooth="yes"/>
      <point x="257" y="134" type="line" smooth="yes"/>
      <point x="311" y="170"/>
      <point x="326" y="199"/>
      <point x="326" y="263" type="curve" smooth="yes"/>
      <point x="326" y="276"/>
      <point x="325" y="287"/>
      <point x="324" y="307" type="curve"/>
    </contour>
  </outline>
</glyph>
<glyph name="Aacute" format="1">
  <advance width="680"/>
  <unicode hex="00C1"/>
  <outline>
    <contour>
      <point x="389" y="681" type="line"/>
      <point x="296" y="681" type="line"/>
      <point x="124" y="240" type="line" smooth="yes"/>
      <point x="57" y="69"/>
      <point x="41" y="46"/>
      <point x="-26" y="33" type="curve" smooth="yes"/>
      <point x="-37" y="31" type="line"/>
      <point x="-37" y="0" type="line"/>
      <point x="231" y="0" type="line"/>
      <point x="231" y="31" type="line"/>
      <point x="195" y="36"/>
      <point x="178" y="40"/>
      <point x="167" y="47" type="curve" smooth="yes"/>
      <point x="152" y="57"/>
      <point x="142" y="75"/>
      <point x="142" y="93" type="curve" smooth="yes"/>
      <point x="142" y="108"/>
      <point x="149" y="136"/>
      <point x="161" y="167" type="curve" smooth="yes"/>
      <point x="193" y="253" type="line"/>
      <point x="451" y="253" type="line"/>
      <point x="501" y="124" type="line" smooth="yes"/>
      <point x="507" y="107"/>
      <point x="512" y="89"/>
      <point x="512" y="81" type="curve" smooth="yes"/>
      <point x="512" y="67"/>
      <point x="504" y="54"/>
      <point x="491" y="46" type="curve"/>
      <point x="482" y="39"/>
      <point x="468" y="36"/>
      <point x="433" y="31" type="curve"/>
      <point x="433" y="0" type="line"/>
      <point x="714" y="0" type="line"/>
      <point x="714" y="31" type="line"/>
      <point x="649" y="41"/>
      <point x="637" y="52"/>
      <point x="601" y="145" type="curve" smooth="yes"/>
    </contour>
    <contour>
      <point x="208" y="296" type="line"/>
      <point x="319" y="596" type="line"/>
      <point x="433" y="296" type="line"/>
    </contour>
    <contour>
      <point x="290" y="753" type="line"/>
      <point x="429" y="782" type="line" smooth="yes"/>
      <point x="472" y="791"/>
      <point x="491" y="806"/>
      <point x="491" y="832" type="curve" smooth="yes"/>
      <point x="491" y="853"/>
      <point x="476" y="869"/>
      <point x="456" y="869" type="curve" smooth="yes"/>
      <point x="436" y="869"/>
      <point x="409" y="857"/>
      <point x="380" y="835" type="curve" smooth="yes"/>
      <point x="285" y="767" type="line"/>
    </contour>
  </outline>
</glyph>
<glyph name="Atilde" format="1">
  <advance width="680"/>
  <unicode hex="00C3"/>
  <outline>
    <contour>
      <point x="389" y="681" type="line"/>
      <point x="296" y="681" type="line"/>
      <point x="124" y="240" type="line" smooth="yes"/>
      <point x="57" y="69"/>
      <point x="41" y="46"/>
      <point x="-26" y="33" type="curve" smooth="yes"/>
      <point x="-37" y="31" type="line"/>
      <point x="-37" y="0" type="line"/>
      <point x="231" y="0" type="line"/>
      <point x="231" y="31" type="line"/>
      <point x="195" y="36"/>
      <point x="178" y="40"/>
      <point x="167" y="47" type="curve" smooth="yes"/>
      <point x="152" y="57"/>
      <point x="142" y="75"/>
      <point x="142" y="93" type="curve" smooth="yes"/>
      <point x="142" y="108"/>
      <point x="149" y="136"/>
      <point x="161" y="167" type="curve" smooth="yes"/>
      <point x="193" y="253" type="line"/>
      <point x="451" y="253" type="line"/>
      <point x="501" y="124" type="line" smooth="yes"/>
      <point x="507" y="107"/>
      <point x="512" y="89"/>
      <point x="512" y="81" type="curve" smooth="yes"/>
      <point x="512" y="67"/>
      <point x="504" y="54"/>
      <point x="491" y="46" type="curve"/>
      <point x="482" y="39"/>
      <point x="468" y="36"/>
      <point x="433" y="31" type="curve"/>
      <point x="433" y="0" type="line"/>
      <point x="714" y="0" type="line"/>
      <point x="714" y="31" type="line"/>
      <point x="649" y="41"/>
      <point x="637" y="52"/>
      <point x="601" y="145" type="curve" smooth="yes"/>
    </contour>
    <contour>
      <point x="208" y="296" type="line"/>
      <point x="319" y="596" type="line"/>
      <point x="433" y="296" type="line"/>
    </contour>
    <contour>
      <point x="473" y="847" type="line"/>
      <point x="462" y="833"/>
      <point x="445" y="825"/>
      <point x="425" y="825" type="curve" smooth="yes"/>
      <point x="412" y="825"/>
      <point x="400" y="827"/>
      <point x="376" y="834" type="curve" smooth="yes"/>
      <point x="325" y="848"/>
      <point x="304" y="852"/>
      <point x="281" y="852" type="curve" smooth="yes"/>
      <point x="242" y="852"/>
      <point x="208" y="825"/>
      <point x="195" y="784" type="curve"/>
      <point x="224" y="774" type="line"/>
      <point x="237" y="789"/>
      <point x="248" y="794"/>
      <point x="263" y="794" type="curve" smooth="yes"/>
      <point x="277" y="794"/>
      <point x="286" y="792"/>
      <point x="317" y="784" type="curve" smooth="yes"/>
      <point x="366" y="770"/>
      <point x="388" y="766"/>
      <point x="412" y="766" type="curve" smooth="yes"/>
      <point x="460" y="766"/>
      <point x="487" y="788"/>
      <point x="502" y="838" type="curve"/>
    </contour>
  </outline>
</glyph>
<glyph name="Aring" format="1">
  <advance width="680"/>
  <unicode hex="00C5"/>
  <outline>
    <contour>
      <point x="389" y="681" type="line"/>
      <point x="296" y="681" type="line"/>
      <point x="124" y="240" type="line" smooth="yes"/>
      <point x="57" y="69"/>
      <point x="41" y="46"/>
      <point x="-26" y="33" type="curve" smooth="yes"/>
      <point x="-37" y="31" type="line"/>
      <point x="-37" y="0" type="line"/>
      <point x="231" y="0" type="line"/>
      <point x="231" y="31" type="line"/>
      <point x="195" y="36"/>
      <point x="178" y="40"/>
      <point x="167" y="47" type="curve" smooth="yes"/>
      <point x="152" y="57"/>
      <point x="142" y="75"/>
      <point x="142" y="93" type="curve" smooth="yes"/>
      <point x="142" y="108"/>
      <point x="149" y="136"/>
      <point x="161" y="167" type="curve" smooth="yes"/>
      <point x="193" y="253" type="line"/>
      <point x="451" y="253" type="line"/>
      <point x="501" y="124" type="line" smooth="yes"/>
      <point x="507" y="107"/>
      <point x="512" y="89"/>
      <point x="512" y="81" type="curve" smooth="yes"/>
      <point x="512" y="67"/>
      <point x="504" y="54"/>
      <point x="491" y="46" type="curve"/>
      <point x="482" y="39"/>
      <point x="468" y="36"/>
      <point x="433" y="31" type="curve"/>
      <point x="433" y="0" type="line"/>
      <point x="714" y="0" type="line"/>
      <point x="714" y="31" type="line"/>
      <point x="649" y="41"/>
      <point x="637" y="52"/>
      <point x="601" y="145" type="curve" smooth="yes"/>
    </contour>
    <contour>
      <point x="208" y="296" type="line"/>
      <point x="319" y="596" type="line"/>
      <point x="433" y="296" type="line"/>
    </contour>
    <contour>
      <point x="339" y="922" type="curve" smooth="yes"/>
      <point x="288" y="922"/>
      <point x="246" y="881"/>
      <point x="246" y="830" type="curve" smooth="yes"/>
      <point x="246" y="779"/>
      <point x="287" y="737"/>
      <point x="338" y="737" type="curve" smooth="yes"/>
      <point x="389" y="737"/>
      <point x="430" y="779"/>
      <point x="430" y="830" type="curve" smooth="yes"/>
      <point x="430" y="880"/>
      <point x="389" y="922"/>
    </contour>
    <contour>
      <point x="339" y="885" type="curve" smooth="yes"/>
      <point x="368" y="885"/>
      <point x="393" y="859"/>
      <point x="393" y="830" type="curve" smooth="yes"/>
      <point x="393" y="799"/>
      <point x="368" y="774"/>
      <point x="338" y="774" type="curve" smooth="yes"/>
      <point x="307" y="774"/>
      <point x="283" y="799"/>
      <point x="283" y="830" type="curve" smooth="yes"/>
      <point x="283" y="861"/>
      <point x="308" y="885"/>
    </contour>
  </outline>
</glyph>
<glyph name="AE" format="1">
  <advance width="1260"/>
  <unicode hex="00C6"/>
  <outline>
    <contour>
      <point x="647" y="681" type="line"/>
      <point x="189" y="164" type="line" smooth="yes"/>
      <point x="115" y="79"/>
      <point x="59" y="46"/>
      <point x="-36" y="31" type="curve"/>
      <point x="-36" y="0" type="line"/>
      <point x="298" y="0" type="line"/>
      <point x="298" y="31" type="line"/>
      <point x="233" y="34"/>
      <point x="206" y="47"/>
      <point x="206" y="74" type="curve" smooth="yes"/>
      <point x="206" y="94"/>
      <point x="217" y="113"/>
      <point x="250" y="154" type="curve" smooth="yes"/>
      <point x="413" y="341" type="line"/>
      <point x="662" y="341" type="line"/>
      <point x="662" y="144" type="line" smooth="yes"/>
      <point x="662" y="62"/>
      <point x="649" y="41"/>
      <point x="597" y="34" type="curve" smooth="yes"/>
      <point x="572" y="31" type="line"/>
      <point x="572" y="0" type="line"/>
      <point x="1165" y="0" type="line"/>
      <point x="1250" y="220" type="line"/>
      <point x="1216" y="233" type="line"/>
      <point x="1179" y="180"/>
      <point x="1154" y="151"/>
      <point x="1121" y="122" type="curve" smooth="yes"/>
      <point x="1065" y="73"/>
      <point x="987" y="43"/>
      <point x="913" y="43" type="curve" smooth="yes"/>
      <point x="875" y="43" type="line" smooth="yes"/>
      <point x="837" y="43"/>
      <point x="801" y="50"/>
      <point x="785" y="61" type="curve" smooth="yes"/>
      <point x="768" y="72"/>
      <point x="762" y="88"/>
      <point x="762" y="119" type="curve" smooth="yes"/>
      <point x="762" y="341" type="line"/>
      <point x="831" y="341" type="line" smooth="yes"/>
      <point x="875" y="341"/>
      <point x="905" y="332"/>
      <point x="920" y="313" type="curve" smooth="yes"/>
      <point x="938" y="292"/>
      <point x="950" y="255"/>
      <point x="950" y="220" type="curve" smooth="yes"/>
      <point x="950" y="208" type="line"/>
      <point x="985" y="208" type="line"/>
      <point x="985" y="512" type="line"/>
      <point x="950" y="512" type="line"/>
      <point x="950" y="503" type="line" smooth="yes"/>
      <point x="950" y="466"/>
      <point x="935" y="421"/>
      <point x="918" y="405" type="curve" smooth="yes"/>
      <point x="900" y="389"/>
      <point x="879" y="384"/>
      <point x="831" y="384" type="curve" smooth="yes"/>
      <point x="762" y="384" type="line"/>
      <point x="762" y="552" type="line" smooth="yes"/>
      <point x="762" y="618"/>
      <point x="787" y="638"/>
      <point x="871" y="638" type="curve" smooth="yes"/>
      <point x="1017" y="638"/>
      <point x="1112" y="594"/>
      <point x="1181" y="493" type="curve"/>
      <point x="1216" y="503" type="line"/>
      <point x="1141" y="681" type="line"/>
    </contour>
    <contour>
      <point x="454" y="384" type="line"/>
      <point x="662" y="628" type="line"/>
      <point x="662" y="384" type="line"/>
    </contour>
  </outline>
</glyph>
<glyph name="Ccedilla" format="1">
  <advance width="740"/>
  <unicode hex="00C7"/>
  <outline>
    <contour>
      <point x="390" y="-13" type="line"/>
      <point x="526" y="-13"/>
      <point x="632" y="45"/>
      <point x="702" y="159" type="curve"/>
      <point x="659" y="183" type="line"/>
      <point x="630" y="140"/>
      <point x="610" y="118"/>
      <point x="577" y="94" type="curve" smooth="yes"/>
      <point x="529" y="58"/>
      <point x="464" y="35"/>
      <point x="412" y="35" type="curve" smooth="yes"/>
      <point x="350" y="35"/>
      <point x="278" y="68"/>
      <point x="235" y="116" type="curve" smooth="yes"/>
      <point x="188" y="167"/>
      <point x="162" y="248"/>
      <point x="162" y="338" type="curve" smooth="yes"/>
      <point x="162" y="515"/>
      <point x="260" y="646"/>
      <point x="392" y="646" type="curve" smooth="yes"/>
      <point x="466" y="646"/>
      <point x="540" y="604"/>
      <point x="587" y="536" type="curve" smooth="yes"/>
      <point x="606" y="508"/>
      <point x="618" y="487"/>
      <point x="649" y="431" type="curve"/>
      <point x="681" y="431" type="line"/>
      <point x="633" y="672" type="line"/>
      <point x="600" y="672" type="line"/>
      <point x="579" y="630" type="line"/>
      <point x="520" y="675"/>
      <point x="459" y="694"/>
      <point x="373" y="694" type="curve" smooth="yes"/>
      <point x="293" y="694"/>
      <point x="199" y="650"/>
      <point x="138" y="584" type="curve" smooth="yes"/>
      <point x="77" y="519"/>
      <point x="44" y="431"/>
      <point x="44" y="337" type="curve" smooth="yes"/>
      <point x="44" y="149"/>
      <point x="170" y="10"/>
      <point x="360" y="-11" type="curve"/>
      <point x="339" y="-78" type="line"/>
      <point x="359" y="-71"/>
      <point x="372" y="-68"/>
      <point x="386" y="-68" type="curve" smooth="yes"/>
      <point x="425" y="-68"/>
      <point x="446" y="-86"/>
      <point x="446" y="-119" type="curve" smooth="yes"/>
      <point x="446" y="-150"/>
      <point x="426" y="-173"/>
      <point x="400" y="-173" type="curve" smooth="yes"/>
      <point x="380" y="-173"/>
      <point x="371" y="-166"/>
      <point x="361" y="-143" type="curve" smooth="yes"/>
      <point x="354" y="-125"/>
      <point x="346" y="-119"/>
      <point x="330" y="-119" type="curve" smooth="yes"/>
      <point x="316" y="-119"/>
      <point x="305" y="-130"/>
      <point x="305" y="-144" type="curve" smooth="yes"/>
      <point x="305" y="-174"/>
      <point x="350" y="-200"/>
      <point x="402" y="-200" type="curve" smooth="yes"/>
      <point x="457" y="-200"/>
      <point x="494" y="-166"/>
      <point x="494" y="-115" type="curve" smooth="yes"/>
      <point x="494" y="-69"/>
      <point x="460" y="-41"/>
      <point x="405" y="-41" type="curve" smooth="yes"/>
      <point x="403" y="-41"/>
      <point x="399" y="-41"/>
      <point x="394" y="-42" type="curve"/>
      <point x="392" y="-42"/>
      <point x="387" y="-42"/>
      <point x="381" y="-43" type="curve"/>
    </contour>
  </outline>
</glyph>
<glyph name="Edieresis" format="1">
  <advance width="720"/>
  <unicode hex="00CB"/>
  <outline>
    <contour>
      <point x="602" y="681" type="line"/>
      <point x="31" y="681" type="line"/>
      <point x="31" y="650" type="line"/>
      <point x="56" y="647" type="line" smooth="yes"/>
      <point x="108" y="640"/>
      <point x="121" y="619"/>
      <point x="121" y="537" type="curve" smooth="yes"/>
      <point x="121" y="144" type="line" smooth="yes"/>
      <point x="121" y="62"/>
      <point x="108" y="41"/>
      <point x="56" y="34" type="curve" smooth="yes"/>
      <point x="31" y="31" type="line"/>
      <point x="31" y="0" type="line"/>
      <point x="614" y="0" type="line"/>
      <point x="705" y="213" type="line"/>
      <point x="674" y="227" type="line"/>
      <point x="565" y="87"/>
      <point x="483" y="43"/>
      <point x="334" y="43" type="curve" smooth="yes"/>
      <point x="284" y="43"/>
      <point x="250" y="52"/>
      <point x="234" y="71" type="curve"/>
      <point x="225" y="83"/>
      <point x="221" y="99"/>
      <point x="221" y="131" type="curve" smooth="yes"/>
      <point x="221" y="342" type="line"/>
      <point x="295" y="342" type="line" smooth="yes"/>
      <point x="374" y="342"/>
      <point x="408" y="307"/>
      <point x="418" y="213" type="curve"/>
      <point x="452" y="213" type="line"/>
      <point x="452" y="512" type="line"/>
      <point x="418" y="512" type="line"/>
      <point x="404" y="408"/>
      <point x="382" y="385"/>
      <point x="297" y="385" type="curve" smooth="yes"/>
      <point x="221" y="385" type="line"/>
      <point x="221" y="555" type="line" smooth="yes"/>
      <point x="221" y="619"/>
      <point x="247" y="638"/>
      <point x="335" y="638" type="curve" smooth="yes"/>
      <point x="471" y="638"/>
      <point x="547" y="600"/>
      <point x="639" y="488" type="curve"/>
      <point x="671" y="501" type="line"/>
    </contour>
    <contour>
      <point x="278" y="871" type="curve" smooth="yes"/>
      <point x="245" y="871"/>
      <point x="218" y="845"/>
      <point x="218" y="812" type="curve" smooth="yes"/>
      <point x="218" y="780"/>
      <point x="245" y="753"/>
      <point x="277" y="753" type="curve" smooth="yes"/>
      <point x="309" y="753"/>
      <point x="336" y="780"/>
      <point x="336" y="812" type="curve" smooth="yes"/>
      <point x="336" y="844"/>
      <point x="309" y="871"/>
    </contour>
    <contour>
      <point x="441" y="871" type="curve" smooth="yes"/>
      <point x="408" y="871"/>
      <point x="381" y="845"/>
      <point x="381" y="812" type="curve" smooth="yes"/>
      <point x="381" y="780"/>
      <point x="408" y="753"/>
      <point x="440" y="753" type="curve" smooth="yes"/>
      <point x="472" y="753"/>
      <point x="499" y="780"/>
      <point x="499" y="812" type="curve" smooth="yes"/>
      <point x="499" y="844"/>
      <point x="472" y="871"/>
    </contour>
  </outline>
</glyph>
<glyph name="Igrave" format="1">
  <advance width="340"/>
  <unicode hex="00CC"/>
  <outline>
    <contour>
      <point x="216" y="537" type="line" smooth="yes"/>
      <point x="216" y="620"/>
      <point x="227" y="638"/>
      <point x="281" y="647" type="curve" smooth="yes"/>
      <point x="301" y="650" type="line"/>
      <point x="301" y="681" type="line"/>
      <point x="31" y="681" type="line"/>
      <point x="31" y="650" type="line"/>
      <point x="51" y="647" type="line" smooth="yes"/>
      <point x="105" y="638"/>
      <point x="116" y="620"/>
      <point x="116" y="537" type="curve" smooth="yes"/>
      <point x="116" y="144" type="line" smooth="yes"/>
      <point x="116" y="61"/>
      <point x="105" y="43"/>
      <point x="51" y="34" type="curve" smooth="yes"/>
      <point x="31" y="31" type="line"/>
      <point x="31" y="0" type="line"/>
      <point x="301" y="0" type="line"/>
      <point x="301" y="31" type="line"/>
      <point x="281" y="34" type="line" smooth="yes"/>
      <point x="227" y="43"/>
      <point x="216" y="61"/>
      <point x="216" y="144" type="curve" smooth="yes"/>
    </contour>
    <contour>
      <point x="234" y="753" type="line"/>
      <point x="239" y="767" type="line"/>
      <point x="144" y="835" type="line" smooth="yes"/>
      <point x="115" y="857"/>
      <point x="87" y="869"/>
      <point x="68" y="869" type="curve" smooth="yes"/>
      <point x="48" y="869"/>
      <point x="33" y="853"/>
      <point x="33" y="832" type="curve" smooth="yes"/>
      <point x="33" y="806"/>
      <point x="52" y="791"/>
      <point x="95" y="782" type="curve" smooth="yes"/>
    </contour>
  </outline>
</glyph>
<glyph name="Iacute" format="1">
  <advance width="340"/>
  <unicode hex="00CD"/>
  <outline>
    <contour>
      <point x="216" y="537" type="line" smooth="yes"/>
      <point x="216" y="620"/>
      <point x="227" y="638"/>
      <point x="281" y="647" type="curve" smooth="yes"/>
      <point x="301" y="650" type="line"/>
      <point x="301" y="681" type="line"/>
      <point x="31" y="681" type="line"/>
      <point x="31" y="650" type="line"/>
      <point x="51" y="647" type="line" smooth="yes"/>
      <point x="105" y="638"/>
      <point x="116" y="620"/>
      <point x="116" y="537" type="curve" smooth="yes"/>
      <point x="116" y="144" type="line" smooth="yes"/>
      <point x="116" y="61"/>
      <point x="105" y="43"/>
      <point x="51" y="34" type="curve" smooth="yes"/>
      <point x="31" y="31" type="line"/>
      <point x="31" y="0" type="line"/>
      <point x="301" y="0" type="line"/>
      <point x="301" y="31" type="line"/>
      <point x="281" y="34" type="line" smooth="yes"/>
      <point x="227" y="43"/>
      <point x="216" y="61"/>
      <point x="216" y="144" type="curve" smooth="yes"/>
    </contour>
    <contour>
      <point x="73" y="753" type="line"/>
      <point x="212" y="782" type="line" smooth="yes"/>
      <point x="255" y="791"/>
      <point x="274" y="806"/>
      <point x="274" y="832" type="curve" smooth="yes"/>
      <point x="274" y="853"/>
      <point x="259" y="869"/>
      <point x="239" y="869" type="curve" smooth="yes"/>
      <point x="219" y="869"/>
      <point x="192" y="857"/>
      <point x="163" y="835" type="curve" smooth="yes"/>
      <point x="68" y="767" type="line"/>
    </contour>
  </outline>
</glyph>
<glyph name="Icircumflex" format="1">
  <advance width="340"/>
  <unicode hex="00CE"/>
  <outline>
    <contour>
      <point x="216" y="537" type="line" smooth="yes"/>
      <point x="216" y="620"/>
      <point x="227" y="638"/>
      <point x="281" y="647" type="curve" smooth="yes"/>
      <point x="301" y="650" type="line"/>
      <point x="301" y="681" type="line"/>
      <point x="31" y="681" type="line"/>
      <point x="31" y="650" type="line"/>
      <point x="51" y="647" type="line" smooth="yes"/>
      <point x="105" y="638"/>
      <point x="116" y="620"/>
      <point x="116" y="537" type="curve" smooth="yes"/>
      <point x="116" y="144" type="line" smooth="yes"/>
      <point x="116" y="61"/>
      <point x="105" y="43"/>
      <point x="51" y="34" type="curve" smooth="yes"/>
      <point x="31" y="31" type="line"/>
      <point x="31" y="0" type="line"/>
      <point x="301" y="0" type="line"/>
      <point x="301" y="31" type="line"/>
      <point x="281" y="34" type="line" smooth="yes"/>
      <point x="227" y="43"/>
      <point x="216" y="61"/>
      <point x="216" y="144" type="curve" smooth="yes"/>
    </contour>
    <contour>
      <point x="170" y="871" type="line"/>
      <point x="28" y="777" type="line"/>
      <point x="41" y="752" type="line"/>
      <point x="170" y="798" type="line"/>
      <point x="298" y="752" type="line"/>
      <point x="312" y="777" type="line"/>
    </contour>
  </outline>
</glyph>
<glyph name="Idieresis" format="1">
  <advance width="340"/>
  <unicode hex="00CF"/>
  <outline>
    <contour>
      <point x="216" y="537" type="line" smooth="yes"/>
      <point x="216" y="620"/>
      <point x="227" y="638"/>
      <point x="281" y="647" type="curve" smooth="yes"/>
      <point x="301" y="650" type="line"/>
      <point x="301" y="681" type="line"/>
      <point x="31" y="681" type="line"/>
      <point x="31" y="650" type="line"/>
      <point x="51" y="647" type="line" smooth="yes"/>
      <point x="105" y="638"/>
      <point x="116" y="620"/>
      <point x="116" y="537" type="curve" smooth="yes"/>
      <point x="116" y="144" type="line" smooth="yes"/>
      <point x="116" y="61"/>
      <point x="105" y="43"/>
      <point x="51" y="34" type="curve" smooth="yes"/>
      <point x="31" y="31" type="line"/>
      <point x="31" y="0" type="line"/>
      <point x="301" y="0" type="line"/>
      <point x="301" y="31" type="line"/>
      <point x="281" y="34" type="line" smooth="yes"/>
      <point x="227" y="43"/>
      <point x="216" y="61"/>
      <point x="216" y="144" type="curve" smooth="yes"/>
    </contour>
    <contour>
      <point x="88" y="871" type="curve" smooth="yes"/>
      <point x="55" y="871"/>
      <point x="28" y="845"/>
      <point x="28" y="812" type="curve" smooth="yes"/>
      <point x="28" y="780"/>
      <point x="55" y="753"/>
      <point x="87" y="753" type="curve" smooth="yes"/>
      <point x="119" y="753"/>
      <point x="146" y="780"/>
      <point x="146" y="812" type="curve" smooth="yes"/>
      <point x="146" y="844"/>
      <point x="119" y="871"/>
    </contour>
    <contour>
      <point x="251" y="871" type="curve" smooth="yes"/>
      <point x="218" y="871"/>
      <point x="191" y="845"/>
      <point x="191" y="812" type="curve" smooth="yes"/>
      <point x="191" y="780"/>
      <point x="218" y="753"/>
      <point x="250" y="753" type="curve" smooth="yes"/>
      <point x="282" y="753"/>
      <point x="309" y="780"/>
      <point x="309" y="812" type="curve" smooth="yes"/>
      <point x="309" y="844"/>
      <point x="282" y="871"/>
    </contour>
  </outline>
</glyph>
<glyph name="Eth" format="1">
  <advance width="800"/>
  <unicode hex="00D0"/>
  <outline>
    <contour>
      <point x="121" y="387" type="line"/>
      <point x="31" y="387" type="line"/>
      <point x="31" y="340" type="line"/>
      <point x="121" y="340" type="line"/>
      <point x="121" y="144" type="line" smooth="yes"/>
      <point x="121" y="62"/>
      <point x="109" y="41"/>
      <point x="56" y="34" type="curve" smooth="yes"/>
      <point x="31" y="31" type="line"/>
      <point x="31" y="0" type="line"/>
      <point x="336" y="0" type="line" smooth="yes"/>
      <point x="491" y="0"/>
      <point x="574" y="22"/>
      <point x="644" y="83" type="curve" smooth="yes"/>
      <point x="711" y="141"/>
      <point x="752" y="237"/>
      <point x="752" y="335" type="curve" smooth="yes"/>
      <point x="752" y="430"/>
      <point x="713" y="529"/>
      <point x="652" y="587" type="curve" smooth="yes"/>
      <point x="584" y="652"/>
      <point x="487" y="681"/>
      <point x="336" y="681" type="curve" smooth="yes"/>
      <point x="31" y="681" type="line"/>
      <point x="31" y="650" type="line"/>
      <point x="56" y="647" type="line" smooth="yes"/>
      <point x="108" y="640"/>
      <point x="121" y="619"/>
      <point x="121" y="536" type="curve" smooth="yes"/>
    </contour>
    <contour>
      <point x="221" y="387" type="line"/>
      <point x="221" y="548" type="line" smooth="yes"/>
      <point x="221" y="586"/>
      <point x="224" y="605"/>
      <point x="233" y="615" type="curve"/>
      <point x="245" y="630"/>
      <point x="290" y="640"/>
      <point x="340" y="640" type="curve" smooth="yes"/>
      <point x="449" y="640"/>
      <point x="529" y="604"/>
      <point x="579" y="534" type="curve" smooth="yes"/>
      <point x="614" y="483"/>
      <point x="634" y="415"/>
      <point x="634" y="342" type="curve" smooth="yes"/>
      <point x="634" y="262"/>
      <point x="610" y="186"/>
      <point x="570" y="135" type="curve" smooth="yes"/>
      <point x="521" y="74"/>
      <point x="440" y="41"/>
      <point x="339" y="41" type="curve" smooth="yes"/>
      <point x="290" y="41"/>
      <point x="249" y="50"/>
      <point x="235" y="63" type="curve" smooth="yes"/>
      <point x="224" y="73"/>
      <point x="221" y="89"/>
      <point x="221" y="130" type="curve" smooth="yes"/>
      <point x="221" y="340" type="line"/>
      <point x="421" y="340" type="line"/>
      <point x="421" y="387" type="line"/>
    </contour>
  </outline>
</glyph>
<glyph name="Ntilde" format="1">
  <advance width="740"/>
  <unicode hex="00D1"/>
  <outline>
    <contour>
      <point x="173" y="606" type="line"/>
      <point x="544" y="0" type="line"/>
      <point x="632" y="0" type="line"/>
      <point x="632" y="537" type="line" smooth="yes"/>
      <point x="632" y="619"/>
      <point x="645" y="640"/>
      <point x="697" y="647" type="curve" smooth="yes"/>
      <point x="722" y="650" type="line"/>
      <point x="722" y="681" type="line"/>
      <point x="475" y="681" type="line"/>
      <point x="475" y="650" type="line"/>
      <point x="510" y="647" type="line" smooth="yes"/>
      <point x="561" y="642"/>
      <point x="575" y="618"/>
      <point x="575" y="537" type="curve" smooth="yes"/>
      <point x="575" y="142" type="line"/>
      <point x="249" y="681" type="line"/>
      <point x="26" y="681" type="line"/>
      <point x="26" y="650" type="line"/>
      <point x="51" y="647" type="line" smooth="yes"/>
      <point x="103" y="640"/>
      <point x="116" y="619"/>
      <point x="116" y="537" type="curve" smooth="yes"/>
      <point x="116" y="144" type="line" smooth="yes"/>
      <point x="116" y="62"/>
      <point x="103" y="41"/>
      <point x="51" y="34" type="curve" smooth="yes"/>
      <point x="26" y="31" type="line"/>
      <point x="26" y="0" type="line"/>
      <point x="273" y="0" type="line"/>
      <point x="273" y="31" type="line"/>
      <point x="238" y="34" type="line" smooth="yes"/>
      <point x="187" y="39"/>
      <point x="173" y="63"/>
      <point x="173" y="144" type="curve" smooth="yes"/>
    </contour>
    <contour>
      <point x="496" y="847" type="line"/>
      <point x="485" y="833"/>
      <point x="468" y="825"/>
      <point x="448" y="825" type="curve" smooth="yes"/>
      <point x="435" y="825"/>
      <point x="423" y="827"/>
      <point x="399" y="834" type="curve" smooth="yes"/>
      <point x="348" y="848"/>
      <point x="327" y="852"/>
      <point x="304" y="852" type="curve" smooth="yes"/>
      <point x="265" y="852"/>
      <point x="231" y="825"/>
      <point x="218" y="784" type="curve"/>
      <point x="247" y="774" type="line"/>
      <point x="260" y="789"/>
      <point x="271" y="794"/>
      <point x="286" y="794" type="curve" smooth="yes"/>
      <point x="300" y="794"/>
      <point x="309" y="792"/>
      <point x="340" y="784" type="curve" smooth="yes"/>
      <point x="389" y="770"/>
      <point x="411" y="766"/>
      <point x="435" y="766" type="curve" smooth="yes"/>
      <point x="483" y="766"/>
      <point x="510" y="788"/>
      <point x="525" y="838" type="curve"/>
    </contour>
  </outline>
</glyph>
<glyph name="Otilde" format="1">
  <advance width="800"/>
  <unicode hex="00D5"/>
  <outline>
    <contour>
      <point x="404" y="694" type="curve" smooth="yes"/>
      <point x="203" y="694"/>
      <point x="44" y="539"/>
      <point x="44" y="343" type="curve" smooth="yes"/>
      <point x="44" y="141"/>
      <point x="198" y="-13"/>
      <point x="400" y="-13" type="curve" smooth="yes"/>
      <point x="510" y="-13"/>
      <point x="618" y="37"/>
      <point x="684" y="118" type="curve" smooth="yes"/>
      <point x="733" y="178"/>
      <point x="758" y="254"/>
      <point x="758" y="338" type="curve" smooth="yes"/>
      <point x="758" y="544"/>
      <point x="609" y="694"/>
    </contour>
    <contour>
      <point x="402" y="646" type="curve" smooth="yes"/>
      <point x="548" y="646"/>
      <point x="640" y="525"/>
      <point x="640" y="332" type="curve" smooth="yes"/>
      <point x="640" y="152"/>
      <point x="546" y="35"/>
      <point x="401" y="35" type="curve" smooth="yes"/>
      <point x="255" y="35"/>
      <point x="162" y="155"/>
      <point x="162" y="342" type="curve" smooth="yes"/>
      <point x="162" y="526"/>
      <point x="257" y="646"/>
    </contour>
    <contour>
      <point x="533" y="847" type="line"/>
      <point x="522" y="833"/>
      <point x="505" y="825"/>
      <point x="485" y="825" type="curve" smooth="yes"/>
      <point x="472" y="825"/>
      <point x="460" y="827"/>
      <point x="436" y="834" type="curve" smooth="yes"/>
      <point x="385" y="848"/>
      <point x="364" y="852"/>
      <point x="341" y="852" type="curve" smooth="yes"/>
      <point x="302" y="852"/>
      <point x="268" y="825"/>
      <point x="255" y="784" type="curve"/>
      <point x="284" y="774" type="line"/>
      <point x="297" y="789"/>
      <point x="308" y="794"/>
      <point x="323" y="794" type="curve" smooth="yes"/>
      <point x="337" y="794"/>
      <point x="346" y="792"/>
      <point x="377" y="784" type="curve" smooth="yes"/>
      <point x="426" y="770"/>
      <point x="448" y="766"/>
      <point x="472" y="766" type="curve" smooth="yes"/>
      <point x="520" y="766"/>
      <point x="547" y="788"/>
      <point x="562" y="838" type="curve"/>
    </contour>
  </outline>
</glyph>
